<?xml version="1.0" encoding="UTF-8"?>
<svg xmlns="http://www.w3.org/2000/svg" xmlns:xlink="http://www.w3.org/1999/xlink" viewBox="0 0 573.48 287.37">
  <defs>
    <style>
      .cls-1 {
        fill: #cc835a;
      }

      .cls-2 {
        opacity: .66;
      }

      .cls-2, .cls-3 {
        fill: #201c1b;
      }

      .cls-4 {
        fill: #755b52;
      }

      .cls-5 {
        fill: #e3af80;
      }

      .cls-6 {
        fill: #56301f;
        opacity: .37;
      }

      .cls-7 {
        opacity: .47;
      }

      .cls-7, .cls-8 {
        fill: #d3bfb6;
      }

      .cls-9 {
        fill: #8fab72;
      }

      .cls-10 {
        fill: #893f3e;
        opacity: .6;
      }

      .cls-11 {
        fill: #e05a44;
        opacity: .29;
      }

      .cls-12 {
        fill: #e58d7c;
      }

      .cls-13 {
        fill: #1a487a;
      }

      .cls-14, .cls-15 {
        fill: #eddfd1;
      }

      .cls-16 {
        fill: #2a3a1b;
      }

      .cls-17 {
        fill: #0b0e1c;
      }

      .cls-18 {
        fill: #cf8321;
      }

      .cls-19 {
        fill: #4b615e;
      }

      .cls-20 {
        fill: #181e2d;
      }

      .cls-21 {
        fill: #efb8a5;
      }

      .cls-22 {
        fill: #2971c2;
      }

      .cls-23 {
        fill: #999c91;
      }

      .cls-24 {
        fill: #40592f;
      }

      .cls-25 {
        opacity: .12;
      }

      .cls-25, .cls-26, .cls-27 {
        fill: #fff;
      }

      .cls-26 {
        opacity: .1;
      }

      .cls-28 {
        fill: #ffe8cc;
      }

      .cls-29 {
        fill: #779962;
      }

      .cls-30 {
        fill: #e68260;
      }

      .cls-31 {
        fill: #a37d69;
      }

      .cls-32 {
        fill: #eaba94;
      }

      .cls-33 {
        isolation: isolate;
      }

      .cls-34 {
        fill: #bfa9a3;
      }

      .cls-35 {
        fill: #000200;
        opacity: .08;
      }

      .cls-36 {
        fill: #c9ced1;
      }

      .cls-37 {
        fill: #803636;
      }

      .cls-38 {
        fill: #3b4b66;
      }

      .cls-39 {
        fill: #15192d;
      }

      .cls-40 {
        fill: #8c9faa;
      }

      .cls-41 {
        fill: #9bb77b;
      }

      .cls-42 {
        fill: #1d2435;
      }

      .cls-43 {
        fill: #3e5775;
      }

      .cls-44 {
        fill: #39727b;
      }

      .cls-45 {
        fill: #fdcebe;
      }

      .cls-46 {
        fill: #fcfbfa;
      }

      .cls-47 {
        fill: #6a84a3;
      }

      .cls-48 {
        fill: #554972;
      }

      .cls-49 {
        fill: #344924;
      }

      .cls-50 {
        fill: #080000;
      }

      .cls-15 {
        mix-blend-mode: color-burn;
      }

      .cls-51 {
        fill: #96918f;
      }

      .cls-52 {
        fill: #273d4a;
      }

      .cls-53 {
        fill: #e09b36;
      }

      .cls-54 {
        fill: #d18f00;
      }

      .cls-55 {
        fill: #29384a;
      }

      .cls-56 {
        fill: #fff6c9;
      }

      .cls-57 {
        fill: #bfbfbf;
      }

      .cls-58 {
        fill: #de8e73;
      }

      .cls-59 {
        fill: #ffbf00;
      }

      .cls-60 {
        fill: #96403f;
      }

      .cls-61 {
        fill: #7e4b39;
        opacity: .61;
      }

      .cls-62 {
        fill: #f4bfaf;
      }

      .cls-63 {
        fill: #ffe671;
      }

      .cls-64 {
        fill: #2d2d2d;
      }

      .cls-65 {
        fill: #2d2c31;
      }

      .cls-66 {
        fill: #637987;
      }

      .cls-67 {
        fill: #894929;
      }

      .cls-68 {
        fill: #353535;
      }

      .cls-69 {
        clip-path: url(#clippath);
      }

      .cls-70 {
        fill: #1b283b;
      }

      .cls-71 {
        fill: #717d89;
      }
    </style>
    <clipPath id="clippath">
      <path class="cls-34" d="M193.06,129.22h172.39c17.58,0,31.85,14.27,31.85,31.85v53.75h-236.09v-53.75c0-17.58,14.27-31.85,31.85-31.85Z"/>
    </clipPath>
  </defs>
  <g class="cls-33">
    <g id="Capa_2" data-name="Capa 2">
      <g id="Capa_1-2" data-name="Capa 1">
        <path id="Die" class="cls-14" d="M37.02,281.21S-25.34,207.57,11.82,115.82C41.87,41.62,80.35,18.62,125.98,10.38c55.15-9.96,102.58,6,157.86-3.81,103.13-18.32,204.18,2.48,248.68,52.83,67.27,76.1,37.85,212.07,9.2,222.51l-504.71-.69Z"/>
        <g id="Decor">
          <g>
            <g>
              <polygon class="cls-66" points="173.97 48.46 177.4 54.4 184.25 54.4 187.58 48.62 187.67 48.47 187.62 48.37 184.31 42.64 184.25 42.53 186.83 38.06 186.83 38.05 186.83 38.05 183.91 33 183.83 32.85 182.54 32.85 183.16 27.03 178.56 27.03 179.18 32.85 177.82 32.85 174.81 38.06 177.4 42.53 173.97 48.46"/>
              <polygon class="cls-40" points="180.86 48.62 187.58 48.62 187.67 48.47 187.62 48.37 184.31 42.64 181.78 42.64 180.86 48.62"/>
              <polygon class="cls-40" points="181.78 33 181.78 38.05 186.83 38.05 183.91 33 181.78 33"/>
              <polygon class="cls-40" points="182.16 27.03 181.78 33 182.57 33 183.16 27.03 182.16 27.03"/>
            </g>
            <rect class="cls-31" x="171.42" y="54.13" width="49.61" height="3.22"/>
            <rect class="cls-31" x="171.42" y="82.15" width="49.61" height="3.22"/>
            <g>
              <rect class="cls-18" x="201.73" y="61.02" width="2.76" height="21.13"/>
              <rect class="cls-19" x="198.98" y="57.8" width="2.76" height="24.35"/>
              <rect class="cls-52" x="204.49" y="58.72" width="4.59" height="23.43"/>
              <rect class="cls-27" x="209.08" y="59.18" width="1.84" height="22.97"/>
            </g>
            <g>
              <rect class="cls-27" x="189.79" y="48.16" width="28.94" height="5.97"/>
              <rect class="cls-70" x="192.09" y="45.86" width="25.26" height="2.3"/>
              <rect class="cls-18" x="190.25" y="42.64" width="26.18" height="3.22"/>
              <path class="cls-23" d="M209.4,39.05l-.03-.47.02-.06h-.03s-.46-7.35-.46-7.35l.08-.05-.09-.13v-.13s-.13-.06-.13-.06l-.04-.06-.03.02-6.96-3.57-.04-.06-.04.02-.08-.04-6.79,4.45.51,8.19.27.13h0s0,0,0,0l6.85,3.25,6.97-4.08ZM205.75,37.2l-3.89-1.42,3.19-2.09.77,3.49-.07.02ZM201.77,36.24l3.14,1.14-2.91.63-.24-1.77ZM201.56,38.11l-4.86,1.06,4.6-3.01.26,1.96ZM205.72,37.68l3.15,1.15-6.27,3.67-.54-4.02,3.65-.79ZM206.16,36.57l-.7-3.14,2.55-1.67-1.85,4.81ZM201.32,35.59l-1.83-.67,2.18-6.96,3.25,5.28-3.59,2.35ZM201.52,27.72h-.01s0,0,0,0h0ZM199.09,34.68l-3.75-2.92,5.86-3.84-2.11,6.76ZM199.29,35.34l1.55.56-3.59,2.35,2.04-2.92ZM201.62,38.57l.52,3.91-5.82-2.76,5.3-1.15ZM206.33,37.41l2.16-5.61.41,6.54-2.57-.93ZM208.25,31.05l-2.95,1.93-3.1-5.04,6.05,3.1ZM195.31,32.32l3.59,2.79-2.68,3.82-.48.31-.44-6.93Z"/>
            </g>
            <g>
              <rect class="cls-5" x="173.71" y="59.64" width="20.67" height="22.51"/>
              <rect class="cls-44" x="176.93" y="63.32" width="14.24" height="15.16"/>
              <g>
                <path class="cls-27" d="M180.66,71.38s.02-.02.03-.03c0,0-1.24-.83-.83-2.07.41-1.24,0-4.13,0-4.13l2.48,1.65h3.31l2.48-1.65-.41,2.48s.83,2.89,0,3.72c0,0,.01.02.04.06.04.06.11.19.2.36.52.96,1.83,2.56,1.82,6.7h-12.29c.36-1.38,1.28-5.51,2.86-6.79.12-.1.21-.22.32-.3Z"/>
                <ellipse class="cls-50" cx="182.35" cy="69.08" rx=".41" ry=".62"/>
                <ellipse class="cls-50" cx="185.66" cy="69.08" rx=".41" ry=".62"/>
                <polygon class="cls-62" points="183.59 69.7 184.42 69.7 184 70.53 183.59 69.7"/>
                <path class="cls-44" d="M187.96,71.78c-1.1.58-2.41.86-3.71.86-1.38,0-2.77-.32-3.9-.96.1-.12.21-.22.31-.3,2.08,1.11,4.98,1.14,7.1.03.04.07.11.19.2.36Z"/>
                <ellipse class="cls-53" cx="184" cy="73.22" rx=".41" ry=".62"/>
                <path class="cls-57" d="M180.92,75.9l-.64,2.48h-.21s0-.02,0-.02l.64-2.51c.01-.06.07-.09.12-.07.06.01.09.07.07.12Z"/>
                <path class="cls-57" d="M186.99,78.38v-.02c-.02-.64-.05-1.52-.57-2.47-.03-.05,0-.11.04-.14.05-.02.11,0,.14.04.54,1,.57,1.9.6,2.56v.02h-.21Z"/>
              </g>
            </g>
          </g>
          <g>
            <rect class="cls-30" x="334.67" y="31.85" width="36.75" height="48.23"/>
            <rect class="cls-28" x="338.52" y="35.98" width="29.05" height="39.5"/>
            <path class="cls-27" d="M351.26,49.28c.98-1.08,1.57-2.62,1.14-4.01-.64-2.08-3.38-2.93-5.41-2.15-2.03.78-3.4,2.71-4.28,4.7-1.52,3.43-1.92,7.4-.83,10.99,1.09,3.59,3.74,6.74,7.21,8.17,3.47,1.43,7.71.99,10.65-1.33.85-.67,1.61-1.52,1.94-2.55s.18-2.26-.58-3.04c-.94-.95-2.48-.96-3.78-.66-1.3.3-2.58.84-3.92.77s-2.77-1.06-2.69-2.4c.06-1.08,1.06-1.88,2.07-2.26s2.12-.5,3.08-1c.96-.5,1.76-1.59,1.42-2.62-.42-1.3-2.27-1.48-3.5-.89-1.12.54-4.14,3.59-5.56,2.21-1.38-1.34,2.24-3.05,3.03-3.93Z"/>
            <circle class="cls-27" cx="360.4" cy="44.25" r="3.67"/>
            <circle class="cls-27" cx="345.01" cy="69.29" r="2.99"/>
          </g>
          <g>
            <rect class="cls-27" x="383.37" y="21.01" width="37.67" height="39.78"/>
            <rect class="cls-28" x="387.67" y="25.9" width="29.05" height="29.84"/>
            <path class="cls-32" d="M394.9,45.68c-1.87.35-4.14-.54-4.57-2.39-.42-1.81,1-3.45,1.96-5.05,1.19-2,1.71-4.4,1.46-6.72-.06-.52-.15-1.05.03-1.54.41-1.15,1.93-1.35,3.16-1.35,2.39,0,4.8,0,7.12.56,2.32.55,4.58,1.72,6,3.64,1.42,1.93,1.87,4.41,1.96,6.8.05,1.31,0,2.66-.51,3.87-.51,1.21-1.55,2.26-2.84,2.47s-2.76-.68-2.92-1.98c-.1-.85.32-1.67.77-2.4.67-1.08,2.02-3.89-.17-4.3-1.37-.26-3.08,1.68-3.94,2.54-2.2,2.21-4.22,5.25-7.5,5.85Z"/>
            <path class="cls-32" d="M397.81,49.05c-.27.65-.42,1.43-.07,2.03.37.63,1.2.88,1.93.75.72-.13,1.36-.55,1.93-1.01.71-.56,1.39-1.2,1.79-2.02.4-.82.46-1.84-.02-2.61-1.58-2.51-4.9,1.29-5.56,2.85Z"/>
            <path class="cls-27" d="M410.47,47.01c-.71.41-.64,1.6-.2,2.29.45.68,1.35.95,2.16.88.69-.06,1.42-.37,1.74-.99.43-.82-.06-1.92-.88-2.36-.82-.44-1.92-.45-2.69.06-.04.02-.09.1-.13.12Z"/>
            <path class="cls-27" d="M399.21,49.8c-2.93,0-5.31-3.62-5.31-8.07s2.38-8.07,5.31-8.07,5.31,3.62,5.31,8.07-2.38,8.07-5.31,8.07ZM399.21,34.18c-2.64,0-4.79,3.39-4.79,7.55s2.15,7.55,4.79,7.55,4.79-3.39,4.79-7.55-2.15-7.55-4.79-7.55Z"/>
            <path class="cls-27" d="M410.01,36.93c-1.28,0-2.33-1.46-2.33-3.25s1.04-3.25,2.33-3.25,2.33,1.46,2.33,3.25-1.04,3.25-2.33,3.25ZM410.01,30.96c-1,0-1.81,1.22-1.81,2.72s.81,2.72,1.81,2.72,1.81-1.22,1.81-2.72-.81-2.72-1.81-2.72Z"/>
          </g>
        </g>
        <g id="Sofa">
          <g>
            <g>
              <path class="cls-34" d="M193.06,129.22h172.39c17.58,0,31.85,14.27,31.85,31.85v53.75h-236.09v-53.75c0-17.58,14.27-31.85,31.85-31.85Z"/>
              <g class="cls-69">
                <g>
                  <rect class="cls-7" x="274.25" y="91.17" width="9.2" height="236.9" transform="translate(69.23 488.48) rotate(-90)"/>
                  <rect class="cls-8" x="290.81" y="46.81" width="9.2" height="267.8" transform="translate(114.71 476.12) rotate(-90)"/>
                  <rect class="cls-8" x="287.46" y="18.42" width="9.2" height="266.75" transform="translate(140.26 443.85) rotate(-90)"/>
                  <rect class="cls-8" x="279.88" y="-.09" width="9.2" height="245.94" transform="translate(161.6 407.36) rotate(-90)"/>
                  <rect class="cls-15" x="172.66" y="118.28" width="9.2" height="124.86"/>
                  <rect class="cls-15" x="201.58" y="118.28" width="9.2" height="124.86"/>
                  <rect class="cls-15" x="230.49" y="118.28" width="9.2" height="124.86"/>
                  <rect class="cls-15" x="259.41" y="118.28" width="9.2" height="124.86"/>
                  <rect class="cls-15" x="288.32" y="118.28" width="9.2" height="124.86"/>
                  <rect class="cls-15" x="317" y="118.28" width="9.2" height="124.86"/>
                  <rect class="cls-15" x="345.67" y="118.28" width="9.2" height="124.86"/>
                  <rect class="cls-15" x="374.35" y="118.28" width="9.2" height="124.86"/>
                </g>
              </g>
            </g>
            <ellipse class="cls-51" cx="139.6" cy="277.35" rx="6.13" ry="4.45"/>
            <ellipse class="cls-51" cx="417.54" cy="277.35" rx="6.13" ry="4.45"/>
            <path class="cls-8" d="M426.25,156.03h-17.81c-7.27,0-13.15,5.89-13.15,13.15v45.63h-232.54v-45.63c0-7.27-5.89-13.15-13.15-13.15h-17.81c-7.27,0-13.15,5.89-13.15,13.15l2.99,20.44c2.45,16.77,3.68,33.69,3.68,50.64v33.14h307.44v-33.13c0-16.95,1.23-33.87,3.68-50.64l2.99-20.44c0-7.27-5.89-13.15-13.15-13.15Z"/>
            <rect class="cls-4" x="394.99" y="214.81" width=".57" height="55.52"/>
            <rect class="cls-4" x="162.44" y="215.03" width=".57" height="56.02"/>
            <path class="cls-6" d="M265.87,149.73c6.18-2.09,6.06-7.61,17.11-11.53,9.97-3.53,12.43-3.21,23.87-5.83-12.73-4.77-13.43-1.58-26.77-4.17-3.81-.74-7.7-1.4-11.56-.97-3.86.42-7.74,2.06-10.08,5.15-.71.94-1,1.98-1.72,2.88-1,1.24-2.22,2.03-2.83,3.6-.7,1.81-.22,4.24,1.54,5.05,1.9.88,4.02-.45,5.79-1.56,2.2-1.39,2.43,8.14,4.65,7.39Z"/>
          </g>
          <g>
            <path class="cls-60" d="M314.24,201.38c.23,0,.46,0,.69-.02,2.86-.14,4.86-.12,7.46,1.44,1.77,1.06,3.46,2.42,5.49,2.75,2.38.39,4.73-.71,7.12-1.07,2.39-.36,5.43.52,5.86,2.89.24,1.29-.43,2.63-1.42,3.5-.99.87-2.25,1.35-3.51,1.75-4.98,1.57-10.54,2.59-15.76,1.91-2.55-.33-4.31-1.58-6.7-2.27-3.18-.93-6.57-1.23-9.87-.93-.5.05-1.21-.08-1.18-.58,0-.16.11-.3.2-.43.87-1.23,1.75-2.46,2.62-3.69,1.06-1.49,2.14-3.01,3.61-4.09,1.82-1.34,3.44-1.13,5.38-1.15Z"/>
            <path class="cls-45" d="M194.41,136.85c-2.9,5.18-3.53,11.29-3.76,17.22-.16,4.17-.22,8.6-2.48,12.11-2.26,3.51-7.69,5.32-10.67,2.4-1.07-6.92-.58-14.08,1.41-20.79.36-1.21.77-2.5.41-3.71-.85-2.84-4.82-2.91-7.71-2.28-2.89.63-6.73.96-8.02-1.71-1.63-5.09.35-11.11,4.67-14.25,4.72-3.43,11.07-3.25,16.9-2.92,3.54.2,18.43-.22,20.25,3.49,1.29,2.63-2.57,2.67-4.37,3.67-2.78,1.55-5.09,4-6.63,6.76Z"/>
            <path class="cls-48" d="M148.32,160.54c1.35,2.92,1.36,6.25,1.32,9.47-.1,8.24-.4,16.47-.91,24.7,2.21,2.98,7.27,2.03,9.57-.88s2.61-6.86,2.82-10.56c.44-7.82.86-15.72-.38-23.45-.38-2.35-.92-4.72-2.15-6.75-1.23-2.03-3.25-3.71-5.6-4.02-3.99-.52-7.47,2.8-11.45,3.38-2.31.33-4.65-.28-6.98-.17-2.33.11-4.94,1.33-5.36,3.62,6.37-.06,15.72-2.4,19.11,4.67Z"/>
            <path class="cls-27" d="M279.83,225.86c-3.81,6.1-5.26,13.64-3.97,20.72,4.31.64,8.62,1.29,12.93,1.93-.44-8.14.96-16.37,4.06-23.91,3.45,12.03,3.87,24.7,4.27,37.21,4.82-1.26,9.64-2.52,14.46-3.79-1.5-7.32-3.01-14.7-2.92-22.17.09-7.47,1.92-15.13,6.48-21.04.77-1,1.68-2.25,1.17-3.41-.48-1.12-1.93-1.36-3.14-1.41-13.71-.58-25.81,3.82-33.35,15.87Z"/>
          </g>
        </g>
        <g id="Plants">
          <g>
            <g>
              <path class="cls-27" d="M514.1,225.45c-.2,4.76-.53,9.76-.95,14.73-.2,2.34-.41,4.66-.64,6.96-.14,1.37-.29,2.73-.44,4.07-.09.82-.18,1.62-.28,2.42-1.28,10.77-2.86,19.96-4.24,24.14-1.6,4.82-5.5,3.98-7.19,3.98h-14.8c-1.27,0-3.81.31-6.13-6.12-.37-1.04-.78-3.06-1.19-5.72-.66-4.26-1.35-10.16-1.99-16.28-.08-.81-.16-1.62-.25-2.42-.14-1.36-.27-2.72-.4-4.07-.24-2.54-.47-5.03-.68-7.37-.72-8.1-1.21-14.32-1.21-14.32h40.39Z"/>
              <path class="cls-8" d="M513.15,239.77v.41c-.2,2.34-.41,4.66-.64,6.96h-36.91c-.24-2.54-.47-5.03-.68-7.37h38.23Z"/>
              <path class="cls-8" d="M512.07,251.2c-.09.82-.18,1.62-.28,2.42h-35.55c-.08-.81-.16-1.62-.25-2.42h36.07Z"/>
              <path class="cls-35" d="M514.1,225.45c-.2,4.76-.53,9.76-.95,14.73-.2,2.34-.41,4.66-.64,6.96-.14,1.37-.29,2.73-.44,4.07-.09.82-.18,1.62-.28,2.42-1.28,10.77-2.86,19.96-4.24,24.14-1.6,4.82-5.5,3.98-7.19,3.98h-14.8c-1.27,0-3.81.31-6.13-6.12-.37-1.04-.78-3.06-1.19-5.72,1.97.39,4.98.41,9.1-1.14,6.79-2.56,16.48-33.13,19.53-43.32h7.24Z"/>
            </g>
            <path class="cls-24" d="M484.54,225.45s-6.65-39.34-6.56-52.36c.06-8.77,1-18.05,1-18.05,0,0,11.37,14.81,11.37,23.45s1.56,46.95,1.56,46.95h-7.36Z"/>
            <path class="cls-29" d="M487.27,203.6h-.4c.09-14.26-6.02-40.36-6.08-40.62l.38-.19c.06.26,6.2,26.45,6.1,40.81Z"/>
            <polygon class="cls-16" points="488.41 188.35 485.73 205.57 488.27 213.36 488.41 188.35"/>
            <path class="cls-24" d="M496.17,225.45s9.77-42.16,16.98-56.34,7.98-18.57,7.98-18.57c0,0,.34,8.02-1.21,16.72-1.55,8.69-13.06,58.19-13.06,58.19h-10.69Z"/>
            <polygon class="cls-49" points="509.06 180.45 513.84 195.1 511.23 206.54 509.06 180.45"/>
            <path class="cls-29" d="M488.72,225.45s-1.99-44.47.8-62.56c1.45-9.44,7.36-39.34,9.95-43.37,2.59-4.03,3.38,9.67,3.58,15.92.2,6.25,1.47,58.4-.36,65.68-1.83,7.28-4.02,24.33-4.02,24.33h-9.95Z"/>
            <path class="cls-41" d="M488.55,215.73h-.56c0-.37.02-37.56.54-46.65.52-9.12,6.79-36.71,7.05-37.88l.54.26c-.07.29-6.51,28.67-7.03,37.69-.52,9.05-.54,46.21-.54,46.58Z"/>
            <path class="cls-9" d="M476.98,225.45s-2.75-5.25-3.27-13.12-.91-16.44-2.11-22.23c-1.19-5.79-4.1-15.98-4.1-15.98,0,0,8.71,11.63,13.47,20.99,4.76,9.36,8.94,19.66,8.94,30.35h-12.94Z"/>
            <path class="cls-9" d="M501.06,225.45s-.27-24.07,1-27.25,4.4-24.7,4.59-29.09c.19-4.39,1.58,9.13,2.58,15.76.99,6.63,2.59,23.66,1.59,32.12l-1,8.46h-8.76Z"/>
            <path class="cls-24" d="M493.43,225.47l-.4-.04c.04-.78,3.67-77.99,5.24-90.05l.39.11c-1.57,12.02-5.2,89.2-5.24,89.98Z"/>
            <path class="cls-24" d="M484.4,225.65c-2.11-3.08-5.91-19.28-6.61-23.21-.77-4.31-5.39-16.07-5.43-16.19l.35-.28c.19.49,4.69,11.95,5.47,16.33.82,4.54,4.58,20.13,6.51,22.95l-.28.41Z"/>
          </g>
          <g>
            <g>
              <path class="cls-27" d="M83.46,225.45c-.2,4.76-.53,9.76-.95,14.73-.2,2.34-.41,4.66-.64,6.96-.14,1.37-.29,2.73-.44,4.07-.09.82-.18,1.62-.28,2.42-1.28,10.77-2.86,19.96-4.24,24.14-1.6,4.82-5.5,3.98-7.19,3.98h-14.8c-1.27,0-3.81.31-6.13-6.12-.37-1.04-.78-3.06-1.19-5.72-.66-4.26-1.35-10.16-1.99-16.28-.08-.81-.16-1.62-.25-2.42-.14-1.36-.27-2.72-.4-4.07-.24-2.54-.47-5.03-.68-7.37-.72-8.1-1.21-14.32-1.21-14.32h40.39Z"/>
              <path class="cls-8" d="M82.51,239.77v.41c-.2,2.34-.41,4.66-.64,6.96h-36.91c-.24-2.54-.47-5.03-.68-7.37h38.23Z"/>
              <path class="cls-8" d="M81.43,251.2c-.09.82-.18,1.62-.28,2.42h-35.55c-.08-.81-.16-1.62-.25-2.42h36.07Z"/>
              <path class="cls-35" d="M83.46,225.45c-.2,4.76-.53,9.76-.95,14.73-.2,2.34-.41,4.66-.64,6.96-.14,1.37-.29,2.73-.44,4.07-.09.82-.18,1.62-.28,2.42-1.28,10.77-2.86,19.96-4.24,24.14-1.6,4.82-5.5,3.98-7.19,3.98h-14.8c-1.27,0-3.81.31-6.13-6.12-.37-1.04-.78-3.06-1.19-5.72,1.97.39,4.98.41,9.1-1.14,6.79-2.56,16.48-33.13,19.53-43.32h7.24Z"/>
            </g>
            <path class="cls-24" d="M53.9,225.45s-6.65-39.34-6.56-52.36c.06-8.77,1-18.05,1-18.05,0,0,11.37,14.81,11.37,23.45s1.56,46.95,1.56,46.95h-7.36Z"/>
            <path class="cls-29" d="M56.62,203.6h-.4c.09-14.26-6.02-40.36-6.08-40.62l.38-.19c.06.26,6.2,26.45,6.1,40.81Z"/>
            <polygon class="cls-16" points="57.76 188.35 55.09 205.57 57.63 213.36 57.76 188.35"/>
            <path class="cls-24" d="M65.52,225.45s9.77-42.16,16.98-56.34c7.21-14.18,7.98-18.57,7.98-18.57,0,0,.34,8.02-1.21,16.72-1.55,8.69-13.06,58.19-13.06,58.19h-10.69Z"/>
            <polygon class="cls-49" points="78.42 180.45 83.2 195.1 80.58 206.54 78.42 180.45"/>
            <path class="cls-29" d="M58.08,225.45s-1.99-44.47.8-62.56c1.45-9.44,7.36-39.34,9.95-43.37,2.59-4.03,3.38,9.67,3.58,15.92.2,6.25,1.47,58.4-.36,65.68-1.83,7.28-4.02,24.33-4.02,24.33h-9.95Z"/>
            <path class="cls-41" d="M57.91,215.73h-.56c0-.37.02-37.56.54-46.65.52-9.12,6.79-36.71,7.05-37.88l.54.26c-.07.29-6.51,28.67-7.03,37.69-.52,9.05-.54,46.21-.54,46.58Z"/>
            <path class="cls-9" d="M46.34,225.45s-2.75-5.25-3.27-13.12c-.52-7.87-.91-16.44-2.11-22.23-1.19-5.79-4.1-15.98-4.1-15.98,0,0,8.71,11.63,13.47,20.99,4.76,9.36,8.94,19.66,8.94,30.35h-12.94Z"/>
            <path class="cls-9" d="M70.42,225.45s-.27-24.07,1-27.25,4.4-24.7,4.59-29.09,1.58,9.13,2.58,15.76c.99,6.63,2.59,23.66,1.59,32.12l-1,8.46h-8.76Z"/>
            <path class="cls-24" d="M62.79,225.47l-.4-.04c.04-.78,3.67-77.99,5.24-90.05l.39.11c-1.57,12.02-5.2,89.2-5.24,89.98Z"/>
            <path class="cls-24" d="M53.76,225.65c-2.11-3.08-5.91-19.28-6.61-23.21-.77-4.31-5.39-16.07-5.43-16.19l.35-.28c.19.49,4.69,11.95,5.47,16.33.82,4.54,4.58,20.13,6.51,22.95l-.28.41Z"/>
          </g>
        </g>
        <g id="Person_3" data-name="Person 3">
          <g id="_6" data-name="6">
            <g>
              <g>
                <polygon class="cls-21" points="413.64 273.54 403.39 273.54 406.05 262.66 416.3 262.66 413.64 273.54"/>
                <g>
                  <path class="cls-64" d="M407.46,268.63c.69-.34,1.62-.64,2.38-.76,1.74-.29,3.2,1.24,4.3,2.62.86,2.13,1.72,4.27,2.57,6.4.24.59.47,1.3.11,1.83-.36.53-1.11.58-1.75.57-5.08-.06-10.16-.12-15.25-.18-.56-1.72.66-3.46,1.8-4.86,1.13-1.37,1.19-2.03,2.38-3.36.9-1.01,2.35-1.62,3.46-2.26Z"/>
                  <path class="cls-71" d="M417.12,281l-17.31.11s-.14-2.75-.14-2.77c0,.14,7.25-1.17,7.86-1.2,2.46-.11,4.93.08,7.34.58.91.19,1.88.18,2.24,1.04.23.54.01,1.63.01,2.24Z"/>
                </g>
              </g>
              <g>
                <rect class="cls-21" x="452.32" y="264.69" width="10.02" height="10.02"/>
                <g>
                  <path class="cls-64" d="M448.61,278.65c.11-.95,1.48-7.04,3.17-8.62,1.68-1.58,2.2,2.31,4.3,2.2s6.34-3.58,6.34-3.58c0,0,1.76,4.42,5.76,5.21,4,.79,9.47,2.89,9.47,4.79,0,.82-29.03,0-29.03,0Z"/>
                  <polygon class="cls-71" points="477.64 281.28 448.61 281.46 448.61 277.81 477.64 278.65 477.64 281.28"/>
                </g>
              </g>
              <path class="cls-55" d="M455.98,141.62l8.52,127.03h-13.94l-14.72-105.34-19.36,103.79h-13.17s10.84-121.61,13.17-127.03c2.32-5.42,39.5,1.55,39.5,1.55Z"/>
              <polygon class="cls-2" points="417.33 140.08 448.59 140.49 445.94 143.37 417.33 140.08"/>
              <path class="cls-22" d="M467.78,135.86c-7.75,6.2-21.75,18.04-21.75,18.04l-5.98-3.63,8.54-9.79h-.36s-3.8.27-3.8.27c-5.55.41-11.12.42-16.67.06l-11.28-.75,1.12-10.96v-.04s-4.41,3.52-11.39-1.12c-6.67-4.45-16.07-18.45-16.86-19.64-.04-.05-.05-.08-.05-.08l.33-.4,3.97-4.84,17.46,9.97s1.29-7.05,2.61-14.52c2.09-11.84,7.27-15.05,10.17-16.3,5.42-2.32,18.97-.17,23.62-.95l9.59,2.47c6.36,3.74,9.02,10.55,9.55,11.87,1.32,3.27,1.02,3.02,3.1,10.07,0,0,.12.45.12.46.91,3.11,1.1,6.24,1.66,9.21,2.32,12.39,4.05,14.38-3.7,20.58Z"/>
              <path class="cls-21" d="M419.77,108.42h0l-.57,6.43-.73,7.31-.86,6.95v-.04s-4.41,3.52-11.39-1.12c-6.67-4.45-16.07-18.45-16.86-19.64l.27-.48,3.97-4.84,17.46,9.97s.38-3.16,1.5-8.26c.71,1.42,2.71,4.13,7.21,3.72Z"/>
              <rect class="cls-60" x="434.71" y="66.39" width="3.87" height="199.39" transform="translate(-9.96 303.16) rotate(-37.89)"/>
              <path class="cls-59" d="M390.49,96.27c-.73-1.43-1.53-2.93-2.91-3.75-2.23-1.32-5.06-.38-7.47.59-.49.2-1.04.46-1.17.97-.58,2.24,4.21,1.7,5.18,1.7.48,0,3.27,4.26,3.89,4.88,1.63,2.1,3.73,4.43,3.96,4.89,1.38-1.45,2.13-2.07,1.23-4-.84-1.78-1.8-3.52-2.7-5.28Z"/>
              <path class="cls-21" d="M468.37,135.39c-7.75,6.2-22.34,18.52-22.34,18.52l-5.98-3.63,8.54-9.79.59-.67c3.14-3.74,5.16-6.62,5.74-7.39,1.32-1.74,6.9-8.68,6.9-8.68l-4.7-12.49s10.17,1.9,12.57-5.66c0,0,.23.72.23.74.91,3.11,1.87,6.15,2.42,9.11,2.32,12.39,3.77,13.73-3.97,19.93Z"/>
              <g>
                <path class="cls-21" d="M453.9,61.17c-.15,1.27-.32,2.38-.52,3.37-.14.69-.29,1.32-.46,1.88-.72,2.32-2.47,5.49-4.84,5.25l-.25,3.59-.29,7.22c-.04.91-.42,1.77-1.08,2.4l-2.36,2.26c-1.49,1.43-3.83,1.47-5.37.1l-6.63-5.91s1.13-.16,1.46-3.47c.39-3.79,1.45-14.22,1.45-14.22,0,0-4.26-5.22.2-6.68,0,0,4.13-2.93,5.27-4.73,1.14-1.8,7.69-4.96,7.69-4.96,0,0,6.96,2.15,6.48,6.88-.28,2.72-.5,5.05-.74,7.02Z"/>
                <path class="cls-58" d="M448.3,75.32c-3.83-1.13-10.19-6.69-11.4-11.48,0,0,3.69,6.12,8.33,7.55,1.36.42,2.84.29,2.84.29l.22,3.64Z"/>
                <path class="cls-12" d="M453.9,61.17c-.15,1.27-.32,2.38-.52,3.37-1.19.17-2.25-.32-2.43-1.16-.2-.9.69-1.86,1.97-2.14.34-.07.67-.09.98-.07Z"/>
                <ellipse class="cls-12" cx="443.37" cy="61.38" rx="1.67" ry="2.38" transform="translate(232.17 456.03) rotate(-69.73)"/>
                <g>
                  <path class="cls-3" d="M461.82,77.43c.07,4.57-7.63,7.55-7.86,7.64,0,0,.02-.05.04-.11.12-.35.38-1.53-.79-3.23-1.43-2.06-5.58-1.01-5.58-1.01l.44-9.05c2.47-.65,3.67-2.76,4.32-4.7.02-.07.04-.14.07-.2.34-1.07.53-2.07.69-2.72.06-.26.13-.62.2-1.06.01-.07.02-.14.03-.21.43-2.81.94-8.19.94-8.19l-4.04-.41c.38-1.06.27-2.7.27-2.7l-1.36,2.59c-1.92.08-8.01-1.63-8.01-1.63,0,0,.13,1.38-2.36,7.12-2.49,5.74,2.24,26.12,2.24,26.12-1.35-.14-6.34-2.01-8.33-3.85-1.18-1.09-2.98-1.57-4.7-2-1.19-.29-2.33-.56-3.17-.98-.07-.03-.14-.08-.21-.13,0,0,0,0,0,0-1.26-.89-1-3.5-.75-4.95,0,0,0-.01,0-.02.11-.58.21-.98.21-.98-.01,0-.03,0-.04.01-1.15.34-1.76,1.81-2.08,3.14-.29,1.22-.34,2.33-.34,2.33,0,0-3.11-5.97,1.24-12.14,1.06-1.51,2.44-3.66,3.79-5.93.4-.67.79-1.36,1.18-2.04,1.5-2.65,2.8-5.25,3.36-6.99,1.19-3.69,5.41-7.62,9.78-7.72,4.37-.1,7.23,2.89,7.23,2.89,0,0,2.13-.8,5.28.03,1.91.5,2.97,1.99,3.53,3.46.4,1.03.56,2.06.6,2.74.1,1.64-1.4,1.7-1.4,1.7,0,0,.14,1.46.42,3.3.26,1.73.65,3.81,1.16,5.31,1.04,3.11,3.89,9.93,3.97,14.57Z"/>
                  <path class="cls-26" d="M457.08,49.81c-.5.03-1.01-.39-1.69-.73-2.26-1.11-5.07-1.18-7.31.01-2.15-1.43-4.82-2.05-7.38-1.71-2.56.34-4.98,1.64-6.68,3.58-1.22,1.4-2.06,3.08-3.17,4.57-.79,1.06-1.78,2.05-2.95,2.61,1.5-2.65,2.8-5.25,3.36-6.99,1.19-3.69,5.41-7.62,9.78-7.72,4.37-.1,7.23,2.89,7.23,2.89,0,0,2.13-.8,5.28.03,1.91.5,2.97,1.99,3.53,3.46Z"/>
                  <path class="cls-26" d="M423.74,67.37c-1.47,2.45-2.77,5.37-1.88,8.09.05.16.11.31.17.47-.29,1.22-.34,2.33-.34,2.33,0,0-3.11-5.97,1.24-12.14,1.06-1.5,2.44-3.66,3.79-5.93.08.19.13.43.13.71,0,2.19-2.03,4.69-3.11,6.48Z"/>
                  <path class="cls-26" d="M427.12,76.9c.14,1.02.45,2.04.95,2.94-1.19-.29-2.33-.56-3.17-.98-.07-.03-.14-.08-.21-.13,0,0,0,0,0,0-.21-.38-.38-.78-.51-1.19-.37-1.22-.41-2.5-.24-3.77,0,0,0-.01,0-.02.04-.32.1-.64.17-.96.17-.81.41-1.62.69-2.39.91-2.54,2.32-4.77,3.46-7.19.8-1.69.85-2.17,2.63-4.82-1.32,4.36-2.69,8.61-3.46,13.13-.3,1.78-.55,3.6-.31,5.39Z"/>
                  <path class="cls-26" d="M453.96,85.08s.02-.05.04-.11c2.99-2.84,4.87-6.83,5.14-10.95.23-3.47-.63-6.87-1.39-10.23-.39-1.71-.76-3.43-.96-5.17-.06-.5-.13-.84-.09-1.07.26,1.73.65,3.8,1.16,5.31,1.04,3.11,3.89,9.93,3.96,14.57.07,4.57-7.62,7.55-7.86,7.64Z"/>
                </g>
                <path class="cls-21" d="M436.72,60.95l.43-4.26s-3.25-1.77-2.93.66c.33,2.43,2.5,3.61,2.5,3.61Z"/>
                <path class="cls-3" d="M442.98,56.66l4.21.43c.25.03.47-.13.49-.36l.05-.48c.02-.23-.18-.44-.44-.45-.93-.04-3.55-.06-4.31.86Z"/>
                <path class="cls-3" d="M451.04,56.62l-.07.68c-.02.17.1.32.26.33l3.22.33s-1.04-1.3-3.07-1.62c-.17-.03-.33.1-.34.27Z"/>
                <path class="cls-3" d="M446.07,58.95c-.05.5-.37.88-.72.85-.35-.04-.59-.47-.53-.97s.37-.88.72-.85c.35.04.59.47.53.97Z"/>
                <path class="cls-3" d="M452.6,59.61c-.05.5-.37.88-.72.85-.35-.04-.59-.47-.53-.97.05-.5.37-.88.72-.85.35.04.59.47.53.97Z"/>
                <path class="cls-58" d="M448.92,62.92s-.06,0-.09-.02c-.07-.02-.11-.09-.09-.16.02-.07.09-.11.16-.09.18.05.37-.09.46-.25.11-.2.14-.45.16-.67l.3-3.22c0-.07.07-.12.14-.12,0,0,0,0,0,0,.07,0,.12.07.11.14l-.3,3.22c-.02.25-.05.53-.19.78-.13.23-.39.42-.66.39Z"/>
                <path class="cls-58" d="M447.92,65.45c-.11-.01-.22-.03-.32-.05-.63-.15-1.22-.53-1.61-1.06-.04-.06-.03-.14.03-.18.06-.04.14-.03.18.03.36.48.89.83,1.46.96.57.13,1.2.05,1.73-.23.06-.03.14,0,.17.05.03.06,0,.14-.05.17-.48.25-1.04.36-1.58.31Z"/>
                <path class="cls-58" d="M447.63,66.38c-.31-.03-.62-.15-.87-.35-.06-.04-.07-.12-.02-.18.04-.06.12-.07.18-.02.38.29.89.38,1.34.23.07-.02.14.01.16.08.02.07-.01.14-.08.16-.23.08-.47.1-.71.08Z"/>
                <g>
                  <path class="cls-27" d="M454.45,64.91c-.11,1.11-.92,2.02-2.02,2.25l-.04-.18c.02-.07.04-.13.07-.2.89-.24,1.53-.99,1.63-1.91.07-.71-.2-1.4-.73-1.87.01-.07.02-.14.03-.21l.11-.13c.68.54,1.04,1.39.95,2.25Z"/>
                  <path class="cls-27" d="M435.32,65.29c-1.4-.14-2.43-1.4-2.29-2.81.14-1.4,1.4-2.43,2.81-2.29s2.43,1.4,2.29,2.81-1.4,2.43-2.81,2.29ZM435.8,60.55c-1.21-.12-2.29.76-2.41,1.97-.12,1.21.76,2.29,1.97,2.41,1.21.12,2.29-.76,2.41-1.97.12-1.21-.76-2.29-1.97-2.41Z"/>
                </g>
              </g>
              <g>
                <polygon class="cls-13" points="455.58 131.58 461.82 123.75 456.01 108 455.58 131.58"/>
                <polygon class="cls-13" points="445.27 139.07 445.09 138.87 449.25 133.77 449.43 133.98 445.27 139.07"/>
                <path class="cls-13" d="M423.62,100.51l-.22-.09c1.31-3.14,2.04-6.46,2.17-9.85h.23c-.14,3.44-.87,6.78-2.19,9.94Z"/>
                <path class="cls-13" d="M455.69,98.7l-.23-.02c.34-3.3,2.3-6.43,5.12-8.17l.12.2c-2.76,1.7-4.68,4.77-5.01,8Z"/>
                <path class="cls-13" d="M438.63,132.61l-.07-.22c4.07-1.3,7.28-3.54,9.92-7.02l.19.14c-2.51,3.31-6.07,5.83-10.03,7.1Z"/>
                <path class="cls-13" d="M444.18,98.29c-5.12-2.36-8.97-7.25-10.06-12.78l.23-.04c1.07,5.46,4.87,10.29,9.92,12.62l-.1.21Z"/>
              </g>
              <path class="cls-60" d="M496.48,245.7l1.17,4.19s4.59-2.51,5.36-4.19l-3.73-2.1-2.8,2.1Z"/>
              <g>
                <path class="cls-59" d="M377.85,99.17c.01.62.96.84,1.37,1.27.43.45.5,1.11.69,1.7.19.59.69,1.2,1.3,1.1-.35.47.16,1.49.74,1.61.2,1.09,1.22,1.21,2.33,1.17,1.11-.04,1.83-.39,2.8-.93.58-.32,1.33-.97,1.4-1.63.04-.42-.03-.5-.41-.69-.16-.07-1.21-.4-1.35-.26.48-.34.66-1.03.41-1.56-.25-.53-.9-.83-1.47-.68.25-.78.1-1.3-.24-1.7-.37-.44-.94-.43-1.42-.23.29-.27.22-.76-.08-1-.31-.25-.74-.26-1.14-.25-1.32.05-2.64.33-3.84.89-.37.17-.75.39-.95.75-.1.18-.14.33-.14.46Z"/>
                <path class="cls-58" d="M379.66,100.82s-.06-.02-.08-.05c-.02-.04,0-.1.04-.12l4.2-2.2s.1,0,.12.04c.02.04,0,.1-.04.12l-4.2,2.2s-.03.01-.04.01Z"/>
                <path class="cls-58" d="M382.07,105.05s-.07-.02-.08-.06c-.02-.05,0-.1.05-.11.79-.28,1.57-.73,2.32-1.16.75-.43,1.54-.88,2.34-1.17.05-.02.1,0,.11.05.02.05,0,.1-.05.11-.79.28-1.57.73-2.32,1.16-.76.43-1.54.88-2.34,1.17,0,0-.02,0-.03,0Z"/>
                <path class="cls-58" d="M381.27,102.99s-.06-.02-.08-.05c-.02-.04,0-.1.03-.12.68-.38,1.37-.79,2.03-1.18.66-.4,1.34-.81,2.03-1.19.04-.02.1,0,.12.03.02.04,0,.1-.03.12-.68.38-1.37.79-2.03,1.18-.66.4-1.34.81-2.03,1.19-.01,0-.03.01-.04.01Z"/>
              </g>
              <g>
                <path class="cls-59" d="M446.03,153.91c-1.53,2.48-3.43,5.1-5.43,7.22-2,2.12-4.51,3.86-7.37,4.43-.55.11-1.13.17-1.64-.05-.51-.23-.89-.83-.68-1.35-.82-.1-1.55-1.12-1.44-1.94,0-.02,0-.03,0-.05,0,0-.02,0-.03,0-1.3.13-2.21-1.09-1.65-2.23.02-.03.03-.07.05-.1-.02,0-.04,0-.06-.02-.87-.21-1.35-1.39-1.17-2.3.1-.51.71-.55,1.23-.48,1.02.13,1.42.21,2.1-.22.83-.51.91-1.39.49-2.27-.65-.43-1.28-1.18-1.92-2.13,3.32.12,6.69-.38,9.87-1.28,1.34-.37,1.44-.86,1.65-.86.36.2,5.98,3.57,5.98,3.63Z"/>
                <g>
                  <path class="cls-54" d="M430.89,159.59s-.02.06-.05.06l-3.03.28s.03-.07.05-.1c-.02,0-.04,0-.06-.02l3.03-.28s.06.02.06.05Z"/>
                  <path class="cls-54" d="M429.51,162.23s-.05-.02-.06-.05c0-.03.02-.06.05-.07.28-.04.56-.07.83-.1.52-.05,1.05-.11,1.58-.25.03,0,.06,0,.07.04,0,.03,0,.06-.04.07-.54.15-1.08.21-1.6.26-.27.03-.56.06-.83.1,0,0,0,0,0,0Z"/>
                  <path class="cls-54" d="M431,164.2s-.05-.02-.06-.05c0-.03.02-.06.05-.07.42-.07.8-.15,1.16-.23.37-.08.74-.16,1.17-.23.03,0,.06.02.07.05,0,.03-.02.06-.05.07-.42.07-.8.15-1.16.23-.37.08-.74.16-1.17.23,0,0,0,0,0,0Z"/>
                </g>
                <polygon class="cls-59" points="439.97 150.28 444.89 155.68 446.03 154.01 439.97 150.28"/>
              </g>
            </g>
          </g>
          <path class="cls-64" d="M497.64,249.89v31.57s32.6-6.32,32.12-22.51l-26.76-13.26-5.36,4.19Z"/>
          <rect class="cls-27" x="445.51" y="93.24" width="9.83" height="2.72" transform="translate(32.4 -97.97) rotate(12.87)"/>
        </g>
        <g id="Person_2" data-name="Person 2">
          <g>
            <g>
              <path class="cls-21" d="M225.81,270.78c1.49-.26,4.07-.92,5.59-.97,1.53-.05,3.59.65,5.11.63-.05-.57.32-2.44.33-3.03,0-.2.03-.43.07-.68.2-1.34.76-3.27,1.04-4.56.17-.76.24-1.3.09-1.36-.84-.29-7.28-.61-8.16-.68-1.95-.14-4,.68-3.88,6,0,.38-.38,3.16-.19,4.65Z"/>
              <path class="cls-39" d="M228.61,268.22c.7-.32,1.21-.54,2-.66,1.47-.23,3.39.75,4.54,1.75.49.43,1.29.93,1.6,1.47l2.84,5.13c.3.54.6,1.19.26,1.68-.34.49-1.13.54-1.81.54-5.39-.01-9.78.17-15.17.16-.74-1.58-.58-3.39.52-4.69,1.08-1.28,2.1-2.61,3.25-3.84.87-.94.84-.96,1.97-1.56Z"/>
              <path class="cls-71" d="M239.91,280.11c-.08.47-.51.81-1.03.82-1.92.04-6.22.13-8.05.15-1.65.02-5.25-.07-6.98-.22-.56-.05-.97-.69-1.02-1.19l-.33-2.16c.01.13,5.85.05,6.49.01,2.6-.13,3.63-.51,6.71-.36.98.05,4.22-.22,4.27.2.04.38.08,1.99-.05,2.75Z"/>
              <path class="cls-20" d="M226.37,262.95l10.54,3.77c.2-1.34.76-3.27,1.04-4.56l.09-.68-11.66,1.47Z"/>
            </g>
            <g>
              <path class="cls-21" d="M271.14,262.83l.28,6.65s-.68,1.44,1.07,3.55c1.76,2.1,10.66-2.51,10.66-2.51,0,0-.76-2.77-1.53-5.07-.44-1.31-.88-2.47-1.2-2.88l-8.47.18-.8.02v.06Z"/>
              <g>
                <path class="cls-39" d="M266.63,277.97c.1-1.09,1.53-8.11,3.42-9.96,1.89-1.85,2.58,2.59,4.99,2.42,2.41-.17,7.18-4.26,7.18-4.26,0,0,2.12,5.03,6.73,5.84,4.6.81,10.93,3.09,10.97,5.26.02.94-33.29.7-33.29.7Z"/>
                <polygon class="cls-71" points="300.01 281.21 266.7 281.21 266.61 277.01 299.93 277.28 300.01 281.21"/>
              </g>
              <path class="cls-20" d="M271.14,262.83l10.48,2.62c-.44-1.31-.88-2.47-1.2-2.88l-8.47.18-.8.08Z"/>
            </g>
            <g>
              <path class="cls-55" d="M225.88,263.5c6.76,2.8,14.86,0,14.86,0l24.44-62.68,1.03,24.5,1.55,36.82s10.26,3.17,19.13-.05c0,0,3.36-67.17,3.92-84.4.43-13.23,0-24.1-1.52-32.32-.29-1.61-.64-3.13-1.03-4.53-.2-.76-.43-1.49-.66-2.18l-42.51,2.18s-18.93,114.12-19.22,122.65Z"/>
              <polygon points="265.18 200.83 266.21 225.33 273.16 160.84 265.18 200.83"/>
              <path d="M228.12,258.84l-.47-.18c7.69-45.14,11.74-68.78,16.79-103.01l.02-.25.26.05c4.27.83,8.61-2.1,9.28-6.26l.49.11c-.7,4.33-5.14,7.39-9.58,6.68-4.17,34.58-10.25,65.65-16.79,102.86Z"/>
              <path d="M276.95,259.19c-2.87,0-5.78-.66-8.43-1.97l.19-.43c4.6,2.27,10.03,2.54,14.54.71l.21.45c-2.04.83-4.26,1.24-6.52,1.24Z"/>
              <path d="M235.34,260.8c-3.48,0-4.96-.47-8.23-1.84l.16-.45c5.4,2.25,9.42,2.29,14.23.38l.17.47c-2.22.66-3.95,1.44-6.33,1.44Z"/>
              <path class="cls-20" d="M289.37,146.66l-31.74-2.03,30.64-3.78c.39,1.41.81,4.2,1.1,5.81Z"/>
            </g>
          </g>
          <g id="woman_left" data-name="woman left">
            <g>
              <g>
                <circle class="cls-42" cx="263.83" cy="36.28" r="5.55"/>
                <path class="cls-17" d="M263.83,30.73c.27,0,.53.03.79.06-2.37.63-4.12,2.79-4.12,5.36,0,2.8,2.07,5.11,4.76,5.49-.46.12-.94.19-1.43.19-3.07,0-5.55-2.49-5.55-5.55s2.49-5.55,5.55-5.55Z"/>
              </g>
              <path class="cls-42" d="M286.09,85.04s4.53-6.89,2.06-13.78c-2.47-6.89-6.89-5.25-6.69-9.87.21-4.63,4.63-10.39,2.47-16.25-2.16-5.86-17.09-5.54-18.1-5.35-1.65.31-4.22,3.19-5.14,6.58-2.03,7.44-11.22,13.65-18.3,15.56-1.7.46-3.46.76-5.05,1.52-1.59.76-3.02,2.1-3.34,3.84-.64,3.45,3.23,6.83,1.96,10.1-.62,1.6-2.3,2.52-3.94,3.04-1.63.52-3.38.8-4.83,1.73-.2.13-.39.27-.56.43-2.3,2.09-1.52,5.89,1.37,7.02,1.46.57,2.92,1.16,4.38,1.73,1.48.58,5.55,3.09,7.14,2.78,0,0,46.58-9.07,46.58-9.07Z"/>
              <path class="cls-17" d="M282.09,67.6c.88.88,1.88,1.59,2.68,2.6,1.09,1.36,1.82,3.02,2.04,4.75.27,2.23-.34,5.98-2.38,7.37-1.68,1.14-5.18.47-7.03.2-2.16-.32-4.43-.69-6.14-2.05-1.61-1.28-2.5-3.32-2.71-5.36-.37-3.47,1.09-6.98,3.41-9.59,1.07-1.2,5.82-5.79,7.65-5.2,1.3.42.73,1.56.55,2.45-.27,1.3.23,2.7.98,3.76.28.4.6.75.93,1.08Z"/>
              <path class="cls-17" d="M255.13,65.71s-.03.01-.05.02c-1.12.4-2.7,0-3.88.02-1.6.03-3.2.2-4.73.66-2.97.9-5.73,3.16-6.31,6.21-.26,1.37-.07,2.79-.08,4.18s-.28,2.89-1.26,3.89c-1.27,1.3-3.37,1.38-4.81,2.49-1.05.8-1.67,2.14-1.59,3.47.14,2.53,2.46,5.53,5.1,5.58,1.87.03,3.61-.88,5.23-1.81,6.27-3.62,12.12-7.97,17.39-12.94,3.21-3.03,6.31-6.49,7.34-10.78.72-3-.14-10.51-4.67-10.09-2.17.21-2.58,2.38-3.39,4-.84,1.68-2.41,4.38-4.29,5.1Z"/>
              <path class="cls-17" d="M282.53,53.96c.02.29.02.59,0,.88,1.07-1.75,1.39-3.94.87-5.93-.35-1.33-1.56-3.92-3.1-4.2-.12.61-.29,1.15-.53,1.71,1.97,1.87,3.16,3.75,2.77,7.54Z"/>
            </g>
            <path class="cls-21" d="M299.7,119.33l-18.37,15.94-1.03-14.86-.62-8.97-.51-7.39,8.28-2.94s-.28,1.56.1,6.58c.16,2.11.44,4.82.9,8.28,0,.02,0,.05.01.08,5.66-3.28,8.49-4.87,12.65-8.62,1.16-1.05-.62,10.57-1.41,11.92Z"/>
            <path class="cls-58" d="M288.45,115.95c-.33.48-.67.53-1.8,1.21-2.36,1.41-3.7,4.13-4.98,6.56-.44-1.04-.93-2.17-1.37-3.32-.47-1.22-.86-2.47-1.05-3.65-.28-1.77-.2-3.65.43-5.31.19-.5.42-.98.72-1.43,1.26-1.96,3.68-3.27,5.96-2.79.42.09.83.23,1.19.46.16,2.11.44,4.82.9,8.28Z"/>
            <g>
              <path class="cls-22" d="M292.98,107.69s0-24.25-6.26-28.16c-6.26-3.91-12.52-6.26-12.78-9.13-.26-2.87-10.69-2.87-10.69-2.87,0,0-2.09,4.43-6.52,5.74-4.43,1.3-11.74,4.17-15.65,16.17-3.91,12-8.35,22.17-8.35,22.17h17.21l-1.96,13.82h1.48c-.22.39-.46.85-.72,1.4-.89,1.85-3.06,7.54-4.71,12.64-.44,1.37.42,2.82,1.84,3.08l3.31.61c2.56.47,5.15.76,7.75.86l10.3.4c.92.04,1.84.03,2.76-.03l15.43-.96-3.39-31.83,10.95-3.91Z"/>
              <path class="cls-13" d="M284.3,101.13c0,.21-.06,4.52-.08,4.73l-.36-.03c0-.1.06-4.31.07-4.42,0-.21.02-.42.02-.64,0-1.3-.12-2.78-.26-4.34-.13-1.47-.26-2.99-.27-4.39h.37c.01,1.38.14,2.9.27,4.36.13,1.46.25,2.85.26,4.1,0,.22,0,.43,0,.64Z"/>
              <polygon class="cls-13" points="251.85 98.63 249.09 117.67 253.03 116.95 251.85 98.63"/>
              <path class="cls-13" d="M244.64,138.11l15.43-14.89-11.32,3.61c-1.05,2.17-2.44,5.67-4.11,11.28Z"/>
              <path class="cls-13" d="M282.03,115.85v4.02l-.07.45s-1.55-1.73-3.96-2.24c-3.27-.69-8.94,0-8.94,0l5.67-2.24h7.29Z"/>
            </g>
            <g>
              <path class="cls-21" d="M282.54,53.96c-.15,1.37-.49,2.99-1.08,4.96-2.39,7.92-6.72,8.09-6.72,8.09l-.54,3.15-.13.77c-7.34.55-11.6-2.07-11.6-2.07,0,0,1.18-1.52,1.46-3.58.33-2.42.41-5.92.41-5.92-3.34-.72-3.64-4.62-2.1-6.16,1.54-1.54,4-.06,4-.06.62-2.78,5.35-3.71,8.65-3.81,3.29-.1,4.83-2.98,4.83-2.98l.06.06c1.97,1.88,3.16,3.75,2.77,7.54Z"/>
              <path class="cls-42" d="M277.48,54.26c.11-.11.09-.42.12-.59.05-.2-.08-.4-.28-.44,0,0-1.54-.33-2.45-.33-.21,0-.45,0-1.24.11-.2.03-.65.18-.45.23l3.96,1.02s.3,0,.34,0Z"/>
              <path class="cls-11" d="M269.64,55.32c-.55.76-.19,1.96.82,2.69,1,.72,2.26.7,2.81-.06.55-.76.19-1.96-.82-2.69-1-.72-2.26-.7-2.81.06Z"/>
              <path class="cls-58" d="M277.23,59.9c.17,0,.36,0,.55,0,.15,0,.3,0,.44,0,.34,0,.62-.27.62-.62.02-1.12.15-1.96.38-3.1.02-.1-.05-.2-.15-.22-.1-.02-.2.05-.22.15-.23,1.17-.36,2.02-.38,3.17,0,.14-.12.25-.26.26-.14,0-.29,0-.44,0-.31,0-.64.02-.86,0-.1,0-.19.07-.2.17,0,.1.07.19.17.2.1,0,.22,0,.35,0Z"/>
              <path class="cls-42" d="M282.35,55.5c.16,0,.07-.06.11-.23.05-.2-.14-.4-.34-.45,0,0-1.02-.57-1.71-.71-.2-.04-.4.06-.46.26s-.07.51.13.56l1.92.45s.31.11.34.11Z"/>
              <path class="cls-46" d="M277.03,62.38c.13,0,.26,0,.39-.03.19-.03.31-.2.29-.38-.03-.19-.2-.31-.38-.29-.94.13-2.24-.41-2.53-1.3-.06-.18-.25-.28-.43-.22-.18.06-.28.25-.22.43.36,1.13,1.72,1.79,2.88,1.79Z"/>
              <path class="cls-42" d="M274.51,55.57c-.16.56-.05,1.09.26,1.18.31.09.69-.29.86-.85.16-.56.05-1.09-.26-1.18-.31-.09-.69.29-.86.85Z"/>
              <path class="cls-42" d="M280.16,57.15c-.16.56-.05,1.09.26,1.18.31.09.69-.29.86-.85.16-.56.05-1.09-.26-1.18-.31-.09-.69.29-.86.85Z"/>
              <path class="cls-10" d="M262.6,55.37s.03,0,.04,0c.15-.02.26-.17.23-.32-.03-.21.03-.44.16-.61.14-.17.35-.28.56-.3.26-.02.51.1.67.19.23.14.43.34.63.52.11.11.29.1.39,0,.11-.11.1-.29,0-.39-.21-.2-.44-.42-.72-.6-.33-.2-.67-.3-1-.28-.37.03-.73.21-.96.5-.23.29-.33.68-.28,1.05.02.14.14.23.27.23Z"/>
              <path class="cls-58" d="M274.74,67.01l-.54,3.15c-.74-.34-4.39-2.21-5.08-6.41,0,0,1.84,2.63,5.62,3.26Z"/>
              <path class="cls-27" d="M266.09,64.18l-5.2-.28c-.06,0-.12-.04-.15-.09-.03-.06-.03-.12,0-.18l2.9-5.36c.03-.06.1-.1.17-.1.07,0,.13.05.16.12l2.3,5.64c.02.06.02.13-.02.18-.03.04-.07.07-.12.08-.01,0-.02,0-.04,0ZM261.21,63.55l4.61.25-2.04-5.01-2.57,4.76Z"/>
            </g>
            <path class="cls-60" d="M286.09,106.3s6.29,1.52,4.98,7.86c-1.3,6.34-4.39,7.15-3.86,13.1.53,5.95,5.64,8.97,4.06,13.32-1.58,4.35-11.17,4.26-15.34,8.79,0,0-4-8.26-1.95-12.25,2.04-4,6.36-9.43,4.21-12.61-2.15-3.18,2.62-18.17,2.62-18.17h0c1.08-.56,2.33-.72,3.52-.44l1.75.4Z"/>
            <path class="cls-21" d="M249.09,111.6l-2.27,5.48,22.17-7.3,1.56,7.3s-15.76,10.15-26.03,12.9c-10.33,2.77-11.79-.35-12.99-4.55-.79-2.75.69-8.59,2.39-13.82h15.17Z"/>
            <g>
              <path class="cls-59" d="M280.72,103.94c.68-.29,1.35.45,1,1.1-.59,1.07-1.46,2-2.38,2.79-1.23,1.05-5.35,2.3-4.38-.21.55-1.42,3.6-2.76,5.77-3.68Z"/>
              <path class="cls-59" d="M289.07,108.51c-1.13-.76-2.45-1.4-3.84-1.8-.06-.04-.13-.07-.2-.11-1.02-.52-2.44-.53-3.9-.32h.02c-.11.02-.21.03-.32.05-1.34.19-2.69.61-3.99,1.08-.37.14-1.11.29-1.56.55-.17.02-.33.04-.5.06,0,0-4.22,1.11-5.79,1.76-.43.18-2.37.78-2.37.78l-6.89,2.04c-.92,2.8,1.39,7.92,3.13,9.46,0,0,7.67-4.37,8.38-4.56,1.46-.39,2.75-.88,4.03-1.02,2-.21,1.95.51,3.72.43.13,0,.25-.01.38-.02h.2c1.76-.12,3.36-.47,3.66-.52.46-.07,3.5,1.24,4.04.62.54-.63-.36-1.41-.36-1.41,1.1-1.33.4-2.33.4-2.33,1.24-1.46.04-3.11.04-3.11,0,0,0-.03.02-.09,1.5.19,1.24.29,1.91.7.47.56,1.33.3,1.32-.04-.01-.92-.78-1.68-1.54-2.2Z"/>
              <g>
                <path class="cls-54" d="M283.49,108.68s-.04-.05-.03-.08c.01-.03.05-.05.08-.03.43.19.92.33,1.43.47.86.25,1.75.5,2.37,1.01.03.02.03.06,0,.09-.02.03-.06.03-.09,0-.6-.49-1.48-.74-2.33-.99-.52-.15-1.01-.29-1.45-.48,0,0,0,0,0,0Z"/>
                <path class="cls-54" d="M283.58,111.5s-.04-.04-.03-.07c0-.03.04-.05.08-.04,1.3.36,2.78.78,3.79,1.8.02.02.02.06,0,.09-.02.02-.06.02-.09,0-.99-1-2.45-1.41-3.74-1.77,0,0,0,0-.01,0Z"/>
                <path class="cls-54" d="M282.53,113.72s-.04-.05-.03-.08c.01-.03.05-.04.08-.03.51.24,1.08.44,1.62.63.96.34,1.96.69,2.74,1.31.03.02.03.06,0,.09-.02.03-.06.03-.09,0-.76-.6-1.75-.95-2.7-1.29-.55-.19-1.12-.39-1.64-.64,0,0,0,0,0,0Z"/>
              </g>
              <path class="cls-58" d="M249.09,111.6l-16.05,2.83c.26-.9.88-2.83.88-2.83h15.17Z"/>
            </g>
            <path class="cls-59" d="M317.72,99.27s1.57.49.44,1.89c0,0,1.22,1.21-.33,2.36-1.55,1.14-6.5,3.19-6.5,3.19,0,0-7.58,10.05-11.81,13.17h0c-1.49-2.79-2.4-5.85-2.67-9.01l-.05-.54,8.04-6.96s.98-5.32,2.95-6.48c1.96-1.16,3.45-1.72,3.45-1.72,0,0,2.27-1.49,3.26-1.49s3.07.31,3.14,1.71c.05,1.11-.51,1.33-.51,1.33,0,0,1.93.58.59,2.55Z"/>
            <path class="cls-64" d="M308.89,113.98h0c-.57-.18-.88-.79-.7-1.36l11.08-34.74c.18-.57.79-.88,1.36-.7h0c.57.18.88.79.7,1.36l-11.08,34.74c-.18.57-.79.88-1.36.7Z"/>
            <path class="cls-60" d="M316.57,86.33s-3.26.08-3.89-6.21c-.76-7.69,4.15-10.07,3.97-14.33-.37-8.59,3.46-9,3.51-13.44.07-5.68.97-7.96,3.81-11.7,2.1-2.77,5.26-6.16,10.18-3.74,4.93,2.43,4.43,4.02,4.29,8.17-.14,4.15-2.01,4.78-2.08,8.66-.05,2.84-.14,6.99-2.88,10.66-.6.8.18,5.92-2.8,9.38-3.06,3.55.83,7.85-5.05,13.22-2.48,2.26-7.53-.82-9.07-.67Z"/>
            <path class="cls-59" d="M313.52,105.77s-.98-.22-1.33-.65c-.33-.4.16-.74.16-.74-1.68-1.02-.44-1.76-.15-2.12l-.81-.68s1.64-5.19,2.06-5.31c.42-.12,2.71.35,2.85-1.98l.19.68s-.26,1.27-.31,1.5c-.05.23-.66,5.28-.75,5.47-.09.19-1.91,3.83-1.91,3.83Z"/>
            <path class="cls-54" d="M307.5,102.91s-.03-.02-.04-.03c-.03-.04-.02-.09.02-.12,1.06-.71,1.89-1.7,2.42-2.86l.02-.05h.06c1.56.1,3.15-.15,4.6-.74.36-.15.79-.4.79-.78,0-.39-.45-.64-.83-.78-1.11-.41-2.28-.66-3.46-.75-.05,0-.08-.04-.08-.09,0-.05.04-.08.09-.08,1.2.09,2.38.35,3.51.76.62.23.95.55.95.94,0,.38-.31.71-.9.94-1.45.59-3.05.85-4.61.76-.54,1.17-1.39,2.16-2.46,2.88-.03.02-.06.02-.08,0Z"/>
            <path class="cls-54" d="M313.19,105.64c-.27,0-.6-.04-.85-.21-.19-.13-.32-.31-.36-.55-.06-.28.17-.81,2.81-2.16,1.42-.73,2.88-1.35,2.89-1.36l.09.22c-2.38,1.02-5.68,2.7-5.57,3.26.03.17.12.3.26.4.42.28,1.17.13,1.18.13l.05.23s-.23.05-.5.05Z"/>
            <path class="cls-54" d="M312.32,104.49s-.79-.26-.93-1.06c-.15-.83,1.44-1.8,2.06-2.11.62-.3,4.19-2.13,4.22-2.15l.11.21s-3.61,1.85-4.23,2.15c-.84.41-2.04,1.28-1.93,1.86.12.66.77.88.77.88l-.07.22Z"/>
            <path class="cls-54" d="M312.15,102.37s-.97-.51-1.11-1.26c-.07-.36.06-.71.36-1.05l.02-.03h.03c1.16-.32,2.93-.79,3.03-.83.14-.05.73-.44.78-.56.02-.08,0-.4-.03-.61l-.21-.3,2.05-1.12.11.21-1.82.99.09.13v.03c.02.09.08.56.03.73-.06.24-.85.69-.92.71-.12.05-2.59.7-3.02.82-.24.27-.33.55-.28.82.12.64.97,1.09.98,1.09l-.11.21Z"/>
            <rect class="cls-54" x="312.55" y="96.43" width=".99" height=".24" transform="translate(.71 195.38) rotate(-34.7)"/>
            <rect class="cls-27" x="271.8" y="84.85" width="9.83" height="2.72"/>
          </g>
          <path class="cls-13" d="M263.62,102.99c3.61-2.75,8.58-3.2,12.64-.91l-.11.51c-4.14-2.34-9.67-1.7-13.17,1.52l-.12-.49c.24-.22.5-.44.76-.64Z"/>
        </g>
        <g id="Person_1" data-name="Person 1">
          <g id="Person_1-2" data-name="Person 1">
            <g>
              <path class="cls-1" d="M103.11,237.65c.21,1.2-2.1,27.04-.42,32.31,1.68,5.28-10.39,4.42-9.83,2.5.56-1.92-5.07-27.47-4.75-32.5l15-2.31Z"/>
              <path class="cls-61" d="M102.34,265.34c-3.85.77-5.58.68-9.76,3.11-.24-1.57-1.19-4.18-1-5.8.09-.01,1.77.44,1.87.44,1.89-.07,3.84.17,5.73.26.98.04,1.96.09,2.93.13.57.02-.34,2.07.24,1.87Z"/>
              <path class="cls-64" d="M88.86,278.09c.1-.93,1.45-6.91,3.11-8.46,1.65-1.55,2.16,2.26,4.22,2.16,2.06-.1,6.22-3.52,6.22-3.52,0,0,1.73,4.34,5.65,5.12,3.92.77,9.3,2.84,9.29,4.7,0,.81-28.48,0-28.48,0Z"/>
              <polygon class="cls-71" points="117.35 280.67 88.86 280.86 88.86 277.27 117.35 278.09 117.35 280.67"/>
            </g>
            <g>
              <path class="cls-1" d="M82.34,273.41s-9.86,6.4-10-4.2v-.03c-.01-1.1-.11-3.13-.25-5.76-.5-8.97-1.6-24.89-2.15-34.39l11.39,17.37c-.48,3.01-.13,10.92.29,17.41.05.75.1,1.48.15,2.19.29,4.23.57,7.42.57,7.42Z"/>
              <path class="cls-61" d="M72.34,269.21v-.03c-.01-1.1-.11-3.13-.25-5.76.15-.04.32-.06.5-.07,1.88-.07,3.85.17,5.74.26.98.04,1.96.09,2.94.13.07,0,.2.02.36.06.05.75.1,1.48.15,2.19-3.18.89-6.56,1.98-9.43,3.22Z"/>
              <g>
                <path class="cls-64" d="M76.68,268.84c.65-.32,1.54-.61,2.26-.72,1.65-.27,3.03,1.18,4.07,2.49.81,2.02,1.63,4.04,2.44,6.07.23.56.44,1.23.1,1.73-.34.5-1.05.55-1.66.54-4.82-.06-9.64-.12-14.45-.17-.53-1.63.62-3.28,1.71-4.61,1.07-1.3,1.13-1.93,2.25-3.18.85-.96,2.22-1.53,3.28-2.14Z"/>
                <path class="cls-71" d="M85.84,280.56l-16.41.11s-.14-2.61-.14-2.62c0,.13,6.87-1.11,7.45-1.13,2.33-.11,4.68.08,6.96.55.86.18,1.78.17,2.12.98.22.52,0,1.54.01,2.12Z"/>
              </g>
            </g>
            <g>
              <path class="cls-55" d="M73.49,130.73s-4.23,22.31-4.23,27.31,1.92,38.84,2.31,45.38c.38,6.54-5,22.69-4.62,29.23.38,6.54,3.46,31.54,3.46,31.54h13.85s.38-28.08,1.15-34.23c.77-6.15,4.62-9.61,4.62-9.61,0,0-1.92,11.92-1.92,21.92s1.92,21.92,1.92,21.92h12.31s3.46-40,4.23-46.92c.77-6.92,6.54-30.38,6.54-42.69s-1.15-28.46-3.08-40.77c-1.92-12.31-36.54-3.08-36.54-3.08Z"/>
              <g>
                <path d="M90.12,220.37l-.18-.07c.03-.07,2.69-7.41,3.07-17.66.37-9.92,1.91-34.59,3.08-38.1l2.31-6.92.18.06-2.31,6.92c-1.16,3.49-2.7,28.14-3.07,38.05-.38,10.28-3.06,17.65-3.08,17.72Z"/>
                <rect x="80.44" y="137.53" width="29.15" height=".19" transform="translate(-6.1 4.42) rotate(-2.58)"/>
                <path d="M98.92,149.45l-.1-.17c.89-.52,1.59-1.46,1.97-2.64.35-1.08.42-2.26.45-3.37.08-3.96-.36-7.91-1.33-11.75l.19-.05c.97,3.86,1.41,7.82,1.33,11.8-.02,1.13-.1,2.32-.46,3.43-.4,1.23-1.13,2.21-2.06,2.75Z"/>
                <path d="M97.34,136.4c-.8,0-1.44-.65-1.44-1.44s.65-1.44,1.44-1.44,1.44.65,1.44,1.44-.65,1.44-1.44,1.44ZM97.34,133.71c-.69,0-1.25.56-1.25,1.25s.56,1.25,1.25,1.25,1.25-.56,1.25-1.25-.56-1.25-1.25-1.25Z"/>
              </g>
              <rect class="cls-36" x="68.88" y="260.72" width="16.15" height="4.62"/>
              <rect class="cls-36" x="88.11" y="260.72" width="16.15" height="4.62"/>
            </g>
            <g>
              <path class="cls-22" d="M142.34,121.5s-14.23-10.77-15-12.31-18.19-27.73-20.88-30.81c-2.69-3.08-9.7-4-16.24-4s-9.09-.86-15.2,2.15c-3.45,1.7-12.72,11.47-15.64,40.17-1.39,13.66,12.79,13.69,12.79,13.69,0,0,1.16-13.07,6.35-11.73l-7.46-17.17s-1.41,6.16-.26,12.32c1.15,6.15.38,18.85.38,18.85,0,0,29.31-3.66,37.83-1.35,0,0-.2-9.58-.33-11.54-.58-8.65.96-10.19.96-13.65,0,0,3.65,10.19,4.81,11.73,1.15,1.54,13.65,1.7,13.65,1.7,0,0,11.54,4.26,14.23,1.95Z"/>
              <g>
                <path class="cls-13" d="M110.32,105.92h-.19c0-5.75,0-9.21-1.89-14.59l.18-.06c1.92,5.46,1.9,8.95,1.9,14.66Z"/>
                <path class="cls-68" d="M122.77,109.65l-.11-.15c.9-.66,2.14-.81,3.17-.39l-.07.18c-.97-.4-2.14-.26-2.98.36Z"/>
                <path class="cls-13" d="M70.98,116.56c-2.71-.88-6.29-.46-8.72,1l-.1-.16c2.63-1.59,5.95-1.97,8.87-1.02l-.06.18Z"/>
                <path class="cls-13" d="M69.74,114.51c-1.28-1.09-3.22-1.3-4.71-.51l-.09-.17c1.45-.77,3.69-.52,4.92.53l-.12.15Z"/>
                <rect class="cls-68" x="121.96" y="111.12" width="5.12" height=".19" transform="translate(-41.15 90.53) rotate(-34.65)"/>
                <path class="cls-13" d="M85.98,120.07c-6.91-1.23-9.46-.64-13.03-3.72l.38-.15c1.76,1.99,5.51,2.68,12.68,3.68l-.04.19Z"/>
                <rect class="cls-68" x="82.62" y="118.36" width=".19" height="4.39" transform="translate(-55.28 168.83) rotate(-74.83)"/>
                <path class="cls-13" d="M90.15,108.63c-4.46.83-9.1-.99-11.7-4.87l.33-.41c2.65,3.95,7.88,5.87,12.45,4.56l-.12.49c-.32.09-.64.17-.96.23Z"/>
                <path class="cls-68" d="M103.73,109.28l-.09-.17c2.18-1.1,4.07-2.87,5.31-4.98l.17.1c-1.26,2.14-3.18,3.94-5.39,5.06Z"/>
                <path class="cls-13" d="M73.1,116.41s-.02,0-.03,0c-.13-.02-.22-.14-.2-.26.02-.14,1.92-14.26,3.99-21.17.04-.12.17-.19.29-.16.12.04.2.17.16.29-2.06,6.87-3.96,20.96-3.98,21.1-.02.12-.12.2-.23.2Z"/>
              </g>
            </g>
            <path class="cls-43" d="M104.29,124l6.9,1.46s3.24,25.82,3.14,28.12-.68,19.86-12.41,22.16c-11.73,2.3-22.09.21-23.5-14.22-1.41-14.43,4.12-24.26,0-26.14-4.12-1.88-5.48-1.68-5.48-1.68,0,0-2.27.08-1.92-2.24s15.09-5.49,15.09-5.49l18.19-1.99Z"/>
            <path class="cls-47" d="M86.69,129.61s-2.8,16.79-2.27,23.12c.45,5.4,2.59,10.24,6.25,11.86,3.01,1.33,10.06,2.11,14.51-2.18,4.03-3.89,4.53-11.15,3.83-19.17-.81-9.32-4.04-16.08-4.04-16.08l-18.29,2.45Z"/>
            <g>
              <path class="cls-65" d="M109.16,51.17c-.2,1.72-2.31,6.7-3.26,8.06-1.26,1.8-2.18-2.77-3.67-1.16-2.12,2.3-4.69,4.27-7.68,5.15-2.99.88-2.84,2.33-5.3.41-2.05-1.6-4.42-5.63-4.72-8.83-.06-.64-.04-1.25.08-1.79-.08-.01-.16-.01-.25,0-3.08.08-3.75,8.57-5.05,12.5-.48,1.45-.99,2.95-1.99,4.1-1,1.14-2.65,1.86-4.07,1.31.48-.87.76-1.81.91-2.79.21-1.34.19-2.75.16-4.12-.15-5.68-.41-11.49,1.19-16.94,1.6-5.45,5.51-10.59,10.98-11.92,1.36-.33,2.84-.41,4.1.2,0,0,.02,0,.03.01,1.22.6,2.15,1.97,1.92,3.32,0,.04-.01.09-.03.13,2.97-.71,6.19-.81,9.06.13.99.32,1.93.77,2.81,1.35,2.71,1.8,5.15,7.57,4.76,10.9Z"/>
              <path class="cls-1" d="M108.63,52.73c-.21,3.2-1.3,18.72-8.21,18.35-.29-.02-1.12-.21-1.12-.21,0,0,0,.03-.01.07-.05.34-.29,1.85-.59,3.55-.37,2.12-.83,4.53-1.13,5.29-.87,2.16-.87,5.09-3.43,5.09-5.21,0-8.81-7.85-9.16-10.62-.05-.45.38-1.26.51-1.68.4-1.31.8-2.63,1.21-3.94.82-2.62,1.71-4.89,2.31-7.56-.95-.32-1.55-1.35-2-2.25-.45-.9-.47-2.03.04-2.89.51-.87,1.56-1.41,2.55-1.25.6.1,1.11.44,1.54.85.31.3.56.92.95.96.4.04,1.26-.59,1.6-.77,1.84-.99,3.67-2.27,4.85-4.03,2.08-3.12,5.55-4.16,7.63-3.82,2.08.35,2.63,2.06,2.45,4.86Z"/>
              <path class="cls-65" d="M92.31,55.93c2.28-3.54,5.74-7.95,9.82-8.96,1.38-.34,4.42-.33,3,1.74-.91,1.34-2.25,2.46-3.6,3.33-1.39.89-3.25,2.32-4.83,2.79-1.76.52-4.36,1.04-4.4,1.1Z"/>
              <path class="cls-67" d="M99.29,70.94c-.05.34-.29,1.85-.59,3.55-.78-.49-1.75-1.12-1.89-1.23-.88-.75-1.67-1.61-2.33-2.56-1.39-2-1.96-4.12-2.35-6.48,1.13,3.17,3.94,5.72,7.15,6.72Z"/>
              <g>
                <path class="cls-65" d="M96.88,56.12c-.22,0-.44-.14-.52-.36-.1-.29.04-.6.33-.7,1.61-.58,3.84-.97,5.5-.58.3.07.07.8,0,1.1-.07.3-.07.43-.37.37-1.46-.33-3.35-.36-4.76.15-.06.02-.12.03-.19.03Z"/>
                <path class="cls-65" d="M107.87,56.66c-.08,0-.17-.02-.25-.06-.55-.28-1.32-.32-1.94-.36h-.23c-.3-.03-.53-.3-.51-.6.02-.3-.12-.84.18-.82h.73c.73,0,1.51.41,2.26.79.27.14.38.47.25.74-.1.19-.29.3-.49.3Z"/>
                <path class="cls-67" d="M102.77,62.21c-.07,0-.13-.04-.16-.1-.05-.09-.01-.2.08-.25l1.59-.82.11-4.3c0-.1.08-.18.19-.18.1,0,.18.09.18.19l-.11,4.51-1.78.92s-.06.02-.08.02Z"/>
                <path class="cls-67" d="M102.71,64.63c-1.19,0-2.38-.46-3.25-1.29-.07-.07-.07-.19,0-.26.07-.07.19-.07.26,0,1.09,1.05,2.72,1.45,4.17,1.02.1-.03.2.03.23.12.03.1-.03.2-.12.23-.42.12-.85.18-1.28.18Z"/>
                <path class="cls-67" d="M101.31,65.5c-.36,0-.71-.12-.99-.34-.08-.06-.09-.18-.03-.26.06-.08.18-.09.26-.03.31.25.75.33,1.13.21.1-.03.2.02.23.12.03.1-.02.2-.12.23-.16.05-.32.07-.48.07Z"/>
                <ellipse class="cls-65" cx="99.45" cy="57.94" rx=".92" ry="1.28"/>
                <path class="cls-65" d="M106.93,58.59c-.09.62-.5,1.07-.9,1.01-.41-.06-.66-.61-.57-1.23.09-.62.5-1.07.9-1.01.41.06.66.61.57,1.23Z"/>
                <path class="cls-67" d="M90.36,56.97c-.07,0-.14-.05-.17-.12-.19-.5-.64-.89-1.17-1-.52-.11-1.1.07-1.47.45-.07.07-.19.08-.26,0-.07-.07-.07-.19,0-.26.46-.47,1.16-.69,1.81-.56.64.13,1.21.62,1.43,1.23.04.09-.01.2-.11.24-.02,0-.04.01-.06.01Z"/>
                <path class="cls-67" d="M87.73,58.4c-.09,0-.17-.06-.18-.15-.18-1.11.54-2.29,1.62-2.63.1-.03.2.02.23.12.03.1-.02.2-.12.23-.91.29-1.52,1.28-1.37,2.22.02.1-.05.19-.15.21-.01,0-.02,0-.03,0Z"/>
              </g>
              <path class="cls-25" d="M103.12,42.53c-2.44-.41-4.93-.49-7.38-.23-.69.07-1.37.24-2.01.5-.64.26-1.24.62-1.79,1.04-3.76,3.19-5.7,6.46-7.41,10.95-.06-.64-.04-1.25.08-1.79-.08-.01-.16-.01-.25,0,.17-2.56.55-5.11,1.47-7.48.56-1.47,1.37-2.86,2.41-4.04,1.26-1.44,2.69-2.29,4.31-2.82,0,.04-.01.09-.03.13,2.97-.71,6.19-.81,9.06.13-1.06.07-2.12.3-3.12.67l-.11.07c1.59-.06,3.79,1.88,4.76,2.89Z"/>
              <path class="cls-25" d="M90.61,35.32c-.79.22-1.84.25-2.3.41-1.68.55-3.24,1.46-4.53,2.67-1.97,1.84-3.31,4.36-3.72,7.04-.19,1.26-.2,2.59-.81,3.71-.45.83-1.19,1.47-1.74,2.24-1.43,2.03-1.37,4.73-1.1,7.19.27,2.47.66,5.06-.26,7.36-.37.92-1.09,1.82-1.98,2.16.21-1.34.19-2.75.16-4.12-.15-5.68-.41-11.49,1.19-16.94,1.6-5.45,5.51-10.59,10.98-11.92,1.36-.33,2.84-.41,4.1.2Z"/>
            </g>
            <path class="cls-1" d="M133.71,122.49c-.95,2.27-.47,2.56-3.62,3.88,0,0-3.2.6-5.57,1.03-1.69.31-6.45.45-10.28-.61-1.05-.29-4.65.61-4.65.61l-5.12,1.33-3.02.79s-5.49,1.22-10.43,1.37c-5.37.17-8.32.16-10.18.08-2.24-.09-7.33-.25-8.66-.59,0,0-.42-2.08-.26-3.16.45-3.03.94-4.08,1.12-4.46,1.35-2.83,2.32-3.73,5.5-4.11l16.68,2.7c.37.06.74.11,1.11.14l6.38.56s.47.04,1.23.08c2.58.17,8.47.46,10.18-.13,2.21-.77,5.77-2.28,7.86-1.67,2.09.61,6.77.95,7.66,1.78.89.83,5.04-1.91,4.09.37Z"/>
            <path class="cls-59" d="M133.71,122.49c-.95,2.27-.47,2.56-3.62,3.88,0,0-3.2.6-5.57,1.03-1.69.31-6.45.45-10.28-.61-1.05-.29-4.65.61-4.65.61l-5.12,1.33c-1.03-2.22-.88-4.76-.54-6.6,2.58.17,8.47.46,10.18-.13,2.21-.77,5.77-2.28,7.86-1.67,2.09.61,6.77.95,7.66,1.78.89.83,5.04-1.91,4.09.37Z"/>
            <g>
              <path class="cls-63" d="M94.45,137.64h0c1.53,0,2.78,1.24,2.78,2.78v5.87h-5.55v-5.87c0-1.53,1.24-2.78,2.78-2.78Z"/>
              <rect class="cls-38" x="92.58" y="136.62" width="3.75" height="1.04" rx=".52" ry=".52"/>
              <rect class="cls-38" x="92.9" y="139.45" width="3.1" height="5.05"/>
              <g>
                <path class="cls-38" d="M94.88,132.98h-2.36c-.18,0-.32.14-.32.32v.76c0,.18.14.32.32.32h.54c.36,0,.63.33.56.68l-.18,1.59h2.06l-.07-1.78c0-.18.1-.34.25-.43.15-.09.25-.24.25-.42h0c0-.58-.47-1.05-1.05-1.05Z"/>
                <path class="cls-63" d="M92.21,134.13h-.52c-.22,0-.4-.18-.4-.4h0c0-.22.18-.4.4-.4h.52v.8Z"/>
                <path class="cls-63" d="M92.59,135.96h0c-.1,0-.17-.1-.14-.2l.5-1.38h.31l-.53,1.48c-.02.06-.08.1-.14.1Z"/>
              </g>
            </g>
            <g>
              <path class="cls-56" d="M102.29,135.24h0c1.67,0,3.03,1.36,3.03,3.03v10.01h-6.06v-10.01c0-1.67,1.36-3.03,3.03-3.03Z"/>
              <rect class="cls-38" x="100.24" y="133.71" width="4.1" height="1.56" rx=".78" ry=".78"/>
              <rect class="cls-38" x="101.23" y="132.84" width="2.11" height="1.05" rx=".53" ry=".53"/>
              <rect class="cls-38" x="102.14" y="131.42" width=".29" height="1.42"/>
              <rect class="cls-38" x="101.26" y="130.98" width="3.78" height=".65" rx=".33" ry=".33"/>
              <rect class="cls-38" x="100.59" y="137.96" width="3.39" height="7.62"/>
            </g>
            <path class="cls-47" d="M89.94,140.46s10.96,1.93,16.44-1.01c0,0,.17,8.35,0,9.25-.17.91-1,2.58-2.4,3-1.4.42-9.46,1.18-9.92.91-.46-.28-2.38-1.67-2.38-1.67l-1.73-10.47Z"/>
            <path class="cls-43" d="M97.25,141.49c-3.94,0-7.14-.69-7.37-.74-.16-.04-.26-.19-.22-.35.04-.16.19-.26.35-.22.1.02,9.82,2.12,16.25-.99.15-.07.32,0,.39.14.07.15,0,.32-.14.39-2.85,1.38-6.26,1.78-9.25,1.78Z"/>
            <path class="cls-60" d="M94.75,140.99s.76-.9,2.07-.9,1.1.56,2.44.37c1.34-.19,2.06-.89,2.89-.71.83.17,1.28-.17,1.35,1.74.07,1.92-1.49,2.69-1.2,6.55.15,2,1.69,4.02-1.73,6.41-1.59,1.11-6.12.59-6.3-2.4-.18-3-1.01-6.9.19-8.54,1.2-1.64.29-2.52.29-2.52Z"/>
          </g>
          <g id="Towels">
            <g>
              <rect class="cls-60" x="109.7" y="86.99" width="11.21" height="9.91"/>
              <rect class="cls-60" x="122.5" y="87.29" width="11.21" height="9.91"/>
              <rect class="cls-60" x="116.07" y="77.37" width="11.21" height="9.91"/>
            </g>
            <g>
              <path class="cls-60" d="M151.71,116.3l-.26,3.23c-.13,1.67-1.57,2.96-3.3,2.96h-51.37c-1.85,0-3.32-1.51-3.21-3.3l.34-5.87c.05-.87.23-1.72.54-2.53l.24-.62.11-.28c.32-.85.31-1.78-.02-2.62-.1-.26-.2-.52-.28-.79-.23-.75-.38-1.53-.44-2.31l-.39-4.91c-.15-1.89,1.39-3.5,3.34-3.5l25.35,1.25c.64.03,1.28.04,1.92.02l22.56-.58c1.8.03,3.34,1.28,3.68,2.99l.8,4.03c.18.94.14,1.9-.12,2.82-.27.95-.41,1.92-.41,2.89,0,.62.05,1.23.16,1.84.05.31.12.62.21.93l.2.75c.32,1.17.44,2.39.34,3.6Z"/>
              <path class="cls-37" d="M150.79,109.19c0,.62.05,1.23.16,1.84-2.71-.07-11.97-.3-19.95-.26-8.49.04-29.59-1.07-36.32-.6l.11-.28c.32-.85.31-1.78-.02-2.62-.1-.26-.2-.52-.28-.79,0,0,43.98,5.08,56.7-.18-.27.95-.41,1.92-.41,2.89Z"/>
              <path class="cls-37" d="M145.42,105.64s-16.18,1.3-23.44.99c-7.26-.31-23.18-1.17-23.95-2.16-.76-.99-1.27-5.44.7-5.99s44.65-.19,45.92,1.11c1.27,1.3,2.17,4.39-.45,4.39s-27.39-.25-33.57-.8c-6.18-.56-9.11-1.3-6.31-2.1,2.8-.8,30.38.12,32.04.19,1.66.06,1.21.93.38.8-.83-.12-26.91-1.39-29.87-.83-2.96.56,2.39,1.2,4.73,1.23,2.34.02,13.9.86,17.96.67,4.06-.19,14.43,1.02,15,.23.57-.79.76-3.38-1.19-3.57-1.96-.19-8.03-.56-8.26-.56s-15.14-.79-19.11-.46c-3.96.32-15.19-.19-16.34.37s-2.53,3.66-.81,4.5c1.72.83,2.63,1.25,4.44,1.25s16.34,1.2,18.73,1.2,12.47-.23,14.43-.23,8.5-.74,9.08-.79c.57-.05.84.5-.11.57Z"/>
              <path class="cls-37" d="M146.57,119.95s-16.18,1.3-23.44.99-23.18-1.17-23.95-2.16c-.76-.99-1.27-5.44.7-5.99s44.65-.19,45.92,1.11c1.27,1.3,2.17,4.39-.45,4.39s-27.39-.25-33.57-.8c-6.18-.56-9.11-1.3-6.31-2.1,2.8-.8,30.38.12,32.04.19,1.66.06,1.21.93.38.8-.83-.12-26.91-1.39-29.87-.83-2.96.56,2.39,1.2,4.73,1.23,2.34.02,13.9.86,17.96.67,4.06-.19,14.43,1.02,15,.23.57-.79.76-3.38-1.19-3.57-1.96-.19-8.03-.56-8.26-.56s-15.14-.79-19.11-.46c-3.96.32-15.19-.19-16.34.37-1.15.56-2.53,3.66-.81,4.5,1.72.83,2.63,1.25,4.44,1.25s16.34,1.2,18.73,1.2,12.47-.23,14.43-.23,8.5-.74,9.08-.79c.57-.05.84.5-.11.57Z"/>
            </g>
          </g>
          <rect class="cls-27" x="97" y="85.93" width="9.83" height="2.72" transform="translate(8.36 -8.91) rotate(5.22)"/>
          <path class="cls-22" d="M106.05,46.38s-3.31-3.82-9.34-.75c-6.03,3.07-8.84,9.64-8.84,9.64,0,0-1.01-.43-2,.16,0,0,1.01-5.66,2.18-8.55,1.2-2.99,4.52-6.69,7.06-7.68,2.53-.99,9.64.11,10.95,7.19Z"/>
        </g>
        <rect id="Floor" class="cls-52" x="19.69" y="280.86" width="537.29" height="6.52" rx="3.26" ry="3.26"/>
      </g>
    </g>
  </g>
</svg>