<?xml version="1.0" encoding="UTF-8"?>
<svg id="Capa_2" data-name="Capa 2" xmlns="http://www.w3.org/2000/svg" viewBox="0 0 184.12 112.47">
  <defs>
    <style>
      .cls-1 {
        fill: #dbb9d9;
      }

      .cls-2 {
        fill: #203995;
      }

      .cls-3 {
        fill: #1a2f6b;
      }

      .cls-4 {
        fill: #203a95;
      }
    </style>
  </defs>
  <g id="Capa_2-2" data-name="Capa 2-2">
    <g>
      <path class="cls-2" d="M14.33,112.47V18.82c2.58-.02,5.16-.03,7.73-.05-.14,1.92-.18,4.76.43,8.1,1.17,6.38,4.08,10.99,9.22,17.74,4.1,5.39,9.66,12.2,16.82,19.71-.55-3.24-1.09-8.52-.05-14.82.6-3.61,3.31-19.98,17.31-28.02,2.6-1.49,7.32-3.69,14.11-4.15,2.56-.15,12.33-.43,21.42,6.48,9.95,7.56,11.92,18.29,12.29,20.59.43-2.36,2.95-14.72,14.45-22.08,6.69-4.28,13.34-4.91,16.6-4.98,3.73-.15,10.06.17,16.45,3.63,9.59,5.2,13.58,14.35,16.59,21.27,3,6.9,4.28,13.33,4.8,18.41.76,6.47,1.3,13.47,1.51,20.94.31,11.32-.21,21.68-1.16,30.88h-46.82c18.41-69.32,15.5-87.4,8.97-90.49-4.34-2.05-11.78,1.8-12.79,2.32-11.59,6.01-14.34,20.26-15.11,24.24-1.77,9.14,0,14.49,1.36,24.83,1.19,9.07,2.1,22.33.3,39.1h-46.99c4.99-23.24,8.51-42.81,10.96-57.62,2.58-15.58,4.3-27.96-1.66-31.77-4.62-2.95-11.66.65-13.12,1.39-12.67,6.47-17.56,25.06-15.94,39.35,1.02,8.98,3.88,9.84,6.81,23.25,2.3,10.56,2.6,19.52,2.49,25.4H14.33Z"/>
      <g>
        <path class="cls-3" d="M30.36,5.34c.28.11.45.38.43.68-.08,1.37-.17,5.27,1.34,5.65.69.18,1.23.29,1.63.37.45.08.69.57.49.98-.56,1.1-1.28,3.1-.31,4.89.68,1.25.63,2.05.4,2.56-.23.49-.9.53-1.2.08-1.17-1.81-4.35-6.98-5.57-11.69-1.22-4.68,1.63-3.98,2.8-3.52h-.01Z"/>
        <path class="cls-3" d="M39.86.18c.18,0,.36.18.35.35-.19,1.69-.3,3.54-.32,5.56,0,.17-.2.3-.37.27-1.11-.18-4.5-.31-5.63-.33V.1c1.24,0,4.74.03,5.98.08h0Z"/>
        <path class="cls-4" d="M.5,9.43c.26-.81.58-1.59.96-2.35C2.83,4.29,4.86,1.51,7.92.66,10.39-.02,13.79-.02,17.34,0c3.01.03,14.04.07,16.55.09v5.92c-2.43-.06-4.85.35-7.01,1.66-1.15.7-2,1.75-2.56,2.97-.55,1.21-.8,5.54-.92,6.86.07.14.05.31-.03.43,0,.07-.01.14-.02.21-.01.22-.38.11-.37-.08v-.02c-3.12-.78-6.39-.76-9.51.03-.35.09-.62.15-.64-.15-.16-3.13-.35-5.26-.51-6.52-.13-1.02-1.78-3.85-4.05-2.47-.93.57-1.61,1.48-2.18,2.4-.66,1.08-1.13,2.26-1.54,3.45-.07.21-.38.2-.53.1-.78-.53-1.57-1.06-2.35-1.59-.61-.41-1.43-.8-1.62-1.57-.18-.73.23-1.64.46-2.32v.02Z"/>
        <path class="cls-3" d="M12.15,19.32c.06-1.34.13-2.75.35-4.05h11.15c.22,1.31.29,2.71.35,4.05.09,1.85.12,3.72.09,5.58h-12.04c-.02-1.86,0-3.73.09-5.58h0Z"/>
        <g>
          <path class="cls-1" d="M13.56,16.61h0c.21,0,.38.17.38.38v6.77c0,.21-.17.38-.38.38h0c-.21,0-.38-.17-.38-.38v-6.77c0-.21.17-.38.38-.38Z"/>
          <path class="cls-1" d="M15.06,16.61h0c.21,0,.38.17.38.38v6.77c0,.21-.17.38-.38.38h0c-.21,0-.38-.17-.38-.38v-6.77c0-.21.17-.38.38-.38Z"/>
          <path class="cls-1" d="M16.57,16.61h0c.21,0,.38.17.38.38v6.77c0,.21-.17.38-.38.38h0c-.21,0-.38-.17-.38-.38v-6.77c0-.21.17-.38.38-.38Z"/>
          <path class="cls-1" d="M18.08,16.61h0c.21,0,.38.17.38.38v6.77c0,.21-.17.38-.38.38h0c-.21,0-.38-.17-.38-.38v-6.77c0-.21.17-.38.38-.38Z"/>
          <path class="cls-1" d="M19.58,16.61h0c.21,0,.38.17.38.38v6.77c0,.21-.17.38-.38.38h0c-.21,0-.38-.17-.38-.38v-6.77c0-.21.17-.38.38-.38Z"/>
          <path class="cls-1" d="M21.08,16.61h0c.21,0,.38.17.38.38v6.77c0,.21-.17.38-.38.38h0c-.21,0-.38-.17-.38-.38v-6.77c0-.21.17-.38.38-.38Z"/>
          <path class="cls-1" d="M22.59,16.61h0c.21,0,.38.17.38.38v6.77c0,.21-.17.38-.38.38h0c-.21,0-.38-.17-.38-.38v-6.77c0-.21.17-.38.38-.38Z"/>
        </g>
        <path class="cls-1" d="M1.66,11.08s-.04,0-.06-.01c-.09-.03-.14-.14-.11-.23.07-.21,1.86-5.08,3.97-6.87,2.84-2.42,6.29-2.43,9.33-2.44.71,0,1.38,0,2.04-.03,3.53-.16,14.99-.08,15.11-.08.1,0,.18.08.18.18s-.08.18-.18.18h0c-.12,0-11.57-.08-15.09.08-.67.03-1.34.03-2.05.03-3.12,0-6.35.02-9.09,2.35-2.03,1.73-3.84,6.67-3.86,6.72-.03.07-.1.12-.17.12h-.02Z"/>
        <path class="cls-1" d="M38.8,5.26c-.1,0-.18-.08-.18-.18V1.19c0-.1.08-.18.18-.18s.18.08.18.18v3.88c0,.1-.08.18-.18.18h0Z"/>
        <path class="cls-1" d="M33.7,19.82c-.07,0-.13-.04-.16-.1,0-.03-1.42-2.71-2.87-5.59-1.45-2.89-2.24-5.59-2.25-5.61-.03-.1.03-.2.12-.23.1-.03.2.03.23.12,0,.03.79,2.69,2.22,5.55,1.44,2.88,2.85,5.55,2.86,5.58.05.09,0,.2-.08.25-.03.01-.06.02-.08.02h.01Z"/>
        <path class="cls-1" d="M22.78,13.99h-9.22c-.1,0-.18-.08-.18-.18s.08-.18.18-.18h9.22c.1,0,.18.08.18.18s-.08.18-.18.18Z"/>
      </g>
    </g>
  </g>
</svg>