<?xml version="1.0" encoding="UTF-8"?>
<svg id="Capa_2" data-name="Capa 2" xmlns="http://www.w3.org/2000/svg" viewBox="0 0 150 24.45">
  <defs>
    <style>
      .cls-1 {
        fill: #fff;
      }
    </style>
  </defs>
  <g id="Capa_2-2" data-name="Capa 2-2">
    <g id="Capa_1-2" data-name="Capa 1-2">
      <g id="mob-object">
        <g>
          <path class="cls-1" d="M9.46,4.68v8.61h-1.21V1.48h1.87l2.05,9.37L14.24,1.48h1.76v11.81h-1.3V4.68l-1.82,8.61h-1.52l-1.9-8.61Z"/>
          <path class="cls-1" d="M23.54,7.39c0,4.12-.08,6.1-3.2,6.1s-3.3-2.06-3.3-6.1.17-6.12,3.3-6.12,3.2,2.03,3.2,6.12ZM18.69,7.39c0,3.5.14,4.85,1.65,4.85s1.54-1.35,1.54-4.85-.05-4.88-1.54-4.88-1.65,1.41-1.65,4.88Z"/>
          <path class="cls-1" d="M26.19,1.48v7.12c0,2.58.08,3.65,1.27,3.65s1.25-1.06,1.25-3.65V1.48h1.59v8.4c0,2.27-.33,3.61-2.84,3.61s-2.84-1.28-2.84-3.61V1.48h1.57Z"/>
          <path class="cls-1" d="M31.5,1.48h1.63l2.87,8.18V1.48h1.35v11.81h-1.62l-2.88-8.16v8.16h-1.35V1.48Z"/>
          <path class="cls-1" d="M43.59,1.48v1.24h-2.01v10.57h-1.57V2.71h-1.96v-1.24h5.55,0Z"/>
          <path class="cls-1" d="M47.03,10.45h-2.2l-.49,2.84h-1.49l2.35-11.81h1.66l2.38,11.81h-1.73l-.48-2.84h0ZM44.94,9.19h1.95l-.95-5.17-1,5.17h0Z"/>
          <path class="cls-1" d="M51.58,1.48v11.81h-1.57V1.48h1.57Z"/>
          <path class="cls-1" d="M52.81,1.48h1.63l2.87,8.18V1.48h1.35v11.81h-1.62l-2.88-8.16v8.16h-1.35V1.48Z"/>
          <path class="cls-1" d="M68.36,3.93l-1.25.17c-.06-1.03-.17-1.6-1.22-1.6s-1.27.6-1.27,1.57c0,1.22.57,1.76,1.43,2.25,1.27.73,2.52,1.38,2.52,3.99,0,2.03-.78,3.17-2.93,3.17s-2.58-1-2.74-3.66l1.35-.27c.1,2,.35,2.68,1.39,2.68,1.12,0,1.35-.67,1.35-1.98,0-1.54-.62-2.08-1.68-2.73-1.12-.67-2.19-1.54-2.19-3.5,0-1.68.63-2.76,2.76-2.76s2.43,1.17,2.49,2.66h0Z"/>
          <path class="cls-1" d="M71.17,1.48v5.09h2.73V1.48h1.57v11.81h-1.57v-5.49h-2.73v5.49h-1.59V1.48h1.59,0Z"/>
          <path class="cls-1" d="M78.3,1.48v11.81h-1.57V1.48h1.57Z"/>
          <path class="cls-1" d="M79.53,1.48h1.63l2.87,8.18V1.48h1.35v11.81h-1.62l-2.88-8.16v8.16h-1.35V1.48Z"/>
          <path class="cls-1" d="M91.15,1.48v1.24h-2.96v3.72h2.49l-.11,1.25h-2.38v4.39h3.04v1.21h-4.61V1.48h4.53,0Z"/>
          <path class="cls-1" d="M97.06,7.39c0,3.5.1,4.85,1.49,4.85s1.39-.76,1.46-3.07l1.57.13c-.19,2.85-.25,4.2-3.03,4.2-3.04,0-3.14-2.06-3.14-6.1s.1-6.12,3.14-6.12c2.85,0,2.93,1.08,3.03,4.12l-1.54.21c-.06-2.62-.1-3.09-1.49-3.09s-1.49,1.41-1.49,4.88h0Z"/>
          <path class="cls-1" d="M104.19,1.48v10.6h2.43v1.21h-4.01V1.48h1.59,0Z"/>
          <path class="cls-1" d="M111.99,1.48v1.24h-2.96v3.72h2.49l-.11,1.25h-2.38v4.39h3.04v1.21h-4.61V1.48h4.53,0Z"/>
          <path class="cls-1" d="M116.74,10.45h-2.2l-.49,2.84h-1.49l2.35-11.81h1.66l2.38,11.81h-1.73l-.48-2.84h0ZM114.65,9.19h1.95l-.95-5.17-1,5.17h0Z"/>
          <path class="cls-1" d="M119.69,1.48h1.63l2.87,8.18V1.48h1.35v11.81h-1.62l-2.88-8.16v8.16h-1.35V1.48Z"/>
          <path class="cls-1" d="M128.35,1.48v11.81h-1.57V1.48h1.57Z"/>
          <path class="cls-1" d="M129.58,1.48h1.63l2.87,8.18V1.48h1.35v11.81h-1.62l-2.88-8.16v8.16h-1.35V1.48Z"/>
          <path class="cls-1" d="M142.59,7.23v6.05h-1.16l-.14-1.12c-.28.7-.85,1.33-2.17,1.33-2.54,0-2.62-2.41-2.62-6.18s.08-6.04,3.15-6.04c2.76,0,2.82,1.06,2.93,3.69l-1.3.32c-.1-1.98-.14-2.76-1.57-2.76-1.55,0-1.63,1.6-1.63,4.79,0,2.96.08,4.93,1.39,4.93.92,0,1.54-.67,1.63-1.6v-2.17h-1.47l.21-1.24h2.74,0Z"/>
        </g>
        <g>
          <path class="cls-1" d="M10.55,21.95h-1.99v-.21c.18,0,.32-.02.41-.05.09-.03.15-.1.18-.19.03-.1.04-.24.04-.44v-3.03c0-.21-.04-.34-.13-.4s-.24-.09-.47-.09v-.21h1.76c.22,0,.44.02.65.05s.4.1.56.18c.16.09.29.2.39.36.1.15.14.35.14.58,0,.27-.05.5-.16.69-.1.19-.24.34-.42.45s-.38.19-.6.24c-.22.05-.45.07-.68.07-.07,0-.15,0-.22-.02-.08-.01-.14-.02-.18-.04v1.21c0,.19.02.34.06.43.04.09.11.16.21.18s.25.04.44.04v.21h0ZM10.22,19.64c.25,0,.47-.03.64-.1s.31-.17.4-.33c.09-.15.13-.37.13-.64,0-.32-.09-.56-.28-.74-.19-.17-.47-.26-.85-.26-.07,0-.14,0-.21,0-.07,0-.14.01-.21.02v1.99s.09.01.17.02.14.01.21.01h0Z"/>
          <path class="cls-1" d="M14.55,21.95h-1.98v-.21c.18,0,.31-.02.4-.04s.15-.09.18-.18c.03-.09.05-.24.05-.44v-3.03c0-.13-.01-.23-.04-.31s-.08-.13-.17-.16c-.09-.03-.23-.05-.42-.05v-.21h1.74c.35,0,.67.03.94.1.27.07.49.19.65.35.16.17.23.4.23.7,0,.26-.06.48-.18.64s-.27.29-.45.38c-.18.09-.37.16-.56.21v.03c.08.05.17.13.27.24.1.12.23.28.39.51.16.22.37.52.63.89.11.16.22.25.33.3.11.04.24.06.4.06v.21h-1.16c-.19-.29-.35-.53-.48-.73s-.24-.36-.33-.49c-.09-.13-.17-.25-.24-.36s-.14-.21-.21-.31c-.07-.11-.14-.17-.19-.2s-.15-.04-.28-.04h-.2v1.25c0,.19.02.34.05.43s.1.16.2.19c.1.03.25.04.45.04v.21h0ZM13.85,19.55h.27c.26,0,.48-.05.68-.12s.34-.18.45-.33c.11-.15.16-.35.16-.6,0-.28-.09-.5-.26-.67s-.45-.24-.83-.24c-.08,0-.15,0-.23,0-.08,0-.16,0-.23.02v1.94h0Z"/>
          <path class="cls-1" d="M20.93,21.95h-3.77v-.21c.19,0,.34-.01.43-.04s.16-.08.2-.17c.04-.09.05-.22.05-.41v-2.94c0-.18-.02-.32-.05-.41s-.1-.16-.2-.19c-.1-.03-.24-.05-.43-.05v-.21h3.7l.04,1.16h-.23c-.03-.23-.08-.41-.15-.53-.07-.12-.18-.2-.33-.24-.15-.04-.38-.06-.67-.06h-1.04v1.79h.82c.22,0,.38-.02.49-.06s.19-.11.23-.21c.04-.1.06-.25.06-.44h.23v1.64h-.23c0-.19-.02-.34-.06-.43-.04-.09-.12-.16-.23-.18-.11-.03-.28-.04-.49-.04h-.82v1.94h.91c.27,0,.49-.01.66-.04s.3-.07.4-.14c.1-.07.18-.17.24-.3s.13-.3.2-.51h.22l-.2,1.31h0Z"/>
          <path class="cls-1" d="M23.18,21.95h-1.66v-.21c.19,0,.34-.02.43-.05.09-.04.16-.11.19-.23s.05-.3.05-.53v-2.74c0-.18-.02-.32-.05-.41s-.1-.16-.19-.19-.23-.05-.42-.05v-.21h1.44l1.49,3.55h.03l1.48-3.55h1.34v.21c-.16,0-.29.02-.38.05s-.15.1-.18.19c-.03.09-.05.22-.05.4v2.94c0,.17.02.3.05.39.03.09.09.15.18.19.09.03.22.05.39.05v.21h-1.88v-.21c.18,0,.32-.02.41-.05.09-.03.15-.1.18-.19s.04-.22.04-.39v-3.04h-.03l-1.64,3.88h-.17l-1.66-3.87h-.03v2.84c0,.24.02.42.05.53.03.12.1.19.19.23.09.04.23.05.41.05v.21h0Z"/>
          <path class="cls-1" d="M29.9,21.95h-2.03v-.21c.21,0,.37-.02.46-.05s.16-.1.19-.2c.03-.1.04-.25.04-.45v-2.78c0-.18-.01-.33-.04-.43s-.08-.18-.18-.22-.26-.06-.48-.06v-.21h2.03v.21c-.22,0-.38.02-.48.06s-.16.12-.18.22-.03.25-.03.43v2.78c0,.2.02.35.04.45s.09.17.19.2.25.05.46.05c0,0,0,.21,0,.21Z"/>
          <path class="cls-1" d="M32.78,22.03c-.63,0-1.08-.14-1.37-.43s-.43-.76-.43-1.41v-2.04c0-.16-.02-.29-.06-.38-.04-.09-.11-.15-.2-.19s-.24-.05-.43-.05v-.21h2.03v.21c-.2,0-.35.02-.44.05s-.16.1-.2.19-.05.23-.05.41v1.99c0,.31.04.56.12.77.08.21.22.37.41.48s.46.16.79.16c.46,0,.79-.11,1-.33s.31-.57.31-1.05v-1.78c0-.25-.02-.44-.04-.57s-.09-.22-.18-.26-.24-.07-.44-.07v-.21h1.73v.21c-.2,0-.35.02-.44.07s-.15.13-.18.26-.04.31-.04.55v1.7c0,.64-.15,1.12-.44,1.44s-.77.48-1.44.48h0Z"/>
          <path class="cls-1" d="M37.31,21.95h-1.66v-.21c.19,0,.34-.02.43-.05.09-.04.16-.11.19-.23s.05-.3.05-.53v-2.74c0-.18-.02-.32-.05-.41s-.1-.16-.19-.19-.23-.05-.42-.05v-.21h1.44l1.49,3.55h.03l1.48-3.55h1.34v.21c-.16,0-.29.02-.38.05-.09.04-.15.1-.18.19-.03.09-.05.22-.05.4v2.94c0,.17.02.3.05.39.03.09.09.15.18.19.09.03.22.05.39.05v.21h-1.88v-.21c.18,0,.32-.02.41-.05.09-.03.15-.1.18-.19s.04-.22.04-.39v-3.04h-.03l-1.64,3.88h-.17l-1.66-3.87h-.03v2.84c0,.24.02.42.05.53s.1.19.19.23c.09.04.23.05.41.05v.21Z"/>
          <path class="cls-1" d="M46.54,21.96l-.57.08c-.45-.02-.84-.12-1.17-.31s-.58-.47-.76-.82-.27-.78-.27-1.27.09-.9.27-1.26c.18-.36.44-.64.78-.84.34-.2.74-.3,1.2-.3s.87.1,1.21.29c.33.19.59.47.77.82.18.35.27.76.27,1.22,0,.42-.07.8-.21,1.14s-.34.62-.6.83-.56.36-.91.42h0ZM46.03,21.74c.5,0,.88-.18,1.12-.54s.37-.9.37-1.61c0-.42-.06-.79-.19-1.1s-.31-.54-.53-.71c-.23-.17-.49-.25-.8-.25-.46,0-.82.18-1.09.55-.27.37-.4.87-.4,1.51s.13,1.19.38,1.57.63.58,1.14.58h0ZM48.45,23.17h-.35c-.39,0-.72-.03-.98-.08s-.48-.14-.66-.27-.33-.29-.45-.5l-.22-.39.87-.11v.13c.17.23.34.43.5.57.17.15.35.25.56.32s.45.1.73.1v.23h0Z"/>
          <path class="cls-1" d="M51.25,22.03c-.63,0-1.08-.14-1.37-.43-.29-.29-.43-.76-.43-1.41v-2.04c0-.16-.02-.29-.06-.38s-.11-.15-.2-.19-.24-.05-.43-.05v-.21h2.03v.21c-.2,0-.35.02-.44.05s-.16.1-.2.19c-.03.09-.05.23-.05.41v1.99c0,.31.04.56.12.77.08.21.22.37.41.48s.46.16.79.16c.46,0,.79-.11,1-.33.2-.22.31-.57.31-1.05v-1.78c0-.25-.02-.44-.04-.57s-.09-.22-.18-.26c-.09-.05-.24-.07-.44-.07v-.21h1.73v.21c-.2,0-.35.02-.44.07s-.15.13-.18.26-.04.31-.04.55v1.7c0,.64-.15,1.12-.44,1.44s-.77.48-1.44.48h0Z"/>
          <path class="cls-1" d="M55.03,21.95h-1.48v-.21c.13,0,.24-.02.32-.06.08-.04.16-.13.23-.26.08-.13.17-.33.28-.6l1.5-3.54h.29l1.67,3.83c.1.23.2.39.3.49s.24.14.43.14v.21h-1.9v-.21c.07,0,.14,0,.22-.02.08-.01.14-.03.19-.07s.08-.1.08-.18c0-.05,0-.11-.03-.18s-.05-.15-.1-.26l-.3-.71-.05-.14-.8-2.05h-.02l-.82,2.05-.05.14-.35.82c-.02.06-.04.11-.05.17s-.03.11-.03.18c0,.1.04.16.11.19.08.03.19.05.36.05v.21h0ZM56.84,20.4h-1.96l.11-.28h1.75l.11.28h0Z"/>
          <path class="cls-1" d="M62.39,21.95h-3.5v-.21c.19,0,.33-.02.42-.05.09-.03.15-.1.18-.19s.04-.23.04-.42v-2.87c0-.18-.02-.33-.04-.42s-.09-.17-.18-.2-.23-.06-.42-.06v-.21h1.98v.21c-.19,0-.33.02-.43.06-.1.04-.17.11-.2.21s-.05.24-.05.42v3.06c0,.16.04.26.11.3.08.05.22.07.42.07h.33c.23,0,.43-.02.57-.05.15-.04.26-.1.35-.18.09-.09.16-.2.22-.34.06-.14.12-.31.19-.51h.22l-.21,1.37h0Z"/>
          <path class="cls-1" d="M64.99,21.95h-2.03v-.21c.21,0,.37-.02.47-.05.1-.04.16-.1.19-.2.03-.1.04-.25.04-.45v-2.78c0-.18-.01-.33-.04-.43s-.08-.18-.18-.22-.26-.06-.48-.06v-.21h2.03v.21c-.22,0-.38.02-.48.06s-.16.12-.18.22-.03.25-.03.43v2.78c0,.2.02.35.04.45s.09.17.19.2.25.05.46.05c0,0,0,.21,0,.21Z"/>
          <path class="cls-1" d="M68.39,21.95h-2.05v-.21c.2,0,.35-.02.44-.05s.16-.1.2-.2.05-.26.05-.47v-3.39h-.45c-.26,0-.45.03-.58.08s-.22.15-.28.28-.11.33-.16.59h-.22l.08-1.27h3.9l.06,1.27h-.22c-.05-.26-.11-.46-.16-.59s-.15-.23-.27-.28-.32-.08-.59-.08h-.44v3.39c0,.21.02.37.05.47.03.1.1.17.2.2.1.03.25.05.45.05v.21Z"/>
          <path class="cls-1" d="M72.84,21.95h-2.09v-.21c.21,0,.36-.02.46-.05.1-.03.17-.1.2-.2s.05-.26.05-.46v-1.02l-.9-1.45c-.15-.24-.27-.43-.37-.56-.1-.14-.2-.24-.28-.31s-.16-.11-.23-.13c-.07-.02-.15-.03-.23-.03v-.21h1.9v.21c-.2,0-.33.02-.38.04-.06.03-.09.07-.09.12,0,.09.04.2.12.33l.64,1.02.31.55h.04l.93-1.59s.04-.08.06-.13.03-.1.03-.15c0-.07-.03-.11-.09-.14s-.18-.05-.36-.05v-.21h1.54v.21c-.14.01-.25.03-.35.07s-.19.1-.27.2c-.09.09-.19.24-.31.43l-1.04,1.74v1.06c0,.21.02.36.06.46s.11.17.22.2c.11.03.26.05.45.05v.21h0Z"/>
          <path class="cls-1" d="M73.94,22.88l-.08-.18c.09-.04.18-.09.27-.14s.16-.14.22-.26.09-.26.09-.45c-.08.03-.15.04-.22.04-.14,0-.23-.04-.3-.11-.06-.08-.09-.16-.09-.27,0-.11.04-.21.11-.29.08-.08.18-.12.33-.12.12,0,.22.03.3.07.08.05.14.12.18.21.04.09.06.2.06.34,0,.2-.03.36-.1.5s-.14.25-.24.33c-.09.08-.19.15-.29.2s-.18.09-.25.13h0Z"/>
          <path class="cls-1" d="M79.12,21.95h-1.98v-.21c.18,0,.31-.02.4-.04s.15-.09.18-.18c.03-.09.05-.24.05-.44v-3.03c0-.13-.01-.23-.04-.31s-.08-.13-.17-.16c-.09-.03-.23-.05-.42-.05v-.21h1.74c.35,0,.67.03.94.1.27.07.49.19.65.35s.23.4.23.7c0,.26-.06.48-.18.64s-.27.29-.45.38c-.18.09-.37.16-.56.21v.03c.08.05.17.13.27.24.1.12.23.28.39.51.16.22.37.52.63.89.11.16.22.25.33.3.11.04.24.06.4.06v.21h-1.16c-.19-.29-.35-.53-.48-.73-.13-.19-.24-.36-.33-.49-.09-.13-.17-.25-.24-.36s-.14-.21-.21-.31c-.07-.11-.14-.17-.19-.2-.06-.02-.15-.04-.28-.04h-.2v1.25c0,.19.02.34.05.43.03.1.1.16.2.19.1.03.25.04.45.04v.21h0ZM78.42,19.55h.27c.26,0,.48-.05.68-.12.19-.07.34-.18.45-.33.11-.15.16-.35.16-.6,0-.28-.09-.5-.26-.67s-.45-.24-.83-.24c-.08,0-.15,0-.23,0-.08,0-.16,0-.23.02v1.94h0Z"/>
          <path class="cls-1" d="M85.5,21.95h-3.77v-.21c.19,0,.34-.01.43-.04s.16-.08.2-.17c.04-.09.05-.22.05-.41v-2.94c0-.18-.02-.32-.05-.41s-.1-.16-.2-.19-.24-.05-.43-.05v-.21h3.7l.04,1.16h-.22c-.03-.23-.08-.41-.15-.53-.07-.12-.18-.2-.33-.24-.15-.04-.38-.06-.67-.06h-1.04v1.79h.82c.22,0,.38-.02.49-.06.11-.04.19-.11.23-.21.04-.1.06-.25.06-.44h.22v1.64h-.22c0-.19-.02-.34-.06-.43s-.12-.16-.23-.18c-.11-.03-.28-.04-.49-.04h-.82v1.94h.91c.27,0,.49-.01.66-.04.17-.03.3-.07.4-.14.1-.07.18-.17.24-.3s.13-.3.2-.51h.22l-.2,1.31h0Z"/>
          <path class="cls-1" d="M89.69,21.95h-3.5v-.21c.19,0,.33-.02.42-.05.09-.03.15-.1.18-.19s.04-.23.04-.42v-2.87c0-.18-.02-.33-.04-.42-.03-.1-.09-.17-.18-.2s-.23-.06-.42-.06v-.21h1.98v.21c-.19,0-.33.02-.43.06-.1.04-.17.11-.2.21-.04.1-.05.24-.05.42v3.06c0,.16.04.26.11.3.08.05.22.07.42.07h.33c.23,0,.43-.02.57-.05s.26-.1.35-.18c.09-.09.16-.2.22-.34.06-.14.12-.31.19-.51h.23l-.21,1.37h0Z"/>
          <path class="cls-1" d="M92.29,21.95h-2.03v-.21c.21,0,.37-.02.47-.05.1-.04.16-.1.19-.2.03-.1.04-.25.04-.45v-2.78c0-.18-.01-.33-.04-.43-.02-.11-.08-.18-.18-.22s-.26-.06-.48-.06v-.21h2.03v.21c-.22,0-.38.02-.48.06s-.16.12-.18.22-.03.25-.03.43v2.78c0,.2.02.35.04.45.03.1.09.17.19.2s.25.05.46.05v.21h0Z"/>
          <path class="cls-1" d="M94.04,21.95h-1.48v-.21c.13,0,.24-.02.32-.06s.16-.13.23-.26.17-.33.28-.6l1.5-3.54h.29l1.67,3.83c.1.23.2.39.3.49s.24.14.43.14v.21h-1.9v-.21c.07,0,.14,0,.22-.02s.14-.03.19-.07.08-.1.08-.18c0-.05,0-.11-.03-.18s-.05-.15-.1-.26l-.3-.71-.05-.14-.8-2.05h-.02l-.82,2.05-.05.14-.35.82c-.02.06-.04.11-.05.17s-.03.11-.03.18c0,.1.04.16.11.19.08.03.19.05.36.05v.21h0ZM95.84,20.4h-1.96l.11-.28h1.75l.11.28h0Z"/>
          <path class="cls-1" d="M100.03,21.95h-2.17v-.21c.19,0,.34-.02.43-.05.1-.03.16-.1.2-.2s.05-.24.05-.44v-2.88c0-.19-.02-.33-.05-.42-.04-.09-.1-.15-.2-.18s-.24-.04-.43-.04v-.21h1.9c.42,0,.75.04,1.01.13.25.09.44.21.55.37.11.16.17.36.17.6,0,.32-.09.55-.28.71-.19.16-.43.28-.72.36v.03c.2.03.4.09.58.18.19.09.34.21.46.38.12.16.18.37.18.63,0,.4-.15.71-.45.92s-.71.33-1.24.33h0ZM99.19,17.61v1.78h.48c.43,0,.72-.07.88-.22s.24-.38.24-.7c0-.28-.09-.49-.26-.65-.18-.16-.48-.23-.91-.23-.07,0-.14,0-.21,0-.07,0-.14,0-.21.02h0ZM99.69,21.69c.15,0,.3-.01.45-.03s.29-.06.41-.12c.12-.06.22-.16.3-.29.08-.13.11-.31.11-.53,0-.27-.06-.48-.19-.62s-.28-.25-.48-.31-.4-.09-.62-.09h-.49v1.97c.09,0,.17.01.25.02.08,0,.17,0,.25,0h0Z"/>
          <path class="cls-1" d="M105.75,21.95h-3.5v-.21c.19,0,.33-.02.42-.05.09-.03.15-.1.18-.19s.04-.23.04-.42v-2.87c0-.18-.02-.33-.04-.42-.03-.1-.09-.17-.18-.2s-.23-.06-.42-.06v-.21h1.98v.21c-.19,0-.33.02-.43.06-.1.04-.17.11-.2.21-.04.1-.05.24-.05.42v3.06c0,.16.04.26.11.3.08.05.22.07.42.07h.33c.23,0,.43-.02.57-.05s.26-.1.35-.18c.09-.09.16-.2.22-.34.06-.14.12-.31.19-.51h.23l-.21,1.37h0Z"/>
          <path class="cls-1" d="M110.1,21.95h-3.77v-.21c.19,0,.34-.01.43-.04s.16-.08.2-.17c.04-.09.05-.22.05-.41v-2.94c0-.18-.02-.32-.05-.41s-.1-.16-.2-.19-.24-.05-.43-.05v-.21h3.7l.04,1.16h-.22c-.03-.23-.08-.41-.15-.53-.07-.12-.18-.2-.33-.24-.15-.04-.38-.06-.67-.06h-1.04v1.79h.82c.22,0,.38-.02.49-.06.11-.04.19-.11.23-.21.04-.1.06-.25.06-.44h.22v1.64h-.22c0-.19-.02-.34-.06-.43s-.12-.16-.23-.18c-.11-.03-.28-.04-.49-.04h-.82v1.94h.91c.27,0,.49-.01.66-.04.17-.03.3-.07.4-.14.1-.07.18-.17.24-.3s.13-.3.2-.51h.22l-.2,1.31h0Z"/>
          <path class="cls-1" d="M112.68,22.05h-.22l-.06-1.52h.22c.08.33.18.57.3.74s.25.29.42.35.37.1.61.1c.18,0,.33-.03.46-.07.13-.05.23-.13.3-.24.07-.11.11-.25.11-.43,0-.21-.06-.38-.17-.51-.12-.14-.26-.26-.44-.36-.18-.11-.36-.21-.56-.32-.19-.11-.37-.22-.54-.35s-.32-.27-.43-.44c-.11-.17-.17-.38-.17-.62s.06-.46.18-.62c.12-.17.28-.3.49-.38.2-.09.43-.13.67-.13.22,0,.38.02.5.05s.21.07.28.11c.07.04.13.06.19.06s.1-.02.14-.05c.04-.03.06-.08.08-.16h.18l.05,1.41h-.21c-.1-.39-.23-.68-.4-.87s-.43-.28-.78-.27c-.24,0-.43.06-.56.17s-.2.28-.2.5c0,.17.05.32.15.45s.23.24.39.34c.16.1.33.2.5.3.16.09.31.18.47.27.16.09.3.19.43.3s.23.24.31.4.12.33.12.54c0,.27-.06.5-.19.69s-.3.33-.51.43-.46.14-.73.14c-.24,0-.44-.02-.6-.05-.15-.04-.27-.07-.36-.11s-.16-.05-.21-.05c-.05,0-.09.02-.13.06s-.06.1-.06.17h0Z"/>
          <path class="cls-1" d="M119.73,21.95h-3.77v-.21c.19,0,.34-.01.43-.04s.16-.08.2-.17c.04-.09.05-.22.05-.41v-2.94c0-.18-.02-.32-.05-.41s-.1-.16-.2-.19-.24-.05-.43-.05v-.21h3.7l.04,1.16h-.22c-.03-.23-.08-.41-.15-.53-.07-.12-.18-.2-.33-.24-.15-.04-.38-.06-.67-.06h-1.04v1.79h.82c.22,0,.38-.02.49-.06.11-.04.19-.11.23-.21.04-.1.06-.25.06-.44h.22v1.64h-.22c0-.19-.02-.34-.06-.43s-.12-.16-.23-.18c-.11-.03-.28-.04-.49-.04h-.82v1.94h.91c.27,0,.49-.01.66-.04.17-.03.3-.07.4-.14.1-.07.18-.17.24-.3s.13-.3.2-.51h.22l-.2,1.31h0Z"/>
          <path class="cls-1" d="M122.41,21.95h-1.98v-.21c.18,0,.31-.02.4-.04s.15-.09.18-.18c.03-.09.05-.24.05-.44v-3.03c0-.13-.01-.23-.04-.31s-.08-.13-.17-.16c-.09-.03-.23-.05-.42-.05v-.21h1.74c.35,0,.67.03.94.1.27.07.49.19.65.35s.23.4.23.7c0,.26-.06.48-.18.64s-.27.29-.45.38c-.18.09-.37.16-.56.21v.03c.08.05.17.13.27.24.1.12.23.28.39.51.16.22.37.52.63.89.11.16.22.25.33.3.11.04.24.06.4.06v.21h-1.16c-.19-.29-.35-.53-.48-.73-.13-.19-.24-.36-.33-.49-.09-.13-.17-.25-.24-.36s-.14-.21-.21-.31c-.07-.11-.14-.17-.19-.2-.06-.02-.15-.04-.28-.04h-.2v1.25c0,.19.02.34.05.43.03.1.1.16.2.19.1.03.25.04.45.04v.21h0ZM121.71,19.55h.27c.26,0,.48-.05.68-.12.19-.07.34-.18.45-.33.11-.15.16-.35.16-.6,0-.28-.09-.5-.26-.67s-.45-.24-.83-.24c-.08,0-.15,0-.23,0-.08,0-.16,0-.23.02v1.94h0Z"/>
          <path class="cls-1" d="M126.98,21.98h-.28l-1.61-3.82c-.07-.16-.13-.28-.2-.38s-.14-.16-.22-.2c-.08-.04-.19-.06-.32-.06v-.21h1.89v.21c-.06,0-.13,0-.2.02s-.14.03-.19.07-.08.1-.08.19c0,.09.04.24.12.43l.85,2.09.27.74h.04l.25-.71.89-2.24c.02-.05.04-.11.06-.17.02-.06.02-.12.02-.18,0-.09-.04-.16-.11-.19-.08-.03-.19-.05-.36-.05v-.21h1.48v.21c-.1,0-.18.01-.25.03s-.13.06-.18.13c-.05.06-.11.16-.17.28s-.13.28-.22.48l-1.45,3.54h0Z"/>
          <path class="cls-1" d="M131.48,21.95h-2.03v-.21c.21,0,.37-.02.47-.05.1-.04.16-.1.19-.2.03-.1.04-.25.04-.45v-2.78c0-.18-.01-.33-.04-.43-.02-.11-.08-.18-.18-.22s-.26-.06-.48-.06v-.21h2.03v.21c-.22,0-.38.02-.48.06s-.16.12-.18.22-.03.25-.03.43v2.78c0,.2.02.35.04.45.03.1.09.17.19.2s.25.05.46.05v.21h0Z"/>
          <path class="cls-1" d="M134.29,22.03c-.48,0-.89-.1-1.22-.31s-.58-.49-.74-.85c-.17-.36-.25-.77-.25-1.23,0-.51.1-.95.3-1.3.2-.36.47-.63.82-.82.35-.19.75-.28,1.2-.28.25,0,.45.02.6.06s.27.08.36.13c.09.04.16.06.22.06s.1-.03.13-.07c.03-.05.07-.11.11-.18h.21v1.61h-.24c-.08-.46-.23-.79-.48-1s-.54-.31-.91-.31c-.51,0-.9.18-1.18.54-.27.36-.41.86-.41,1.49,0,.47.07.85.21,1.15.14.3.34.51.6.66.25.14.54.21.88.21s.61-.06.85-.18.47-.29.66-.5l.17.15c-.13.19-.28.36-.45.5-.18.15-.38.26-.62.35-.23.08-.51.13-.82.13h0Z"/>
          <path class="cls-1" d="M140.47,21.95h-3.77v-.21c.19,0,.34-.01.43-.04s.16-.08.2-.17c.04-.09.05-.22.05-.41v-2.94c0-.18-.02-.32-.05-.41s-.1-.16-.2-.19-.24-.05-.43-.05v-.21h3.7l.04,1.16h-.22c-.03-.23-.08-.41-.15-.53-.07-.12-.18-.2-.33-.24-.15-.04-.38-.06-.67-.06h-1.04v1.79h.82c.22,0,.38-.02.49-.06s.19-.11.23-.21c.04-.1.06-.25.06-.44h.22v1.64h-.22c0-.19-.02-.34-.06-.43s-.12-.16-.23-.18c-.11-.03-.28-.04-.49-.04h-.82v1.94h.91c.27,0,.49-.01.66-.04s.3-.07.4-.14c.1-.07.18-.17.24-.3s.13-.3.2-.51h.22l-.2,1.31h0Z"/>
          <path class="cls-1" d="M141.72,22.01c-.14,0-.24-.04-.31-.12-.07-.08-.1-.18-.1-.3s.04-.23.11-.31.18-.13.31-.13.24.05.32.13.11.19.11.32c0,.11-.04.2-.11.28-.08.08-.18.12-.33.12h0Z"/>
        </g>
      </g>
    </g>
  </g>
</svg>