<?xml version="1.0" encoding="UTF-8"?>
<svg id="Capa_2" data-name="Capa 2" xmlns="http://www.w3.org/2000/svg" viewBox="0 0 532.72 323.79">
  <defs>
    <style>
      .cls-1 {
        fill: #033398;
      }

      .cls-2 {
        fill: #04308a;
      }

      .cls-3 {
        fill: #fff;
      }

      .cls-4 {
        fill: #208704;
      }
    </style>
  </defs>
  <g id="Capa_2-2" data-name="Capa 2">
    <g id="Capa_1-2" data-name="Capa 1">
      <g>
        <g>
          <path class="cls-4" d="M.07,221.74l.57-4.02c11.78-.73,24.74,1,36.39,0,10.76-.93,23.47-5.71,34.32-7.52l83.26-80.12,74.18,80.43,56.12,10.65h-64.47l-65.91-72.77-71.07,68.19c-.56.32.52,1.15.58,1.15h94.85v4.01H.07Z"/>
          <path class="cls-4" d="M327.9,181.05l-55.61-77.36-64.16,73.11c-.67.55-.96.05-1.46-.3-3.3-2.27-6.15-7.37-9.3-10.05l74.08-86.25,67.65,88.83-11.19,12.02Z"/>
          <polygon class="cls-4" points="530.19 218.3 530.19 221.74 449.67 221.74 387.19 149.53 327.89 218.3 419.59 218.3 419.26 221.75 308.4 220.58 386.06 133.49 452.21 210.61 477.76 218.3 530.19 218.3"/>
          <path class="cls-1" d="M265.99,73.02l-16.04,15.19-1.07-61.82,17.7-5.01,20.9,16.39c.27,17.59,1.48,35.12.58,52.72l-2.61-3.69.04-37.16-5.17-3.27v35.53l-2.33-3.69.02-37.28c-.34-1.73-3.64-3.38-5.15-4.31v36.68l-2.33-3.69.02-38.99c-.3-1.6-2.96-3.43-4.57-3.74v46.13Z"/>
          <path class="cls-1" d="M321.01,117.43c-1,.25-1.15-.41-1.72-.86-1.63-1.25-4.06-3.64-5.74-5.15-6.6-5.97-12.99-12.25-19.48-18.35v-40.98l26.94,23.78v41.55ZM303.82,79.6c.75-5.12-.68-8.27-4.58-11.46.27,2.1-.46,5.11.11,7.05.16.54,2.48,2.92,3.16,3.68.34.39-.03,1.1,1.31.73ZM311.84,92.79c.76-5.12-.68-8.27-4.57-11.46-.56,5.07.12,8.61,4.57,11.46ZM314.12,99.1l-1.14.28c-.52,4.3.08,8.45,4.58,10.02,1.01-4.92-1.33-6.53-3.45-10.31Z"/>
          <polygon points="163.41 127.18 210.42 129.71 246.23 98.53 248.22 97.37 192.92 159.26 163.41 127.18"/>
          <polygon points="375.46 132.91 343.37 162.7 291.79 96.23 324.72 128.91 328.86 132.22 375.46 132.91"/>
          <path class="cls-1" d="M219,61.27l24,4.66.11.76c-.64,7.95.72,16.86-.02,24.69-.33,3.47-1.12,4.02-3.45,6.29-6.4,6.21-13.95,11.57-20.64,17.47v-53.87Z"/>
          <path class="cls-1" d="M213.84,120.01c-.24.74-6.8,6-8.59,4.29-.01-1.13,2.4-.62,2.79-1.22.41-.64.2-4.4-.77-4.48l-15.19,5.13c.09-1.14-.44-2.9.56-3.73,2.01-1.68,11.83-3.3,14.53-4.96,1.59-.97.83-2.79.95-4.49l-16.04,4.58c.02-.92-.21-2.05.27-2.87.68-1.14,13.28-4.68,15.43-5.66.82-.58.46-4.55-.51-4.62l-15.48,5.14c-.5,0-.38-1.17-.28-1.42.82-1.95,13.9-4.54,16.03-6.32,1.06-.88.44-2.8.57-4.01-.05-.59-.89-.27-1.32-.18-4.81,1.03-10.12,3.88-15.01,5.05-.51,0-.41-2.51-.22-3.08.45-1.32,14.21-5.37,16.49-6.15l.06-4.24c-.14-1.15-14.33,4.67-15.78,4.86s-1.02-2.25-.49-2.92l15.93-5.61c.82-.57.46-4.54-.51-4.62l-15.76,5.71.56-3.73,16.09-5.78c-.36-1.08.81-4.44-.88-4.23-2.24.29-15.19,5.77-15.78,5.15.15-1.33-.41-3.47.27-4.59.87-1.45,19.38-7.71,22.08-9.73v58.74Z"/>
          <path class="cls-1" d="M341.07,127.75h-10.32c.15-1.24-4.01-5.1-4.01-5.44v-23.21l14.33,9.46v19.2Z"/>
          <polygon points="278.6 177.03 278.6 194.51 277.74 195.37 263.41 195.37 262.55 194.51 262.55 177.03 278.6 177.03"/>
          <path d="M277.46,158.12c1.44,5.46,1.19,11.01,1.15,16.62h-16.05v-12.32c0-.81,1.22-3.12,1.15-4.3h13.75Z"/>
          <path d="M260.84,177.03v17.48c-1.91,1.4-6.75,1.38-8.6,0v-17.48h8.6Z"/>
          <path d="M288.92,177.03v17.48c-1.91,1.4-6.75,1.38-8.6,0v-17.48h8.6Z"/>
          <path d="M288.92,158.12v15.76c-2.15,1.78-5.88.48-8.6.86v-15.19c0-.18-.79-.82-.57-1.43h9.17Z"/>
          <path d="M260.84,158.12v15.76c-2.15,1.78-5.88.48-8.6.86v-16.62h8.6Z"/>
          <rect x="147.36" y="196.52" width="10.32" height="12.04"/>
          <rect x="377.18" y="196.52" width="10.32" height="12.04"/>
          <path d="M157.68,194.8h-10.32v-9.46c0-.16.89-1.56,1.15-1.72,1.46-.5,9.17-.83,9.17,1.15v10.03Z"/>
          <path d="M387.49,194.8h-10.32v-9.46c0-.16.89-1.56,1.15-1.72,1.46-.5,9.17-.83,9.17,1.15v10.03Z"/>
          <path d="M261.98,155.83h-9.17c.25-4.76,3.78-8.47,7.24-11.42l5.22,5.4-3.29,6.02Z"/>
          <path d="M280.72,145c2.43-.64,6.84,6.94,7.37,9.1.61,2.5-5.65,1.99-7.51,1.77-2.58-.31-3.06-4.06-4.8-5.97l4.95-4.89Z"/>
          <path d="M263.13,142.66c4.71-1.57,11.26-2.18,15.46.85l-4.97,4.78-6.79-.43-3.7-5.2Z"/>
          <rect x="370.3" y="196.52" width="5.16" height="12.04"/>
          <rect x="159.4" y="196.52" width="5.16" height="12.04"/>
          <rect x="140.48" y="196.52" width="5.16" height="12.04"/>
          <rect x="389.21" y="196.52" width="5.16" height="12.04"/>
          <path d="M394.37,183.34v11.46h-5.16c-.07-2.38.09-4.8.03-7.19-.04-1.4-1.35-3.65.35-4.19l4.78-.09Z"/>
          <polygon points="370.3 183.34 375.08 183.43 376 184.72 375.46 194.8 370.3 194.8 370.3 183.34"/>
          <path d="M164.55,183.34v11.46h-5.16c-.07-2.38.09-4.8.03-7.19-.04-1.4-1.35-3.65.35-4.19l4.78-.09Z"/>
          <polygon points="140.48 183.34 145.27 183.43 146.19 184.72 145.64 194.8 140.48 194.8 140.48 183.34"/>
          <path d="M146.7,182.1l-6.21.09c1.22-4.87,4.43-10.73,8.56-4.22l-2.34,4.13Z"/>
          <path d="M376.51,182.1l-6.21.09c1.22-4.87,4.43-10.73,8.56-4.22l-2.34,4.13Z"/>
          <path d="M394.37,182.19l-6.21-.09-2.37-3.63,4.02-3.5c1.62.31,5.24,6.61,4.56,7.22Z"/>
          <path d="M164.55,182.19l-6.21-.09-2.37-3.63,4.02-3.5c1.62.31,5.24,6.61,4.56,7.22Z"/>
          <path d="M275.74,155.83h-10.32c.91-6.12,9.44-6.07,10.32,0Z"/>
          <path d="M388.06,173.6c-1.51,4.37-9.58,4.86-10.33.29-.2-1.21.24-.7.81-.93,3.11-1.21,6.51-.39,9.51.64Z"/>
          <path d="M158.25,173.6c-1.51,4.37-9.58,4.86-10.33.29-.2-1.21.24-.7.81-.93,3.11-1.21,6.51-.39,9.51.64Z"/>
          <path d="M385.77,182.19c-1.8-.09-3.65.13-5.45,0-.85-.06-1.66.45-1.42-.85,1.91-3,6.08-2.85,6.87.85Z"/>
          <path class="cls-4" d="M106.66,168.74l-19.76,19.75c-8.13-12.73-20.31-36.48-18.27-65.9,3.42-49.36,45.44-94.27,105.66-110.81,20.28-6.61,57.77-15.86,104.3-9.81,38.6,5.02,67.88,18.54,85.4,28.36-17.98-7.94-48.29-18.64-87.17-19.84-43.47-1.35-77.46,9.79-96.31,17.56-48.44,20.34-81.24,58.72-82.63,100-.32,9.44.85,23.74,8.79,40.7Z"/>
          <path d="M155.95,182.19c-1.8-.09-3.65.13-5.45,0-.85-.06-1.66.45-1.42-.85,1.91-3,6.08-2.85,6.87.85Z"/>
        </g>
        <g>
          <path d="M4.78,250.46v34.13H0v-46.82h7.42l8.11,37.14,8.23-37.14h6.98v46.82h-5.15v-34.13l-7.23,34.13h-6.03l-7.54-34.13Z"/>
          <path d="M60.65,261.21c0,16.34-.31,24.2-12.7,24.2s-13.07-8.17-13.07-24.2.69-24.26,13.07-24.26,12.7,8.04,12.7,24.26ZM41.41,261.21c0,13.89.57,19.23,6.54,19.23s6.1-5.34,6.1-19.23-.19-19.36-6.1-19.36-6.54,5.59-6.54,19.36Z"/>
          <path d="M71.14,237.77v28.22c0,10.24.31,14.46,5.03,14.46s4.97-4.21,4.97-14.46v-28.22h6.29v33.31c0,8.99-1.32,14.33-11.25,14.33s-11.25-5.09-11.25-14.33v-33.31h6.22Z"/>
          <path d="M92.19,237.77h6.47l11.38,32.43v-32.43h5.34v46.82h-6.41l-11.44-32.37v32.37h-5.34v-46.82Z"/>
          <path d="M140.14,237.77v4.9h-7.98v41.92h-6.22v-41.92h-7.79v-4.9h22Z"/>
          <path d="M153.78,273.34h-8.74l-1.95,11.25h-5.91l9.3-46.82h6.6l9.43,46.82h-6.85l-1.89-11.25ZM145.48,268.38h7.73l-3.77-20.49-3.96,20.49Z"/>
          <path d="M171.81,237.77v46.82h-6.22v-46.82h6.22Z"/>
          <path d="M176.71,237.77h6.47l11.38,32.43v-32.43h5.34v46.82h-6.41l-11.44-32.37v32.37h-5.34v-46.82Z"/>
          <path d="M238.37,247.51l-4.97.69c-.25-4.09-.69-6.35-4.84-6.35s-5.03,2.39-5.03,6.22c0,4.84,2.26,6.98,5.66,8.92,5.03,2.89,9.99,5.47,9.99,15.84,0,8.04-3.08,12.57-11.63,12.57s-10.25-3.96-10.87-14.52l5.34-1.07c.38,7.92,1.38,10.62,5.53,10.62,4.46,0,5.34-2.64,5.34-7.86,0-6.1-2.45-8.23-6.66-10.81-4.46-2.64-8.67-6.1-8.67-13.89,0-6.66,2.51-10.94,10.94-10.94s9.62,4.65,9.87,10.56Z"/>
          <path d="M249.49,237.77v20.17h10.81v-20.17h6.22v46.82h-6.22v-21.75h-10.81v21.75h-6.29v-46.82h6.29Z"/>
          <path d="M277.77,237.77v46.82h-6.22v-46.82h6.22Z"/>
          <path d="M282.67,237.77h6.47l11.38,32.43v-32.43h5.34v46.82h-6.41l-11.44-32.37v32.37h-5.34v-46.82Z"/>
          <path d="M328.73,237.77v4.9h-11.75v14.77h9.87l-.44,4.97h-9.43v17.41h12.07v4.78h-18.29v-46.82h17.98Z"/>
          <path d="M352.17,261.21c0,13.89.38,19.23,5.91,19.23s5.53-3.02,5.78-12.19l6.22.5c-.75,11.31-1.01,16.66-12,16.66-12.07,0-12.44-8.17-12.44-24.2s.38-24.26,12.44-24.26c11.31,0,11.63,4.27,12,16.34l-6.1.82c-.25-10.37-.38-12.26-5.91-12.26s-5.91,5.59-5.91,19.36Z"/>
          <path d="M380.45,237.77v42.05h9.62v4.78h-15.9v-46.82h6.29Z"/>
          <path d="M411.37,237.77v4.9h-11.75v14.77h9.87l-.44,4.97h-9.43v17.41h12.07v4.78h-18.29v-46.82h17.98Z"/>
          <path d="M430.22,273.34h-8.74l-1.95,11.25h-5.91l9.3-46.82h6.6l9.43,46.82h-6.85l-1.89-11.25ZM421.93,268.38h7.73l-3.77-20.49-3.96,20.49Z"/>
          <path d="M441.91,237.77h6.47l11.38,32.43v-32.43h5.34v46.82h-6.41l-11.44-32.37v32.37h-5.34v-46.82Z"/>
          <path d="M476.22,237.77v46.82h-6.22v-46.82h6.22Z"/>
          <path d="M481.12,237.77h6.47l11.38,32.43v-32.43h5.34v46.82h-6.41l-11.44-32.37v32.37h-5.34v-46.82Z"/>
          <path d="M532.72,260.58v24.01h-4.59l-.57-4.46c-1.13,2.77-3.39,5.28-8.61,5.28-10.06,0-10.37-9.55-10.37-24.51s.31-23.95,12.51-23.95c10.94,0,11.19,4.21,11.63,14.64l-5.15,1.26c-.38-7.86-.57-10.94-6.22-10.94-6.16,0-6.47,6.35-6.47,18.98,0,11.75.31,19.55,5.53,19.55,3.65,0,6.1-2.64,6.47-6.35v-8.61h-5.84l.82-4.9h10.87Z"/>
        </g>
        <g>
          <path class="cls-1" d="M9.11,318.95H1.23v-.84c.73,0,1.27-.06,1.62-.2.35-.13.59-.39.7-.77s.17-.96.17-1.75v-12.02c0-.82-.17-1.35-.52-1.59-.35-.24-.96-.36-1.86-.36v-.84h6.96c.89,0,1.76.07,2.59.21.83.14,1.57.38,2.21.71s1.16.81,1.54,1.41c.38.61.57,1.38.57,2.31,0,1.08-.21,1.99-.62,2.73-.41.74-.96,1.33-1.66,1.78-.7.45-1.49.76-2.36.95-.88.19-1.77.28-2.68.28-.28,0-.58-.02-.89-.06-.32-.04-.55-.09-.7-.17v4.78c0,.76.08,1.33.24,1.71.16.37.44.62.85.73s.99.17,1.73.17v.84ZM7.8,309.81c1.01,0,1.85-.13,2.54-.38.69-.25,1.21-.68,1.57-1.29.35-.61.53-1.45.53-2.53,0-1.27-.37-2.24-1.1-2.92-.74-.68-1.86-1.02-3.37-1.02-.28,0-.56,0-.82.03-.27.02-.56.05-.85.08v7.91c.15.02.37.04.66.07.29.03.57.04.85.04Z"/>
          <path class="cls-1" d="M24.97,318.95h-7.86v-.84c.71,0,1.24-.06,1.59-.17s.59-.35.71-.73c.12-.37.18-.95.18-1.73v-11.99c0-.52-.05-.93-.15-1.23-.1-.3-.33-.51-.69-.64-.35-.13-.9-.2-1.65-.2v-.84h6.88c1.4,0,2.64.14,3.73.41,1.09.27,1.94.74,2.56,1.4.62.66.92,1.59.92,2.78,0,1.04-.24,1.89-.71,2.54-.48.65-1.07,1.16-1.79,1.52-.72.36-1.46.64-2.22.83v.11c.32.19.68.51,1.08.96.4.46.92,1.13,1.55,2.01.63.89,1.46,2.06,2.49,3.54.45.62.88,1.01,1.3,1.17.42.17.95.25,1.58.25v.84h-4.61c-.76-1.16-1.4-2.12-1.92-2.89-.51-.77-.95-1.43-1.3-1.96-.35-.53-.67-1-.95-1.41-.28-.41-.56-.82-.84-1.23-.28-.43-.54-.69-.77-.78-.23-.09-.6-.14-1.1-.14h-.78v4.95c0,.76.06,1.34.2,1.72.13.38.39.63.78.74.39.11.99.17,1.79.17v.84ZM22.2,309.45l1.06.03c1.02-.06,1.92-.22,2.68-.5.76-.28,1.36-.72,1.79-1.31.43-.6.64-1.39.64-2.38,0-1.12-.35-2-1.03-2.64s-1.79-.96-3.3-.96c-.3,0-.61,0-.92.01-.32,0-.62.03-.92.07v7.69Z"/>
          <path class="cls-1" d="M50.27,318.95h-14.93v-.84c.76,0,1.34-.05,1.72-.15.38-.1.64-.33.78-.69.14-.35.21-.89.21-1.62v-11.66c0-.71-.07-1.25-.21-1.62-.14-.37-.4-.62-.78-.75-.38-.13-.96-.2-1.72-.2v-.84h14.68l.17,4.59h-.9c-.13-.93-.33-1.64-.6-2.11-.27-.48-.71-.8-1.31-.96-.61-.17-1.49-.25-2.64-.25h-4.11v7.1h3.27c.86,0,1.51-.07,1.96-.22.45-.15.75-.43.92-.84.17-.41.25-.99.25-1.73h.9v6.49h-.9c0-.76-.08-1.33-.25-1.71-.17-.37-.48-.62-.92-.73s-1.1-.17-1.96-.17h-3.27v7.69h3.61c1.08,0,1.95-.05,2.61-.15.66-.1,1.18-.29,1.57-.57.38-.28.7-.68.95-1.2.25-.52.52-1.2.8-2.04h.89l-.78,5.2Z"/>
          <path class="cls-1" d="M59.19,318.95h-6.57v-.84c.76,0,1.33-.07,1.71-.21.37-.14.62-.44.75-.91s.2-1.17.2-2.12v-10.88c0-.71-.07-1.24-.2-1.61s-.38-.62-.74-.75-.92-.21-1.66-.21v-.84h5.7l5.9,14.06h.11l5.87-14.06h5.31v.84c-.65,0-1.16.07-1.51.21-.35.14-.6.39-.73.75-.13.36-.2.89-.2,1.58v11.66c0,.67.06,1.19.2,1.55.13.36.37.61.73.74.35.13.87.2,1.54.2v.84h-7.44v-.84c.73,0,1.27-.06,1.62-.2.35-.13.59-.38.7-.74.11-.36.17-.88.17-1.55v-12.05h-.11l-6.52,15.38h-.67l-6.6-15.35h-.11v11.27c0,.95.06,1.66.2,2.12.13.47.38.77.74.91.36.14.9.21,1.61.21v.84Z"/>
          <path class="cls-1" d="M85.86,318.95h-8.05v-.84c.84,0,1.45-.07,1.85-.21.39-.14.64-.41.75-.81.11-.4.17-1,.17-1.8v-11.02c0-.73-.05-1.3-.14-1.72-.09-.42-.33-.71-.71-.88-.38-.17-1.02-.25-1.92-.25v-.84h8.05v.84c-.88,0-1.51.08-1.9.25-.39.17-.63.46-.71.88-.08.42-.13.99-.13,1.72v11.02c0,.8.06,1.4.17,1.8.11.4.36.67.75.81.39.14,1,.21,1.82.21v.84Z"/>
          <path class="cls-1" d="M97.27,319.29c-2.48,0-4.29-.57-5.42-1.72-1.14-1.15-1.71-3.02-1.71-5.61v-8.08c0-.65-.07-1.16-.22-1.51-.15-.35-.42-.6-.81-.74-.39-.14-.96-.21-1.71-.21v-.84h8.05v.84c-.78,0-1.37.07-1.76.21-.39.14-.65.4-.78.77-.13.37-.2.91-.2,1.62v7.91c0,1.21.16,2.23.48,3.06.32.83.86,1.46,1.64,1.89s1.82.64,3.15.64c1.83,0,3.15-.43,3.96-1.3s1.22-2.26,1.22-4.18v-7.05c0-.99-.06-1.74-.17-2.25-.11-.51-.35-.86-.73-1.05-.37-.19-.95-.28-1.73-.28v-.84h6.85v.84c-.8,0-1.39.09-1.76.28-.37.19-.61.53-.71,1.02-.1.49-.15,1.23-.15,2.19v6.74c0,2.54-.58,4.44-1.75,5.72-1.17,1.28-3.07,1.92-5.72,1.92Z"/>
          <path class="cls-1" d="M115.22,318.95h-6.57v-.84c.76,0,1.33-.07,1.71-.21.37-.14.62-.44.75-.91s.2-1.17.2-2.12v-10.88c0-.71-.07-1.24-.2-1.61s-.38-.62-.74-.75-.92-.21-1.66-.21v-.84h5.7l5.9,14.06h.11l5.87-14.06h5.31v.84c-.65,0-1.16.07-1.51.21-.35.14-.6.39-.73.75-.13.36-.2.89-.2,1.58v11.66c0,.67.06,1.19.2,1.55.13.36.37.61.73.74.35.13.87.2,1.54.2v.84h-7.44v-.84c.73,0,1.27-.06,1.62-.2.35-.13.59-.38.7-.74.11-.36.17-.88.17-1.55v-12.05h-.11l-6.52,15.38h-.67l-6.6-15.35h-.11v11.27c0,.95.06,1.66.2,2.12.13.47.38.77.74.91.36.14.9.21,1.61.21v.84Z"/>
          <path class="cls-1" d="M151.85,318.98l-2.26.31c-1.79-.06-3.34-.47-4.64-1.23s-2.31-1.85-3.02-3.26c-.71-1.41-1.06-3.09-1.06-5.05s.36-3.56,1.08-4.99c.72-1.43,1.74-2.53,3.08-3.33,1.33-.79,2.92-1.19,4.77-1.19s3.46.39,4.78,1.16c1.32.77,2.34,1.85,3.05,3.24.71,1.39,1.06,3,1.06,4.82,0,1.68-.28,3.19-.84,4.53-.56,1.34-1.35,2.44-2.36,3.3-1.02.86-2.22,1.42-3.62,1.68ZM149.81,318.11c1.99,0,3.48-.72,4.46-2.15.98-1.44,1.47-3.56,1.47-6.38,0-1.68-.25-3.13-.75-4.35-.5-1.22-1.21-2.16-2.11-2.82-.9-.66-1.96-.99-3.17-.99-1.81,0-3.24.72-4.31,2.17-1.06,1.44-1.59,3.44-1.59,6s.5,4.71,1.5,6.24,2.5,2.29,4.52,2.29ZM159.43,323.79h-1.4c-1.55,0-2.84-.11-3.89-.32-1.04-.21-1.91-.57-2.6-1.06-.69-.49-1.29-1.16-1.79-2l-.9-1.54,3.44-.42v.5c.67.93,1.34,1.69,2,2.26.66.58,1.4,1,2.22,1.26.82.26,1.79.39,2.91.39v.92Z"/>
          <path class="cls-1" d="M170.5,319.29c-2.48,0-4.29-.57-5.42-1.72-1.14-1.15-1.71-3.02-1.71-5.61v-8.08c0-.65-.07-1.16-.22-1.51-.15-.35-.42-.6-.81-.74-.39-.14-.96-.21-1.71-.21v-.84h8.05v.84c-.78,0-1.37.07-1.76.21-.39.14-.65.4-.78.77-.13.37-.2.91-.2,1.62v7.91c0,1.21.16,2.23.48,3.06.32.83.86,1.46,1.64,1.89s1.82.64,3.15.64c1.83,0,3.15-.43,3.96-1.3s1.22-2.26,1.22-4.18v-7.05c0-.99-.06-1.74-.17-2.25-.11-.51-.35-.86-.73-1.05-.37-.19-.95-.28-1.73-.28v-.84h6.85v.84c-.8,0-1.39.09-1.76.28-.37.19-.61.53-.71,1.02-.1.49-.15,1.23-.15,2.19v6.74c0,2.54-.58,4.44-1.75,5.72-1.17,1.28-3.07,1.92-5.72,1.92Z"/>
          <path class="cls-1" d="M185.51,318.95h-5.87v-.84c.52,0,.94-.08,1.26-.25.32-.17.62-.51.92-1.02.3-.51.67-1.3,1.12-2.36l5.93-14.04h1.15l6.63,15.18c.41.91.81,1.56,1.19,1.93.38.37.95.56,1.69.56v.84h-7.52v-.84c.28,0,.57-.02.87-.06.3-.04.55-.13.75-.28.21-.15.31-.38.31-.7,0-.2-.03-.44-.1-.71-.07-.27-.19-.61-.38-1.02l-1.2-2.8-.2-.56-3.19-8.11h-.08l-3.27,8.11-.2.56-1.37,3.24c-.07.22-.14.44-.21.66-.07.21-.1.45-.1.71,0,.39.15.65.45.77.3.12.77.18,1.43.18v.84ZM192.67,312.83h-7.77l.42-1.12h6.93l.42,1.12Z"/>
          <path class="cls-1" d="M214.67,318.95h-13.87v-.84c.75,0,1.3-.06,1.66-.2.36-.13.6-.38.71-.75.11-.37.17-.92.17-1.65v-11.38c0-.73-.06-1.29-.17-1.68-.11-.39-.35-.66-.71-.81-.36-.15-.92-.22-1.66-.22v-.84h7.86v.84c-.75,0-1.32.08-1.72.24-.4.16-.67.43-.81.82-.14.39-.21.95-.21,1.68v12.13c0,.62.15,1.02.45,1.2.3.19.86.28,1.68.28h1.29c.93,0,1.69-.07,2.26-.21.58-.14,1.04-.38,1.38-.71.34-.34.63-.78.87-1.33.23-.55.49-1.23.77-2.03h.89l-.84,5.45Z"/>
          <path class="cls-1" d="M224.99,318.95h-8.05v-.84c.84,0,1.45-.07,1.85-.21.39-.14.64-.41.75-.81.11-.4.17-1,.17-1.8v-11.02c0-.73-.05-1.3-.14-1.72-.09-.42-.33-.71-.71-.88-.38-.17-1.02-.25-1.92-.25v-.84h8.05v.84c-.88,0-1.51.08-1.9.25-.39.17-.63.46-.71.88-.08.42-.13.99-.13,1.72v11.02c0,.8.06,1.4.17,1.8.11.4.36.67.75.81.39.14,1,.21,1.82.21v.84Z"/>
          <path class="cls-1" d="M238.47,318.95h-8.11v-.84c.78,0,1.37-.06,1.76-.18.39-.12.65-.38.78-.78.13-.4.2-1.02.2-1.86v-13.45h-1.79c-1.03,0-1.79.1-2.31.31-.51.21-.88.58-1.1,1.12s-.44,1.32-.64,2.35h-.87l.31-5.03h15.46l.22,5.03h-.87c-.21-1.02-.42-1.81-.64-2.35-.22-.54-.59-.91-1.09-1.12-.5-.2-1.28-.31-2.32-.31h-1.76v13.45c0,.84.06,1.46.2,1.86.13.4.39.66.78.78.39.12.99.18,1.79.18v.84Z"/>
          <path class="cls-1" d="M256.14,318.95h-8.28v-.84c.82,0,1.43-.06,1.83-.18.4-.12.66-.39.78-.8.12-.41.18-1.02.18-1.85v-4.05l-3.55-5.73c-.58-.95-1.07-1.7-1.48-2.24s-.78-.95-1.1-1.22c-.33-.27-.63-.44-.91-.52-.28-.07-.59-.11-.92-.11v-.84h7.52v.84c-.78,0-1.29.06-1.52.17s-.35.27-.35.48c0,.37.16.8.48,1.29l2.52,4.03,1.23,2.18h.17l3.69-6.29c.09-.15.17-.32.24-.5.07-.19.1-.38.1-.59,0-.26-.12-.45-.36-.57s-.72-.18-1.43-.18v-.84h6.1v.84c-.54.04-1,.13-1.38.28-.38.15-.75.41-1.09.78-.35.37-.75.94-1.22,1.71l-4.14,6.91v4.19c0,.82.08,1.43.24,1.83.16.4.45.67.87.8.42.13,1.02.2,1.8.2v.84Z"/>
          <path class="cls-1" d="M260.5,322.64l-.33-.7c.35-.15.71-.34,1.06-.57.35-.23.65-.57.89-1.02s.36-1.04.36-1.79c-.3.11-.59.17-.87.17-.54,0-.93-.15-1.17-.45-.24-.3-.36-.65-.36-1.06,0-.45.15-.83.45-1.16.3-.33.73-.49,1.29-.49.47,0,.86.1,1.17.29.32.2.56.48.73.84.17.36.25.81.25,1.33,0,.78-.12,1.44-.38,1.99-.25.54-.56.98-.94,1.31-.37.34-.75.61-1.15.81-.39.21-.73.37-1.01.5Z"/>
          <path class="cls-1" d="M281.02,318.95h-7.86v-.84c.71,0,1.24-.06,1.59-.17.35-.11.59-.35.71-.73.12-.37.18-.95.18-1.73v-11.99c0-.52-.05-.93-.15-1.23-.1-.3-.33-.51-.69-.64-.35-.13-.9-.2-1.65-.2v-.84h6.88c1.4,0,2.64.14,3.73.41,1.09.27,1.94.74,2.56,1.4.62.66.92,1.59.92,2.78,0,1.04-.24,1.89-.71,2.54s-1.07,1.16-1.79,1.52c-.72.36-1.46.64-2.22.83v.11c.32.19.67.51,1.08.96.4.46.92,1.13,1.55,2.01.63.89,1.46,2.06,2.49,3.54.45.62.88,1.01,1.3,1.17.42.17.95.25,1.58.25v.84h-4.61c-.76-1.16-1.4-2.12-1.92-2.89-.51-.77-.95-1.43-1.3-1.96-.35-.53-.67-1-.95-1.41-.28-.41-.56-.82-.84-1.23-.28-.43-.54-.69-.77-.78-.23-.09-.6-.14-1.1-.14h-.78v4.95c0,.76.07,1.34.2,1.72.13.38.39.63.78.74s.99.17,1.79.17v.84ZM278.25,309.45l1.06.03c1.03-.06,1.92-.22,2.68-.5.76-.28,1.36-.72,1.79-1.31.43-.6.64-1.39.64-2.38,0-1.12-.35-2-1.04-2.64s-1.79-.96-3.3-.96c-.3,0-.61,0-.92.01-.32,0-.62.03-.92.07v7.69Z"/>
          <path class="cls-1" d="M306.33,318.95h-14.93v-.84c.76,0,1.34-.05,1.72-.15.38-.1.64-.33.78-.69.14-.35.21-.89.21-1.62v-11.66c0-.71-.07-1.25-.21-1.62-.14-.37-.4-.62-.78-.75-.38-.13-.96-.2-1.72-.2v-.84h14.68l.17,4.59h-.89c-.13-.93-.33-1.64-.6-2.11-.27-.48-.71-.8-1.31-.96-.61-.17-1.49-.25-2.64-.25h-4.11v7.1h3.27c.86,0,1.51-.07,1.96-.22.45-.15.75-.43.92-.84.17-.41.25-.99.25-1.73h.89v6.49h-.89c0-.76-.08-1.33-.25-1.71s-.48-.62-.92-.73-1.1-.17-1.96-.17h-3.27v7.69h3.61c1.08,0,1.95-.05,2.61-.15.66-.1,1.18-.29,1.57-.57.38-.28.7-.68.95-1.2.25-.52.52-1.2.8-2.04h.89l-.78,5.2Z"/>
          <path class="cls-1" d="M322.94,318.95h-13.87v-.84c.75,0,1.3-.06,1.66-.2.36-.13.6-.38.71-.75.11-.37.17-.92.17-1.65v-11.38c0-.73-.06-1.29-.17-1.68-.11-.39-.35-.66-.71-.81s-.92-.22-1.66-.22v-.84h7.86v.84c-.75,0-1.32.08-1.72.24-.4.16-.67.43-.81.82-.14.39-.21.95-.21,1.68v12.13c0,.62.15,1.02.45,1.2.3.19.86.28,1.68.28h1.29c.93,0,1.69-.07,2.26-.21.58-.14,1.04-.38,1.38-.71s.63-.78.87-1.33c.23-.55.49-1.23.77-2.03h.9l-.84,5.45Z"/>
          <path class="cls-1" d="M333.25,318.95h-8.05v-.84c.84,0,1.45-.07,1.85-.21.39-.14.64-.41.75-.81.11-.4.17-1,.17-1.8v-11.02c0-.73-.05-1.3-.14-1.72-.09-.42-.33-.71-.71-.88-.38-.17-1.02-.25-1.92-.25v-.84h8.05v.84c-.88,0-1.51.08-1.9.25-.39.17-.63.46-.71.88s-.13.99-.13,1.72v11.02c0,.8.06,1.4.17,1.8.11.4.36.67.75.81.39.14,1,.21,1.82.21v.84Z"/>
          <path class="cls-1" d="M340.19,318.95h-5.87v-.84c.52,0,.94-.08,1.26-.25.32-.17.62-.51.92-1.02s.67-1.3,1.12-2.36l5.93-14.04h1.15l6.63,15.18c.41.91.81,1.56,1.19,1.93.38.37.95.56,1.69.56v.84h-7.52v-.84c.28,0,.57-.02.87-.06.3-.04.55-.13.75-.28.21-.15.31-.38.31-.7,0-.2-.03-.44-.1-.71-.07-.27-.19-.61-.38-1.02l-1.2-2.8-.2-.56-3.19-8.11h-.08l-3.27,8.11-.2.56-1.37,3.24c-.07.22-.14.44-.21.66-.07.21-.1.45-.1.71,0,.39.15.65.45.77.3.12.77.18,1.43.18v.84ZM347.34,312.83h-7.77l.42-1.12h6.93l.42,1.12Z"/>
          <path class="cls-1" d="M363.92,318.95h-8.61v-.84c.76,0,1.34-.06,1.72-.2.38-.13.64-.39.78-.78s.21-.97.21-1.73v-11.44c0-.75-.07-1.3-.21-1.66-.14-.36-.4-.6-.78-.71-.38-.11-.96-.17-1.72-.17v-.84h7.55c1.66,0,2.99.17,4,.52,1.01.35,1.73.84,2.18,1.48s.67,1.43.67,2.36c0,1.25-.37,2.19-1.12,2.81-.75.62-1.7,1.1-2.85,1.41v.11c.8.13,1.57.37,2.31.73.74.35,1.35.85,1.83,1.5.48.64.73,1.48.73,2.5,0,1.58-.59,2.81-1.78,3.66s-2.82,1.29-4.91,1.29ZM360.6,301.76v7.07h1.9c1.7,0,2.86-.29,3.5-.88.63-.59.95-1.51.95-2.78,0-1.1-.35-1.96-1.05-2.57-.7-.62-1.91-.92-3.62-.92-.26,0-.54,0-.83.01-.29,0-.57.03-.85.07ZM362.61,317.92c.6,0,1.19-.04,1.79-.11.6-.07,1.14-.24,1.64-.49.49-.25.89-.63,1.19-1.15.3-.51.45-1.22.45-2.11,0-1.06-.25-1.89-.74-2.47-.49-.59-1.13-1-1.9-1.23-.77-.23-1.6-.35-2.47-.35h-1.96v7.83c.34.02.67.04,1.01.06.33.02.67.03,1.01.03Z"/>
          <path class="cls-1" d="M386.63,318.95h-13.87v-.84c.75,0,1.3-.06,1.66-.2.36-.13.6-.38.71-.75.11-.37.17-.92.17-1.65v-11.38c0-.73-.06-1.29-.17-1.68-.11-.39-.35-.66-.71-.81s-.92-.22-1.66-.22v-.84h7.86v.84c-.75,0-1.32.08-1.72.24-.4.16-.67.43-.81.82-.14.39-.21.95-.21,1.68v12.13c0,.62.15,1.02.45,1.2.3.19.86.28,1.68.28h1.29c.93,0,1.69-.07,2.26-.21.58-.14,1.04-.38,1.38-.71s.63-.78.87-1.33c.23-.55.49-1.23.77-2.03h.9l-.84,5.45Z"/>
          <path class="cls-1" d="M403.88,318.95h-14.93v-.84c.76,0,1.34-.05,1.72-.15.38-.1.64-.33.78-.69.14-.35.21-.89.21-1.62v-11.66c0-.71-.07-1.25-.21-1.62-.14-.37-.4-.62-.78-.75-.38-.13-.96-.2-1.72-.2v-.84h14.68l.17,4.59h-.89c-.13-.93-.33-1.64-.6-2.11-.27-.48-.71-.8-1.31-.96-.61-.17-1.49-.25-2.64-.25h-4.11v7.1h3.27c.86,0,1.51-.07,1.96-.22.45-.15.75-.43.92-.84.17-.41.25-.99.25-1.73h.89v6.49h-.89c0-.76-.08-1.33-.25-1.71s-.48-.62-.92-.73-1.1-.17-1.96-.17h-3.27v7.69h3.61c1.08,0,1.95-.05,2.61-.15.66-.1,1.18-.29,1.57-.57.38-.28.7-.68.95-1.2.25-.52.52-1.2.8-2.04h.89l-.78,5.2Z"/>
          <path class="cls-1" d="M414.11,319.37h-.87l-.25-6.04h.87c.33,1.29.73,2.27,1.17,2.95.45.68,1,1.15,1.66,1.4.66.25,1.47.38,2.42.38.71,0,1.31-.1,1.82-.29.5-.2.9-.51,1.17-.95.28-.44.42-1.01.42-1.72,0-.82-.23-1.5-.68-2.04-.46-.54-1.04-1.02-1.75-1.44-.71-.42-1.44-.84-2.21-1.27-.75-.43-1.46-.89-2.15-1.37-.69-.48-1.25-1.06-1.69-1.73-.44-.67-.66-1.49-.66-2.46s.24-1.81.73-2.47c.48-.66,1.13-1.17,1.93-1.52.8-.35,1.69-.53,2.66-.53.86,0,1.52.07,1.99.21.47.14.83.28,1.1.43.27.15.52.22.74.22s.41-.06.55-.18c.14-.12.25-.33.32-.63h.73l.2,5.59h-.84c-.39-1.55-.91-2.69-1.57-3.44-.65-.75-1.69-1.11-3.1-1.09-.95,0-1.69.22-2.21.66-.52.44-.78,1.1-.78,1.97,0,.69.2,1.28.59,1.78.39.49.9.94,1.54,1.33.63.39,1.29.79,1.99,1.2.62.35,1.23.71,1.86,1.06.62.35,1.19.75,1.71,1.2s.92.97,1.23,1.57c.31.6.46,1.31.46,2.15,0,1.08-.25,1.99-.74,2.74-.49.75-1.17,1.31-2.03,1.69s-1.83.57-2.91.57c-.97,0-1.76-.07-2.36-.21-.61-.14-1.08-.28-1.43-.42-.35-.14-.63-.21-.85-.21-.19,0-.35.08-.5.25-.15.17-.23.39-.25.67Z"/>
          <path class="cls-1" d="M442.04,318.95h-14.93v-.84c.76,0,1.34-.05,1.72-.15.38-.1.64-.33.78-.69.14-.35.21-.89.21-1.62v-11.66c0-.71-.07-1.25-.21-1.62-.14-.37-.4-.62-.78-.75-.38-.13-.96-.2-1.72-.2v-.84h14.68l.17,4.59h-.89c-.13-.93-.33-1.64-.6-2.11-.27-.48-.71-.8-1.31-.96-.61-.17-1.49-.25-2.64-.25h-4.11v7.1h3.27c.86,0,1.51-.07,1.96-.22.45-.15.75-.43.92-.84.17-.41.25-.99.25-1.73h.89v6.49h-.89c0-.76-.08-1.33-.25-1.71s-.48-.62-.92-.73-1.1-.17-1.96-.17h-3.27v7.69h3.61c1.08,0,1.95-.05,2.61-.15.66-.1,1.18-.29,1.57-.57.38-.28.7-.68.95-1.2.25-.52.52-1.2.8-2.04h.89l-.78,5.2Z"/>
          <path class="cls-1" d="M452.67,318.95h-7.86v-.84c.71,0,1.24-.06,1.59-.17.35-.11.59-.35.71-.73.12-.37.18-.95.18-1.73v-11.99c0-.52-.05-.93-.15-1.23-.1-.3-.33-.51-.69-.64-.35-.13-.9-.2-1.65-.2v-.84h6.88c1.4,0,2.64.14,3.73.41,1.09.27,1.94.74,2.56,1.4.62.66.92,1.59.92,2.78,0,1.04-.24,1.89-.71,2.54s-1.07,1.16-1.79,1.52c-.72.36-1.46.64-2.22.83v.11c.32.19.67.51,1.08.96.4.46.92,1.13,1.55,2.01.63.89,1.46,2.06,2.49,3.54.45.62.88,1.01,1.3,1.17.42.17.95.25,1.58.25v.84h-4.61c-.76-1.16-1.4-2.12-1.92-2.89-.51-.77-.95-1.43-1.3-1.96-.35-.53-.67-1-.95-1.41-.28-.41-.56-.82-.84-1.23-.28-.43-.54-.69-.77-.78-.23-.09-.6-.14-1.1-.14h-.78v4.95c0,.76.07,1.34.2,1.72.13.38.39.63.78.74s.99.17,1.79.17v.84ZM449.9,309.45l1.06.03c1.03-.06,1.92-.22,2.68-.5.76-.28,1.36-.72,1.79-1.31.43-.6.64-1.39.64-2.38,0-1.12-.35-2-1.04-2.64s-1.79-.96-3.3-.96c-.3,0-.61,0-.92.01-.32,0-.62.03-.92.07v7.69Z"/>
          <path class="cls-1" d="M470.81,319.09h-1.12l-6.4-15.13c-.26-.63-.52-1.13-.78-1.5-.26-.36-.56-.63-.89-.8-.33-.17-.75-.25-1.26-.25v-.84h7.49v.84c-.24,0-.51.02-.81.06-.3.04-.56.13-.77.27s-.32.39-.32.74c0,.37.16.94.48,1.71l3.38,8.3,1.09,2.94h.14l.98-2.8,3.52-8.89c.09-.2.17-.42.22-.66.06-.23.08-.47.08-.71,0-.37-.15-.62-.45-.75-.3-.13-.77-.2-1.43-.2v-.84h5.87v.84c-.39,0-.72.04-.99.13s-.51.25-.73.5c-.21.25-.44.62-.69,1.1-.24.48-.53,1.12-.87,1.9l-5.76,14.04Z"/>
          <path class="cls-1" d="M488.65,318.95h-8.05v-.84c.84,0,1.45-.07,1.85-.21.39-.14.64-.41.75-.81.11-.4.17-1,.17-1.8v-11.02c0-.73-.05-1.3-.14-1.72-.09-.42-.33-.71-.71-.88-.38-.17-1.02-.25-1.92-.25v-.84h8.05v.84c-.88,0-1.51.08-1.9.25-.39.17-.63.46-.71.88s-.13.99-.13,1.72v11.02c0,.8.06,1.4.17,1.8.11.4.36.67.75.81.39.14,1,.21,1.82.21v.84Z"/>
          <path class="cls-1" d="M499.81,319.26c-1.92,0-3.53-.41-4.84-1.23-1.31-.82-2.29-1.95-2.95-3.38-.66-1.44-.99-3.06-.99-4.87,0-2.03.39-3.76,1.17-5.17.78-1.42,1.86-2.5,3.24-3.24,1.38-.75,2.96-1.12,4.75-1.12.99,0,1.78.08,2.38.25.6.17,1.07.34,1.43.5.35.17.64.25.87.25s.4-.1.52-.29c.12-.2.27-.43.43-.71h.84v6.4h-.95c-.3-1.83-.93-3.15-1.89-3.97-.96-.82-2.16-1.23-3.59-1.23-2.01,0-3.56.72-4.66,2.15-1.09,1.44-1.64,3.4-1.64,5.9,0,1.86.28,3.38.85,4.56s1.36,2.04,2.36,2.6c1.01.56,2.16.84,3.47.84s2.41-.24,3.38-.71c.97-.48,1.85-1.14,2.63-2l.67.59c-.5.75-1.1,1.41-1.8,2-.7.59-1.51,1.05-2.45,1.38-.93.34-2.01.5-3.24.5Z"/>
          <path class="cls-1" d="M524.3,318.95h-14.93v-.84c.76,0,1.34-.05,1.72-.15.38-.1.64-.33.78-.69.14-.35.21-.89.21-1.62v-11.66c0-.71-.07-1.25-.21-1.62-.14-.37-.4-.62-.78-.75-.38-.13-.96-.2-1.72-.2v-.84h14.68l.17,4.59h-.89c-.13-.93-.33-1.64-.6-2.11-.27-.48-.71-.8-1.31-.96-.61-.17-1.49-.25-2.64-.25h-4.11v7.1h3.27c.86,0,1.51-.07,1.96-.22.45-.15.75-.43.92-.84.17-.41.25-.99.25-1.73h.89v6.49h-.89c0-.76-.08-1.33-.25-1.71s-.48-.62-.92-.73-1.1-.17-1.96-.17h-3.27v7.69h3.61c1.08,0,1.95-.05,2.61-.15.66-.1,1.18-.29,1.57-.57.38-.28.7-.68.95-1.2.25-.52.52-1.2.8-2.04h.89l-.78,5.2Z"/>
          <path class="cls-1" d="M529.25,319.18c-.56,0-.97-.16-1.24-.48-.27-.32-.41-.71-.41-1.17s.15-.9.45-1.24c.3-.34.71-.52,1.23-.52s.96.18,1.26.53c.3.35.45.77.45,1.26,0,.43-.15.81-.45,1.13-.3.33-.73.49-1.29.49Z"/>
        </g>
        <g>
          <path class="cls-2" d="M353.97,40.1c-.89,9.22-1.62,10.19-8.48,11.39,6.87,1.2,7.59,2.17,8.48,11.39.89-9.22,1.62-10.19,8.48-11.39-6.87-1.2-7.59-2.17-8.48-11.39Z"/>
          <path class="cls-2" d="M435.15,152.46c-.89,9.22-1.62,10.19-8.48,11.39,6.87,1.2,7.59,2.17,8.48,11.39.89-9.22,1.62-10.19,8.48-11.39-6.87-1.2-7.59-2.17-8.48-11.39Z"/>
          <path class="cls-2" d="M468.7,166.75c-1.48,15.27-2.68,16.88-14.05,18.87,11.37,1.98,12.57,3.59,14.05,18.87,1.48-15.27,2.68-16.88,14.05-18.87-11.37-1.98-12.57-3.59-14.05-18.87Z"/>
          <path class="cls-2" d="M161.32,42.04c-1.68,17.39-3.05,19.22-15.99,21.48,12.95,2.26,14.31,4.09,15.99,21.48,1.68-17.39,3.05-19.22,15.99-21.48-12.95-2.26-14.31-4.09-15.99-21.48Z"/>
          <g>
            <path class="cls-3" d="M112.6,69.66c-.3,5.24-.95,10.67-1.67,15.87-1.6,11.2-4.18,21.87-16.18,25.82-5.09,1.85-10.39,2.82-15.65,3.81v-.99c21.33,3.55,29.1,6.85,32.34,29.55.84,5.31,1.4,10.64,1.95,15.97,0,0-1.59,0-1.59,0,.51-5.33,1.03-10.66,1.83-15.99,1.26-7.81,2.77-16.9,9.35-22.28,6.58-5.11,15.19-6.17,23.04-7.75,0,0,0,1.97,0,1.97-5.26-1.03-10.57-2.04-15.69-3.95-12.09-4.08-14.66-14.86-16.17-26.15-.68-5.21-1.29-10.63-1.55-15.88h0ZM112.6,69.46c.78,5.22,1.28,10.79,2.19,15.99,1.39,7.62,2.86,16.16,9.19,21.22,6.41,4.75,14.68,5.59,22.38,7.01,0,0,5.74.95,5.74.95l-5.74,1.02c-7.66,1.5-15.9,2.42-22.21,7.21-6.2,5.09-7.52,13.5-8.83,21.1-.82,5.25-1.37,10.57-1.91,15.88,0,0-1.59,0-1.59,0-.5-5.32-1.01-10.64-1.79-15.9-1.25-7.64-2.54-16.14-8.76-21.32-6.33-4.89-14.64-5.9-22.32-7.46,0,0-2.74-.51-2.74-.51l2.74-.48c7.72-1.48,16.07-2.4,22.49-7.26,6.35-5.15,7.78-13.78,9.11-21.45.87-5.21,1.32-10.77,2.07-16.01h0Z"/>
            <path class="cls-2" d="M112.6,69.56c-3.53,36.51-6.4,40.36-33.58,45.1,27.19,4.74,30.05,8.59,33.58,45.1,3.53-36.51,6.4-40.36,33.58-45.1-27.19-4.74-30.05-8.59-33.58-45.1Z"/>
          </g>
          <path class="cls-2" d="M52.4,146.98c-1.16,11.96-2.1,13.22-11,14.78,8.91,1.55,9.84,2.81,11,14.78,1.16-11.96,2.1-13.22,11-14.78-8.91-1.55-9.84-2.81-11-14.78Z"/>
          <path class="cls-2" d="M17.83,166.75c-1.47,15.16-2.66,16.76-13.95,18.73,11.29,1.97,12.48,3.57,13.95,18.73,1.47-15.16,2.66-16.76,13.95-18.73-11.29-1.97-12.48-3.57-13.95-18.73Z"/>
        </g>
      </g>
    </g>
  </g>
</svg>