<?xml version="1.0" encoding="UTF-8"?>
<svg id="Capa_2" data-name="Capa 2" xmlns="http://www.w3.org/2000/svg" viewBox="0 0 532.72 86.84">
  <defs>
    <style>
      .cls-1 {
        fill: #fff;
      }
    </style>
  </defs>
  <g id="Capa_2-2" data-name="Capa 2">
    <g id="Capa_1-2" data-name="Capa 1">
      <g id="mob-object">
        <g>
          <path class="cls-1" d="M4.78,13.51v34.13H0V.82h7.42l8.11,37.14L23.76.82h6.98v46.82h-5.15V13.51l-7.23,34.13h-6.03L4.78,13.51Z"/>
          <path class="cls-1" d="M60.65,24.26c0,16.34-.31,24.2-12.7,24.2s-13.07-8.17-13.07-24.2S35.57,0,47.95,0s12.7,8.04,12.7,24.26ZM41.41,24.26c0,13.89.57,19.23,6.54,19.23s6.1-5.34,6.1-19.23-.19-19.36-6.1-19.36-6.54,5.59-6.54,19.36Z"/>
          <path class="cls-1" d="M71.14.82v28.22c0,10.24.31,14.46,5.03,14.46s4.96-4.21,4.96-14.46V.82h6.29v33.31c0,8.99-1.32,14.33-11.25,14.33s-11.25-5.09-11.25-14.33V.82h6.22Z"/>
          <path class="cls-1" d="M92.19.82h6.47l11.38,32.43V.82h5.34v46.82h-6.41l-11.44-32.37v32.37h-5.34V.82Z"/>
          <path class="cls-1" d="M140.14.82v4.9h-7.98v41.92h-6.22V5.72h-7.79V.82h22Z"/>
          <path class="cls-1" d="M153.78,36.39h-8.74l-1.95,11.25h-5.91L146.49.82h6.6l9.43,46.82h-6.85l-1.89-11.25ZM145.48,31.43h7.73l-3.77-20.49-3.96,20.49Z"/>
          <path class="cls-1" d="M171.81.82v46.82h-6.22V.82h6.22Z"/>
          <path class="cls-1" d="M176.71.82h6.47l11.38,32.43V.82h5.34v46.82h-6.41l-11.44-32.37v32.37h-5.34V.82Z"/>
          <path class="cls-1" d="M238.37,10.56l-4.97.69c-.25-4.09-.69-6.35-4.84-6.35s-5.03,2.39-5.03,6.22c0,4.84,2.26,6.98,5.66,8.92,5.03,2.89,9.99,5.47,9.99,15.84,0,8.04-3.08,12.57-11.63,12.57s-10.25-3.96-10.87-14.52l5.34-1.07c.38,7.92,1.38,10.62,5.53,10.62,4.46,0,5.34-2.64,5.34-7.86,0-6.1-2.45-8.23-6.66-10.81-4.46-2.64-8.67-6.1-8.67-13.89,0-6.66,2.51-10.94,10.94-10.94s9.62,4.65,9.87,10.56Z"/>
          <path class="cls-1" d="M249.49.82v20.17h10.81V.82h6.22v46.82h-6.22v-21.75h-10.81v21.75h-6.29V.82h6.29Z"/>
          <path class="cls-1" d="M277.77.82v46.82h-6.22V.82h6.22Z"/>
          <path class="cls-1" d="M282.67.82h6.47l11.38,32.43V.82h5.34v46.82h-6.41l-11.44-32.37v32.37h-5.34V.82Z"/>
          <path class="cls-1" d="M328.73.82v4.9h-11.75v14.77h9.87l-.44,4.97h-9.43v17.41h12.07v4.78h-18.29V.82h17.98Z"/>
          <path class="cls-1" d="M352.17,24.26c0,13.89.38,19.23,5.91,19.23s5.53-3.02,5.78-12.19l6.22.5c-.75,11.31-1.01,16.66-12,16.66-12.07,0-12.44-8.17-12.44-24.2s.38-24.26,12.44-24.26c11.31,0,11.63,4.27,12,16.34l-6.1.82c-.25-10.37-.38-12.26-5.91-12.26s-5.91,5.59-5.91,19.36Z"/>
          <path class="cls-1" d="M380.45.82v42.05h9.62v4.78h-15.9V.82h6.29Z"/>
          <path class="cls-1" d="M411.37.82v4.9h-11.75v14.77h9.87l-.44,4.97h-9.43v17.41h12.07v4.78h-18.29V.82h17.98Z"/>
          <path class="cls-1" d="M430.22,36.39h-8.74l-1.95,11.25h-5.91L422.93.82h6.6l9.43,46.82h-6.85l-1.89-11.25ZM421.93,31.43h7.73l-3.77-20.49-3.96,20.49Z"/>
          <path class="cls-1" d="M441.91.82h6.47l11.38,32.43V.82h5.34v46.82h-6.41l-11.44-32.37v32.37h-5.34V.82Z"/>
          <path class="cls-1" d="M476.22.82v46.82h-6.22V.82h6.22Z"/>
          <path class="cls-1" d="M481.12.82h6.47l11.38,32.43V.82h5.34v46.82h-6.41l-11.44-32.37v32.37h-5.34V.82Z"/>
          <path class="cls-1" d="M532.72,23.63v24.01h-4.59l-.57-4.46c-1.13,2.77-3.39,5.28-8.61,5.28-10.06,0-10.37-9.55-10.37-24.51s.31-23.95,12.51-23.95c10.94,0,11.19,4.21,11.63,14.64l-5.15,1.26c-.38-7.86-.57-10.94-6.22-10.94-6.16,0-6.47,6.35-6.47,18.98,0,11.75.31,19.55,5.53,19.55,3.65,0,6.1-2.64,6.47-6.35v-8.61h-5.84l.82-4.9h10.87Z"/>
        </g>
        <g>
          <path class="cls-1" d="M9.11,82H1.23v-.84c.73,0,1.27-.06,1.62-.2.35-.13.59-.39.7-.77.11-.38.17-.96.17-1.75v-12.02c0-.82-.17-1.35-.52-1.59-.35-.24-.96-.36-1.86-.36v-.84h6.96c.89,0,1.76.07,2.59.21s1.57.38,2.21.71c.64.34,1.16.81,1.54,1.41.38.61.57,1.38.57,2.31,0,1.08-.21,1.99-.62,2.73-.41.74-.96,1.33-1.66,1.78s-1.49.76-2.36.95c-.88.19-1.77.28-2.68.28-.28,0-.58-.02-.89-.06-.32-.04-.55-.09-.7-.17v4.78c0,.76.08,1.33.24,1.71.16.37.44.62.85.73.41.11.99.17,1.73.17v.84ZM7.8,72.86c1.01,0,1.85-.13,2.54-.38.69-.25,1.21-.68,1.57-1.29.35-.61.53-1.45.53-2.53,0-1.27-.37-2.24-1.1-2.92-.74-.68-1.86-1.02-3.37-1.02-.28,0-.55,0-.82.03-.27.02-.56.05-.85.08v7.91c.15.02.37.04.66.07s.57.04.85.04Z"/>
          <path class="cls-1" d="M24.97,82h-7.86v-.84c.71,0,1.24-.06,1.59-.17.35-.11.59-.35.71-.73.12-.37.18-.95.18-1.73v-12c0-.52-.05-.93-.15-1.23-.1-.3-.33-.51-.69-.64-.35-.13-.9-.2-1.65-.2v-.84h6.88c1.4,0,2.64.13,3.73.41,1.09.27,1.94.74,2.56,1.4.62.66.92,1.59.92,2.78,0,1.04-.24,1.89-.71,2.54s-1.07,1.16-1.79,1.52c-.72.36-1.46.64-2.22.83v.11c.32.19.68.51,1.08.96.4.46.92,1.13,1.55,2.01.63.89,1.46,2.07,2.49,3.54.45.62.88,1.01,1.3,1.17.42.17.95.25,1.58.25v.84h-4.61c-.76-1.16-1.4-2.12-1.92-2.89s-.95-1.43-1.3-1.96c-.35-.53-.67-1-.95-1.41-.28-.41-.56-.82-.84-1.23-.28-.43-.54-.69-.77-.78-.23-.09-.6-.14-1.1-.14h-.78v4.95c0,.76.06,1.34.2,1.72s.39.63.78.74c.39.11.99.17,1.79.17v.84ZM22.2,72.5l1.06.03c1.02-.06,1.92-.22,2.68-.5s1.36-.72,1.79-1.31c.43-.6.64-1.39.64-2.38,0-1.12-.34-2-1.03-2.64-.69-.64-1.79-.96-3.3-.96-.3,0-.61,0-.92.01-.32,0-.62.03-.92.07v7.69Z"/>
          <path class="cls-1" d="M50.27,82h-14.93v-.84c.76,0,1.34-.05,1.72-.15s.64-.33.78-.69c.14-.35.21-.89.21-1.62v-11.66c0-.71-.07-1.25-.21-1.62s-.4-.62-.78-.75c-.38-.13-.96-.2-1.72-.2v-.84h14.68l.17,4.58h-.9c-.13-.93-.33-1.64-.6-2.11-.27-.47-.71-.8-1.31-.96-.61-.17-1.49-.25-2.64-.25h-4.11v7.1h3.27c.86,0,1.51-.07,1.96-.22.45-.15.75-.43.92-.84.17-.41.25-.99.25-1.73h.9v6.49h-.9c0-.76-.08-1.33-.25-1.71-.17-.37-.48-.62-.92-.73-.45-.11-1.1-.17-1.96-.17h-3.27v7.69h3.61c1.08,0,1.95-.05,2.61-.15s1.18-.29,1.57-.57c.38-.28.7-.68.95-1.2.25-.52.52-1.2.8-2.04h.89l-.78,5.2Z"/>
          <path class="cls-1" d="M59.19,82h-6.57v-.84c.76,0,1.33-.07,1.71-.21.37-.14.62-.44.75-.91.13-.47.2-1.17.2-2.12v-10.88c0-.71-.07-1.25-.2-1.61-.13-.36-.38-.62-.74-.75s-.92-.21-1.66-.21v-.84h5.7l5.9,14.06h.11l5.87-14.06h5.31v.84c-.65,0-1.16.07-1.51.21-.35.14-.6.39-.73.75-.13.36-.2.89-.2,1.58v11.66c0,.67.06,1.19.2,1.55.13.36.37.61.73.74.35.13.87.2,1.54.2v.84h-7.44v-.84c.73,0,1.27-.06,1.62-.2.35-.13.59-.38.7-.74.11-.36.17-.88.17-1.55v-12.05h-.11l-6.51,15.38h-.67l-6.6-15.35h-.11v11.27c0,.95.07,1.66.2,2.12.13.47.38.77.74.91.36.14.9.21,1.61.21v.84Z"/>
          <path class="cls-1" d="M85.86,82h-8.05v-.84c.84,0,1.45-.07,1.84-.21.39-.14.64-.41.75-.81.11-.4.17-1,.17-1.8v-11.02c0-.73-.05-1.3-.14-1.72-.09-.42-.33-.71-.71-.88s-1.02-.25-1.92-.25v-.84h8.05v.84c-.88,0-1.51.08-1.9.25-.39.17-.63.46-.71.88-.08.42-.12.99-.12,1.72v11.02c0,.8.06,1.4.17,1.8.11.4.36.67.75.81.39.14,1,.21,1.82.21v.84Z"/>
          <path class="cls-1" d="M97.27,82.34c-2.48,0-4.29-.57-5.42-1.72s-1.71-3.01-1.71-5.61v-8.08c0-.65-.08-1.16-.22-1.51-.15-.35-.42-.6-.81-.74-.39-.14-.96-.21-1.71-.21v-.84h8.05v.84c-.78,0-1.37.07-1.76.21s-.65.4-.78.77-.2.91-.2,1.62v7.91c0,1.21.16,2.23.48,3.06.32.83.86,1.46,1.63,1.89s1.82.64,3.15.64c1.83,0,3.15-.43,3.96-1.3.81-.87,1.22-2.26,1.22-4.18v-7.05c0-.99-.06-1.74-.17-2.25-.11-.51-.35-.86-.73-1.05s-.95-.28-1.73-.28v-.84h6.85v.84c-.8,0-1.39.09-1.76.28-.37.19-.61.53-.71,1.02-.1.49-.15,1.23-.15,2.19v6.74c0,2.54-.58,4.44-1.75,5.72-1.17,1.28-3.07,1.92-5.72,1.92Z"/>
          <path class="cls-1" d="M115.22,82h-6.57v-.84c.76,0,1.33-.07,1.71-.21.37-.14.62-.44.75-.91.13-.47.2-1.17.2-2.12v-10.88c0-.71-.07-1.25-.2-1.61-.13-.36-.38-.62-.74-.75s-.92-.21-1.66-.21v-.84h5.7l5.9,14.06h.11l5.87-14.06h5.31v.84c-.65,0-1.16.07-1.51.21-.35.14-.6.39-.73.75-.13.36-.2.89-.2,1.58v11.66c0,.67.07,1.19.2,1.55.13.36.37.61.73.74.35.13.87.2,1.54.2v.84h-7.44v-.84c.73,0,1.27-.06,1.62-.2.35-.13.59-.38.7-.74.11-.36.17-.88.17-1.55v-12.05h-.11l-6.52,15.38h-.67l-6.6-15.35h-.11v11.27c0,.95.06,1.66.2,2.12s.38.77.74.91c.36.14.9.21,1.61.21v.84Z"/>
          <path class="cls-1" d="M151.85,82.03l-2.26.31c-1.79-.06-3.34-.47-4.64-1.23-1.3-.76-2.31-1.85-3.02-3.26s-1.06-3.09-1.06-5.05.36-3.57,1.08-4.99c.72-1.43,1.74-2.54,3.08-3.33,1.33-.79,2.92-1.19,4.77-1.19s3.46.39,4.78,1.16c1.32.77,2.34,1.86,3.05,3.24.71,1.39,1.06,3,1.06,4.82,0,1.68-.28,3.19-.84,4.53-.56,1.34-1.35,2.44-2.36,3.3s-2.22,1.42-3.62,1.68ZM149.81,81.16c1.99,0,3.48-.72,4.46-2.15s1.47-3.56,1.47-6.38c0-1.68-.25-3.13-.75-4.35s-1.21-2.16-2.11-2.82c-.9-.66-1.96-.99-3.17-.99-1.81,0-3.24.72-4.31,2.17-1.06,1.45-1.59,3.44-1.59,6s.5,4.71,1.5,6.24,2.5,2.29,4.52,2.29ZM159.42,86.84h-1.4c-1.55,0-2.84-.11-3.89-.32s-1.91-.57-2.6-1.06-1.29-1.16-1.79-2l-.89-1.54,3.44-.42v.5c.67.93,1.34,1.69,2,2.26.66.58,1.4,1,2.22,1.26.82.26,1.79.39,2.91.39v.92Z"/>
          <path class="cls-1" d="M170.5,82.34c-2.48,0-4.29-.57-5.42-1.72-1.14-1.15-1.71-3.01-1.71-5.61v-8.08c0-.65-.07-1.16-.22-1.51-.15-.35-.42-.6-.81-.74s-.96-.21-1.71-.21v-.84h8.05v.84c-.78,0-1.37.07-1.76.21-.39.14-.65.4-.78.77-.13.37-.2.91-.2,1.62v7.91c0,1.21.16,2.23.48,3.06.32.83.86,1.46,1.64,1.89s1.82.64,3.15.64c1.83,0,3.15-.43,3.96-1.3.81-.87,1.22-2.26,1.22-4.18v-7.05c0-.99-.06-1.74-.17-2.25-.11-.51-.35-.86-.73-1.05-.37-.19-.95-.28-1.73-.28v-.84h6.85v.84c-.8,0-1.39.09-1.76.28s-.61.53-.71,1.02-.15,1.23-.15,2.19v6.74c0,2.54-.58,4.44-1.75,5.72-1.17,1.28-3.07,1.92-5.72,1.92Z"/>
          <path class="cls-1" d="M185.51,82h-5.87v-.84c.52,0,.94-.08,1.26-.25.32-.17.62-.51.92-1.02.3-.51.67-1.3,1.12-2.36l5.93-14.04h1.15l6.63,15.18c.41.91.81,1.56,1.19,1.93s.95.56,1.69.56v.84h-7.52v-.84c.28,0,.57-.02.87-.06.3-.04.55-.13.75-.28s.31-.38.31-.7c0-.21-.03-.44-.1-.71s-.19-.61-.38-1.02l-1.2-2.8-.2-.56-3.19-8.11h-.08l-3.27,8.11-.2.56-1.37,3.24c-.08.22-.14.44-.21.66s-.1.45-.1.71c0,.39.15.65.45.77.3.12.77.18,1.43.18v.84ZM192.67,75.88h-7.77l.42-1.12h6.93l.42,1.12Z"/>
          <path class="cls-1" d="M214.67,82h-13.87v-.84c.75,0,1.3-.06,1.66-.2.36-.13.6-.38.71-.75.11-.37.17-.92.17-1.65v-11.38c0-.73-.06-1.29-.17-1.68-.11-.39-.35-.66-.71-.81s-.92-.22-1.66-.22v-.84h7.86v.84c-.75,0-1.32.08-1.72.24-.4.16-.67.43-.81.82-.14.39-.21.95-.21,1.68v12.13c0,.62.15,1.02.45,1.2.3.19.86.28,1.68.28h1.29c.93,0,1.69-.07,2.26-.21.58-.14,1.04-.38,1.38-.71.34-.34.63-.78.87-1.33.23-.55.49-1.23.77-2.03h.89l-.84,5.45Z"/>
          <path class="cls-1" d="M224.99,82h-8.05v-.84c.84,0,1.45-.07,1.85-.21.39-.14.64-.41.75-.81.11-.4.17-1,.17-1.8v-11.02c0-.73-.05-1.3-.14-1.72-.09-.42-.33-.71-.71-.88s-1.02-.25-1.92-.25v-.84h8.05v.84c-.88,0-1.51.08-1.9.25s-.63.46-.71.88c-.08.42-.13.99-.13,1.72v11.02c0,.8.06,1.4.17,1.8.11.4.36.67.75.81.39.14,1,.21,1.82.21v.84Z"/>
          <path class="cls-1" d="M238.47,82h-8.11v-.84c.78,0,1.37-.06,1.76-.18.39-.12.65-.38.78-.78.13-.4.2-1.02.2-1.86v-13.45h-1.79c-1.03,0-1.79.1-2.31.31s-.88.58-1.1,1.12c-.22.54-.44,1.32-.64,2.35h-.87l.31-5.03h15.46l.22,5.03h-.87c-.21-1.02-.42-1.81-.64-2.35-.22-.54-.59-.91-1.09-1.12-.5-.21-1.28-.31-2.32-.31h-1.76v13.45c0,.84.06,1.46.2,1.86.13.4.39.66.78.78.39.12.99.18,1.79.18v.84Z"/>
          <path class="cls-1" d="M256.14,82h-8.28v-.84c.82,0,1.43-.06,1.83-.18.4-.12.66-.39.78-.8.12-.41.18-1.02.18-1.84v-4.05l-3.55-5.73c-.58-.95-1.07-1.7-1.48-2.24-.41-.54-.78-.95-1.1-1.22s-.63-.44-.91-.52c-.28-.07-.59-.11-.92-.11v-.84h7.52v.84c-.78,0-1.29.06-1.52.17-.23.11-.35.27-.35.48,0,.37.16.8.48,1.29l2.52,4.03,1.23,2.18h.17l3.69-6.29c.09-.15.17-.32.24-.5s.1-.38.1-.59c0-.26-.12-.45-.36-.57s-.72-.18-1.43-.18v-.84h6.1v.84c-.54.04-1,.13-1.38.28s-.75.41-1.09.78c-.35.37-.75.94-1.22,1.71l-4.14,6.91v4.19c0,.82.08,1.43.24,1.83.16.4.45.67.87.8.42.13,1.02.2,1.8.2v.84Z"/>
          <path class="cls-1" d="M260.5,85.69l-.33-.7c.35-.15.71-.34,1.06-.57.35-.23.65-.57.89-1.02s.36-1.04.36-1.79c-.3.11-.59.17-.87.17-.54,0-.93-.15-1.17-.45-.24-.3-.36-.65-.36-1.06,0-.45.15-.83.45-1.16.3-.33.73-.49,1.29-.49.47,0,.86.1,1.17.29.32.2.56.47.73.84.17.36.25.81.25,1.33,0,.78-.12,1.44-.38,1.99s-.56.98-.94,1.31c-.37.33-.75.61-1.15.81s-.73.37-1.01.5Z"/>
          <path class="cls-1" d="M281.02,82h-7.86v-.84c.71,0,1.24-.06,1.59-.17.35-.11.59-.35.71-.73.12-.37.18-.95.18-1.73v-12c0-.52-.05-.93-.15-1.23-.1-.3-.33-.51-.69-.64-.35-.13-.9-.2-1.65-.2v-.84h6.88c1.4,0,2.64.13,3.73.41,1.09.27,1.94.74,2.56,1.4.62.66.92,1.59.92,2.78,0,1.04-.24,1.89-.71,2.54s-1.07,1.16-1.79,1.52c-.72.36-1.46.64-2.22.83v.11c.32.19.67.51,1.08.96.4.46.92,1.13,1.55,2.01.63.89,1.46,2.07,2.49,3.54.45.62.88,1.01,1.3,1.17.42.17.95.25,1.58.25v.84h-4.61c-.76-1.16-1.4-2.12-1.92-2.89-.51-.77-.95-1.43-1.3-1.96-.35-.53-.67-1-.95-1.41s-.56-.82-.84-1.23c-.28-.43-.54-.69-.77-.78-.23-.09-.6-.14-1.1-.14h-.78v4.95c0,.76.07,1.34.2,1.72.13.38.39.63.78.74.39.11.99.17,1.79.17v.84ZM278.25,72.5l1.06.03c1.03-.06,1.92-.22,2.68-.5.76-.28,1.36-.72,1.79-1.31.43-.6.64-1.39.64-2.38,0-1.12-.35-2-1.04-2.64-.69-.64-1.79-.96-3.3-.96-.3,0-.61,0-.92.01-.32,0-.62.03-.92.07v7.69Z"/>
          <path class="cls-1" d="M306.33,82h-14.93v-.84c.76,0,1.34-.05,1.72-.15.38-.1.64-.33.78-.69.14-.35.21-.89.21-1.62v-11.66c0-.71-.07-1.25-.21-1.62s-.4-.62-.78-.75c-.38-.13-.96-.2-1.72-.2v-.84h14.68l.17,4.58h-.89c-.13-.93-.33-1.64-.6-2.11-.27-.47-.71-.8-1.31-.96-.61-.17-1.49-.25-2.64-.25h-4.11v7.1h3.27c.86,0,1.51-.07,1.96-.22.45-.15.75-.43.92-.84.17-.41.25-.99.25-1.73h.89v6.49h-.89c0-.76-.08-1.33-.25-1.71s-.48-.62-.92-.73c-.45-.11-1.1-.17-1.96-.17h-3.27v7.69h3.61c1.08,0,1.95-.05,2.61-.15.66-.1,1.18-.29,1.57-.57.38-.28.7-.68.95-1.2.25-.52.52-1.2.8-2.04h.89l-.78,5.2Z"/>
          <path class="cls-1" d="M322.93,82h-13.87v-.84c.75,0,1.3-.06,1.66-.2.36-.13.6-.38.71-.75.11-.37.17-.92.17-1.65v-11.38c0-.73-.06-1.29-.17-1.68-.11-.39-.35-.66-.71-.81s-.92-.22-1.66-.22v-.84h7.86v.84c-.75,0-1.32.08-1.72.24-.4.16-.67.43-.81.82-.14.39-.21.95-.21,1.68v12.13c0,.62.15,1.02.45,1.2.3.19.86.28,1.68.28h1.29c.93,0,1.69-.07,2.26-.21s1.04-.38,1.38-.71c.34-.34.63-.78.87-1.33.23-.55.49-1.23.77-2.03h.9l-.84,5.45Z"/>
          <path class="cls-1" d="M333.25,82h-8.05v-.84c.84,0,1.45-.07,1.85-.21.39-.14.64-.41.75-.81.11-.4.17-1,.17-1.8v-11.02c0-.73-.05-1.3-.14-1.72-.09-.42-.33-.71-.71-.88-.38-.17-1.02-.25-1.92-.25v-.84h8.05v.84c-.88,0-1.51.08-1.9.25s-.63.46-.71.88c-.08.42-.13.99-.13,1.72v11.02c0,.8.06,1.4.17,1.8.11.4.36.67.75.81.39.14,1,.21,1.82.21v.84Z"/>
          <path class="cls-1" d="M340.18,82h-5.87v-.84c.52,0,.94-.08,1.26-.25.32-.17.62-.51.92-1.02s.67-1.3,1.12-2.36l5.93-14.04h1.15l6.63,15.18c.41.91.81,1.56,1.19,1.93s.95.56,1.69.56v.84h-7.52v-.84c.28,0,.57-.02.87-.06.3-.04.55-.13.75-.28s.31-.38.31-.7c0-.21-.03-.44-.1-.71s-.19-.61-.38-1.02l-1.2-2.8-.2-.56-3.19-8.11h-.08l-3.27,8.11-.2.56-1.37,3.24c-.07.22-.14.44-.21.66s-.1.45-.1.71c0,.39.15.65.45.77.3.12.77.18,1.43.18v.84ZM347.34,75.88h-7.77l.42-1.12h6.93l.42,1.12Z"/>
          <path class="cls-1" d="M363.92,82h-8.61v-.84c.76,0,1.34-.06,1.72-.2.38-.13.64-.39.78-.78s.21-.97.21-1.73v-11.44c0-.75-.07-1.3-.21-1.66-.14-.36-.4-.6-.78-.71-.38-.11-.96-.17-1.72-.17v-.84h7.55c1.66,0,2.99.17,4,.52,1.01.35,1.73.84,2.18,1.48.45.64.67,1.43.67,2.36,0,1.25-.37,2.19-1.12,2.81-.75.62-1.7,1.1-2.85,1.41v.11c.8.13,1.57.37,2.31.73.74.35,1.35.85,1.83,1.5.48.64.73,1.48.73,2.5,0,1.58-.59,2.8-1.78,3.66s-2.82,1.29-4.91,1.29ZM360.6,64.81v7.07h1.9c1.7,0,2.86-.29,3.5-.88s.95-1.51.95-2.78c0-1.1-.35-1.96-1.05-2.57-.7-.62-1.91-.92-3.62-.92-.26,0-.54,0-.83.01-.29,0-.57.03-.85.07ZM362.61,80.97c.6,0,1.19-.04,1.79-.11.6-.07,1.14-.24,1.64-.49.49-.25.89-.63,1.19-1.15.3-.51.45-1.22.45-2.11,0-1.06-.25-1.89-.74-2.47s-1.13-1-1.9-1.23c-.77-.23-1.6-.35-2.47-.35h-1.96v7.83c.34.02.67.04,1.01.06.33.02.67.03,1.01.03Z"/>
          <path class="cls-1" d="M386.63,82h-13.87v-.84c.75,0,1.3-.06,1.66-.2.36-.13.6-.38.71-.75.11-.37.17-.92.17-1.65v-11.38c0-.73-.06-1.29-.17-1.68-.11-.39-.35-.66-.71-.81s-.92-.22-1.66-.22v-.84h7.86v.84c-.75,0-1.32.08-1.72.24-.4.16-.67.43-.81.82-.14.39-.21.95-.21,1.68v12.13c0,.62.15,1.02.45,1.2.3.19.86.28,1.68.28h1.29c.93,0,1.69-.07,2.26-.21s1.04-.38,1.38-.71c.34-.34.63-.78.87-1.33.23-.55.49-1.23.77-2.03h.9l-.84,5.45Z"/>
          <path class="cls-1" d="M403.88,82h-14.93v-.84c.76,0,1.34-.05,1.72-.15.38-.1.64-.33.78-.69.14-.35.21-.89.21-1.62v-11.66c0-.71-.07-1.25-.21-1.62s-.4-.62-.78-.75c-.38-.13-.96-.2-1.72-.2v-.84h14.68l.17,4.58h-.89c-.13-.93-.33-1.64-.6-2.11-.27-.47-.71-.8-1.31-.96-.61-.17-1.49-.25-2.64-.25h-4.11v7.1h3.27c.86,0,1.51-.07,1.96-.22.45-.15.75-.43.92-.84.17-.41.25-.99.25-1.73h.89v6.49h-.89c0-.76-.08-1.33-.25-1.71s-.48-.62-.92-.73c-.45-.11-1.1-.17-1.96-.17h-3.27v7.69h3.61c1.08,0,1.95-.05,2.61-.15.66-.1,1.18-.29,1.57-.57.38-.28.7-.68.95-1.2.25-.52.52-1.2.8-2.04h.89l-.78,5.2Z"/>
          <path class="cls-1" d="M414.11,82.42h-.87l-.25-6.04h.87c.33,1.29.73,2.27,1.17,2.95s1,1.15,1.66,1.4c.66.25,1.47.38,2.42.38.71,0,1.31-.1,1.82-.29.5-.2.9-.51,1.17-.95.28-.44.42-1.01.42-1.72,0-.82-.23-1.5-.68-2.04-.46-.54-1.04-1.02-1.75-1.44-.71-.42-1.44-.84-2.21-1.27-.75-.43-1.46-.89-2.15-1.37s-1.25-1.06-1.69-1.73c-.44-.67-.66-1.49-.66-2.46s.24-1.81.73-2.47c.48-.66,1.13-1.17,1.93-1.52.8-.35,1.69-.53,2.66-.53.86,0,1.52.07,1.99.21.47.14.83.28,1.1.43.27.15.52.22.74.22s.41-.06.55-.18c.14-.12.25-.33.32-.63h.73l.2,5.59h-.84c-.39-1.55-.91-2.69-1.57-3.44s-1.69-1.11-3.1-1.09c-.95,0-1.69.22-2.21.66-.52.44-.78,1.1-.78,1.97,0,.69.2,1.28.59,1.78s.9.94,1.54,1.33c.63.39,1.29.79,1.99,1.2.62.35,1.23.71,1.86,1.06.62.35,1.19.75,1.71,1.2s.92.97,1.23,1.57c.31.6.46,1.31.46,2.15,0,1.08-.25,1.99-.74,2.74-.49.75-1.17,1.31-2.03,1.69s-1.83.57-2.91.57c-.97,0-1.76-.07-2.36-.21-.61-.14-1.08-.28-1.43-.42-.35-.14-.63-.21-.85-.21-.19,0-.35.08-.5.25-.15.17-.23.39-.25.67Z"/>
          <path class="cls-1" d="M442.04,82h-14.93v-.84c.76,0,1.34-.05,1.72-.15.38-.1.64-.33.78-.69.14-.35.21-.89.21-1.62v-11.66c0-.71-.07-1.25-.21-1.62s-.4-.62-.78-.75c-.38-.13-.96-.2-1.72-.2v-.84h14.68l.17,4.58h-.89c-.13-.93-.33-1.64-.6-2.11-.27-.47-.71-.8-1.31-.96-.61-.17-1.49-.25-2.64-.25h-4.11v7.1h3.27c.86,0,1.51-.07,1.96-.22.45-.15.75-.43.92-.84.17-.41.25-.99.25-1.73h.89v6.49h-.89c0-.76-.08-1.33-.25-1.71s-.48-.62-.92-.73c-.45-.11-1.1-.17-1.96-.17h-3.27v7.69h3.61c1.08,0,1.95-.05,2.61-.15.66-.1,1.18-.29,1.57-.57.38-.28.7-.68.95-1.2.25-.52.52-1.2.8-2.04h.89l-.78,5.2Z"/>
          <path class="cls-1" d="M452.67,82h-7.86v-.84c.71,0,1.24-.06,1.59-.17.35-.11.59-.35.71-.73.12-.37.18-.95.18-1.73v-12c0-.52-.05-.93-.15-1.23-.1-.3-.33-.51-.69-.64-.35-.13-.9-.2-1.65-.2v-.84h6.88c1.4,0,2.64.13,3.73.41,1.09.27,1.94.74,2.56,1.4.62.66.92,1.59.92,2.78,0,1.04-.24,1.89-.71,2.54s-1.07,1.16-1.79,1.52c-.72.36-1.46.64-2.22.83v.11c.32.19.67.51,1.08.96.4.46.92,1.13,1.55,2.01.63.89,1.46,2.07,2.49,3.54.45.62.88,1.01,1.3,1.17.42.17.95.25,1.58.25v.84h-4.61c-.76-1.16-1.4-2.12-1.92-2.89-.51-.77-.95-1.43-1.3-1.96-.35-.53-.67-1-.95-1.41s-.56-.82-.84-1.23c-.28-.43-.54-.69-.77-.78-.23-.09-.6-.14-1.1-.14h-.78v4.95c0,.76.07,1.34.2,1.72.13.38.39.63.78.74.39.11.99.17,1.79.17v.84ZM449.9,72.5l1.06.03c1.03-.06,1.92-.22,2.68-.5.76-.28,1.36-.72,1.79-1.31.43-.6.64-1.39.64-2.38,0-1.12-.35-2-1.04-2.64-.69-.64-1.79-.96-3.3-.96-.3,0-.61,0-.92.01-.32,0-.62.03-.92.07v7.69Z"/>
          <path class="cls-1" d="M470.81,82.14h-1.12l-6.4-15.13c-.26-.63-.52-1.13-.78-1.5s-.56-.63-.89-.8c-.33-.17-.75-.25-1.26-.25v-.84h7.49v.84c-.24,0-.51.02-.81.06-.3.04-.56.13-.77.27s-.32.39-.32.74c0,.37.16.94.48,1.71l3.38,8.3,1.09,2.94h.14l.98-2.8,3.52-8.89c.09-.21.17-.42.22-.66.06-.23.08-.47.08-.71,0-.37-.15-.62-.45-.75-.3-.13-.77-.2-1.43-.2v-.84h5.87v.84c-.39,0-.72.04-.99.13s-.51.25-.73.5c-.21.25-.44.62-.69,1.1s-.53,1.12-.87,1.9l-5.76,14.04Z"/>
          <path class="cls-1" d="M488.65,82h-8.05v-.84c.84,0,1.45-.07,1.85-.21.39-.14.64-.41.75-.81.11-.4.17-1,.17-1.8v-11.02c0-.73-.05-1.3-.14-1.72-.09-.42-.33-.71-.71-.88-.38-.17-1.02-.25-1.92-.25v-.84h8.05v.84c-.88,0-1.51.08-1.9.25s-.63.46-.71.88c-.08.42-.13.99-.13,1.72v11.02c0,.8.06,1.4.17,1.8.11.4.36.67.75.81.39.14,1,.21,1.82.21v.84Z"/>
          <path class="cls-1" d="M499.81,82.31c-1.92,0-3.53-.41-4.84-1.23-1.31-.82-2.29-1.95-2.95-3.38-.66-1.44-.99-3.06-.99-4.87,0-2.03.39-3.76,1.17-5.17.78-1.42,1.86-2.5,3.24-3.24,1.38-.75,2.96-1.12,4.75-1.12.99,0,1.78.08,2.38.25.6.17,1.07.33,1.43.5.35.17.64.25.87.25s.4-.1.52-.29c.12-.2.27-.43.43-.71h.84v6.4h-.95c-.3-1.83-.93-3.15-1.89-3.97s-2.16-1.23-3.59-1.23c-2.01,0-3.56.72-4.66,2.15-1.09,1.44-1.64,3.4-1.64,5.9,0,1.86.28,3.38.85,4.56.57,1.17,1.36,2.04,2.36,2.6,1.01.56,2.16.84,3.47.84s2.41-.24,3.38-.71c.97-.47,1.85-1.14,2.63-2l.67.59c-.5.75-1.1,1.41-1.8,2-.7.59-1.51,1.05-2.45,1.38-.93.33-2.01.5-3.24.5Z"/>
          <path class="cls-1" d="M524.3,82h-14.93v-.84c.76,0,1.34-.05,1.72-.15.38-.1.64-.33.78-.69.14-.35.21-.89.21-1.62v-11.66c0-.71-.07-1.25-.21-1.62s-.4-.62-.78-.75c-.38-.13-.96-.2-1.72-.2v-.84h14.68l.17,4.58h-.89c-.13-.93-.33-1.64-.6-2.11-.27-.47-.71-.8-1.31-.96-.61-.17-1.49-.25-2.64-.25h-4.11v7.1h3.27c.86,0,1.51-.07,1.96-.22.45-.15.75-.43.92-.84.17-.41.25-.99.25-1.73h.89v6.49h-.89c0-.76-.08-1.33-.25-1.71s-.48-.62-.92-.73c-.45-.11-1.1-.17-1.96-.17h-3.27v7.69h3.61c1.08,0,1.95-.05,2.61-.15.66-.1,1.18-.29,1.57-.57.38-.28.7-.68.95-1.2.25-.52.52-1.2.8-2.04h.89l-.78,5.2Z"/>
          <path class="cls-1" d="M529.25,82.23c-.56,0-.97-.16-1.24-.47-.27-.32-.41-.71-.41-1.17s.15-.9.45-1.24.71-.52,1.23-.52.96.18,1.26.53c.3.35.45.77.45,1.26,0,.43-.15.81-.45,1.13-.3.33-.73.49-1.29.49Z"/>
        </g>
      </g>
    </g>
  </g>
</svg>