<svg xmlns="http://www.w3.org/2000/svg" version="1.1" xmlns:xlink="http://www.w3.org/1999/xlink" width="1000" height="1000"><g clip-path="url(#SvgjsClipPath1020)"><rect width="1000" height="1000" fill="#ffffff"></rect><g transform="matrix(3.770942196843183,0,0,3.770942196843183,150,200.1723859289985)"><svg xmlns="http://www.w3.org/2000/svg" version="1.1" xmlns:xlink="http://www.w3.org/1999/xlink" width="185.63" height="159.02"><svg id="Capa_2" data-name="Capa 2" xmlns="http://www.w3.org/2000/svg" viewBox="0 0 185.63 159.02">
  <g id="Capa_2-2" data-name="Capa 2">
    <g id="Capa_1-2" data-name="Capa 1">
      <g>
        <path d="M15.68,44.34v112H0V2.68h24.34l26.61,121.9L77.96,2.68h22.89v153.66h-16.91V44.34l-23.72,112h-19.8L15.68,44.34Z"></path>
        <path d="M182.95,34.65l-16.29,2.27c-.82-13.41-2.27-20.83-15.88-20.83s-16.5,7.84-16.5,20.42c0,15.88,7.42,22.89,18.56,29.29,16.5,9.49,32.79,17.94,32.79,51.98,0,26.4-10.11,41.25-38.16,41.25s-33.62-12.99-35.68-47.64l17.53-3.51c1.24,25.99,4.54,34.86,18.15,34.86,14.64,0,17.53-8.66,17.53-25.78,0-20.01-8.04-27.02-21.86-35.47-14.64-8.66-28.46-20.01-28.46-45.58C114.68,14.03,122.93,0,150.57,0s31.56,15.26,32.38,34.65Z"></path>
      </g>
    </g>
  </g>
</svg></svg></g></g><defs><clipPath id="SvgjsClipPath1020"><rect width="1000" height="1000" x="0" y="0" rx="350" ry="350"></rect></clipPath></defs></svg>