<?xml version="1.0" encoding="UTF-8"?>
<svg id="Capa_1" xmlns="http://www.w3.org/2000/svg" xmlns:xlink="http://www.w3.org/1999/xlink" version="1.1" viewBox="0 0 771 880">
  <!-- Generator: Adobe Illustrator 29.5.1, SVG Export Plug-In . SVG Version: 2.1.0 Build 141)  -->
  <defs>
    <style>
      .st0 {
        fill: none;
      }

      .st1, .st2 {
        fill: #d8dee8;
      }

      .st3 {
        fill: url(#Degradado_sin_nombre_19);
        opacity: .3;
      }

      .st3, .st4, .st2, .st5, .st6 {
        isolation: isolate;
      }

      .st3, .st2, .st6 {
        mix-blend-mode: multiply;
      }

      .st7, .st8, .st5, .st9 {
        mix-blend-mode: soft-light;
      }

      .st7, .st2, .st5 {
        opacity: .5;
      }

      .st8 {
        opacity: .8;
      }

      .st10 {
        clip-path: url(#clippath-1);
      }

      .st11 {
        clip-path: url(#clippath-3);
      }

      .st12 {
        clip-path: url(#clippath-2);
      }

      .st13 {
        fill: #fcfdfe;
      }

      .st5, .st14 {
        fill: #fff;
      }

      .st15 {
        fill: #203995;
      }

      .st16 {
        fill: url(#Degradado_sin_nombre_7);
      }

      .st17 {
        fill: url(#Degradado_sin_nombre_6);
      }

      .st18 {
        fill: url(#Degradado_sin_nombre_5);
      }

      .st19 {
        fill: url(#Degradado_sin_nombre_8);
      }

      .st20 {
        fill: url(#Degradado_sin_nombre_4);
      }

      .st21 {
        fill: url(#Degradado_sin_nombre_9);
      }

      .st22 {
        fill: url(#Degradado_sin_nombre_3);
      }

      .st23 {
        fill: url(#Degradado_sin_nombre_30);
      }

      .st24 {
        fill: url(#Degradado_sin_nombre_15);
      }

      .st25 {
        fill: url(#Degradado_sin_nombre_16);
      }

      .st26 {
        fill: url(#Degradado_sin_nombre_17);
      }

      .st27 {
        fill: url(#Degradado_sin_nombre_18);
      }

      .st28 {
        fill: url(#Degradado_sin_nombre_10);
      }

      .st29 {
        fill: url(#Degradado_sin_nombre_11);
      }

      .st30 {
        fill: url(#Degradado_sin_nombre_12);
      }

      .st31 {
        fill: url(#Degradado_sin_nombre_13);
      }

      .st32 {
        fill: url(#Degradado_sin_nombre_24);
      }

      .st33 {
        fill: url(#Degradado_sin_nombre_26);
      }

      .st34 {
        fill: url(#Degradado_sin_nombre_29);
      }

      .st35 {
        fill: url(#Degradado_sin_nombre_23);
      }

      .st36 {
        fill: url(#Degradado_sin_nombre_25);
      }

      .st37 {
        fill: url(#Degradado_sin_nombre_22);
      }

      .st38 {
        fill: #f4f7fa;
      }

      .st39 {
        clip-path: url(#clippath);
      }

      .st6 {
        fill: url(#Degradado_sin_nombre_27);
      }
    </style>
    <linearGradient id="Degradado_sin_nombre_29" data-name="Degradado sin nombre 29" x1="334.3" y1="506" x2="590.9" y2="506" gradientTransform="translate(0 880) scale(1 -1)" gradientUnits="userSpaceOnUse">
      <stop offset="0" stop-color="#203995"/>
      <stop offset="1" stop-color="#9571f6"/>
    </linearGradient>
    <clipPath id="clippath">
      <path class="st0" d="M361.3,546.2c-26.8-6.2-46.3-126.3,5.2-172.1,21.5-19.1,44.5-15.6,62.5-42.7,16.1-24.1,4.9-37.6,18-65.9,18.3-39.9,68.4-74.2,101.4-60.8,16.6,6.7,31.5,26.6,31.1,48.4-.3,17.5-18.5,30.1-14.8,34.8,3.1,3.8,14.2-4.9,20.6-.8,9.4,6,7.4,39.1-9.5,62.5-28.9,40-83,25.9-94.6,57.4-7.4,20.1,12.1,32.7,2.4,52.8-8.5,17.7-27.5,16-57.1,32.3-46.4,25.5-50.9,57.7-65.2,54.3h0Z"/>
    </clipPath>
    <linearGradient id="Degradado_sin_nombre_30" data-name="Degradado sin nombre 30" x1="590.6" y1="576.2" x2="405" y2="165.2" gradientTransform="translate(0 880) scale(1 -1)" gradientUnits="userSpaceOnUse">
      <stop offset="0" stop-color="#ffc444"/>
      <stop offset="1" stop-color="#f36f56"/>
    </linearGradient>
    <clipPath id="clippath-1">
      <path class="st0" d="M386.4,575.5c1.1-64.4,13.5-111.7,24.1-142,8.3-23.8,22.4-56.5,40.7-56.9,8.8-.2,12.1,7.2,21.4,6.6,17.5-1.1,23.2-28.6,38-46.1,25.3-30,88.4-44.4,124.8-15.2,43.8,35.2,30.6,118.9-1.5,138.5-19,11.6-46.2,1.5-50.2,12.2-4,10.7,22.8,23,20.8,41.1-2,18.8-33.3,29.2-35.2,29.8-37.8,12.2-59.5-14-98.2-13.1-21,.5-50.1,9-84.6,45.2h0Z"/>
    </clipPath>
    <linearGradient id="Degradado_sin_nombre_3" data-name="Degradado sin nombre 3" x1="103.1" y1="240.3" x2="669.7" y2="240.3" gradientTransform="translate(0 880) scale(1 -1)" gradientUnits="userSpaceOnUse">
      <stop offset="0" stop-color="#444b8c"/>
      <stop offset="1" stop-color="#26264f"/>
    </linearGradient>
    <linearGradient id="Degradado_sin_nombre_4" data-name="Degradado sin nombre 4" x1="103.1" y1="240.3" x2="669.7" y2="240.3" gradientTransform="translate(0 880) scale(1 -1)" gradientUnits="userSpaceOnUse">
      <stop offset="0" stop-color="#444b8c"/>
      <stop offset="1" stop-color="#26264f"/>
    </linearGradient>
    <linearGradient id="Degradado_sin_nombre_5" data-name="Degradado sin nombre 5" x1="393.5" y1="163.6" x2="395" y2="334.3" gradientTransform="translate(0 880) scale(1 -1)" gradientUnits="userSpaceOnUse">
      <stop offset="0" stop-color="#2c759e"/>
      <stop offset="1" stop-color="#051042"/>
    </linearGradient>
    <linearGradient id="Degradado_sin_nombre_6" data-name="Degradado sin nombre 6" x1="430.4" y1="404.9" x2="336.7" y2="-17.7" gradientTransform="translate(0 880) scale(1 -1)" gradientUnits="userSpaceOnUse">
      <stop offset="0" stop-color="#2c759e"/>
      <stop offset="1" stop-color="#051042"/>
    </linearGradient>
    <linearGradient id="Degradado_sin_nombre_7" data-name="Degradado sin nombre 7" x1="429.8" y1="409.6" x2="337.9" y2="-4.9" gradientTransform="translate(0 880) scale(1 -1)" gradientUnits="userSpaceOnUse">
      <stop offset="0" stop-color="#aa80f9"/>
      <stop offset="1" stop-color="#6165d7"/>
    </linearGradient>
    <linearGradient id="Degradado_sin_nombre_8" data-name="Degradado sin nombre 8" x1="165.8" y1="189.9" x2="191.1" y2="189.9" gradientTransform="translate(0 880) scale(1 -1)" gradientUnits="userSpaceOnUse">
      <stop offset="0" stop-color="#40447e"/>
      <stop offset="1" stop-color="#3c3b6b"/>
    </linearGradient>
    <linearGradient id="Degradado_sin_nombre_9" data-name="Degradado sin nombre 9" x1="173.2" y1="219.4" x2="186.9" y2="139.2" gradientTransform="translate(0 880) scale(1 -1)" gradientUnits="userSpaceOnUse">
      <stop offset="0" stop-color="#ffc444"/>
      <stop offset="1" stop-color="#f36f56"/>
    </linearGradient>
    <linearGradient id="Degradado_sin_nombre_10" data-name="Degradado sin nombre 10" x1="358.3" y1="280.3" x2="285.6" y2="298.1" gradientTransform="translate(0 880) scale(1 -1)" gradientUnits="userSpaceOnUse">
      <stop offset="0" stop-color="#40447e"/>
      <stop offset="1" stop-color="#3c3b6b"/>
    </linearGradient>
    <linearGradient id="Degradado_sin_nombre_11" data-name="Degradado sin nombre 11" x1="285.2" y1="172.1" x2="310.3" y2="172.1" gradientTransform="translate(0 880) scale(1 -1)" gradientUnits="userSpaceOnUse">
      <stop offset="0" stop-color="#40447e"/>
      <stop offset="1" stop-color="#3c3b6b"/>
    </linearGradient>
    <linearGradient id="Degradado_sin_nombre_12" data-name="Degradado sin nombre 12" x1="278.7" y1="237.5" x2="292.4" y2="157.2" gradientTransform="translate(0 880) scale(1 -1)" gradientUnits="userSpaceOnUse">
      <stop offset="0" stop-color="#ffc444"/>
      <stop offset="1" stop-color="#f36f56"/>
    </linearGradient>
    <linearGradient id="Degradado_sin_nombre_13" data-name="Degradado sin nombre 13" x1="232.4" y1="320.4" x2="122" y2="336.2" gradientTransform="translate(0 880) scale(1 -1)" gradientUnits="userSpaceOnUse">
      <stop offset="0" stop-color="#40447e"/>
      <stop offset="1" stop-color="#3c3b6b"/>
    </linearGradient>
    <linearGradient id="Degradado_sin_nombre_15" data-name="Degradado sin nombre 15" x1="222.1" y1="589.7" x2="275.9" y2="589.7" gradientTransform="translate(0 880) scale(1 -1)" gradientUnits="userSpaceOnUse">
      <stop offset="0" stop-color="#ffc444"/>
      <stop offset="1" stop-color="#f36f56"/>
    </linearGradient>
    <linearGradient id="Degradado_sin_nombre_16" data-name="Degradado sin nombre 16" x1="-1646.3" y1="672.4" x2="-1667.5" y2="726.2" gradientTransform="translate(-1526.5 89.1) rotate(-151)" gradientUnits="userSpaceOnUse">
      <stop offset="0" stop-color="#311944"/>
      <stop offset="1" stop-color="#6b3976"/>
    </linearGradient>
    <linearGradient id="Degradado_sin_nombre_17" data-name="Degradado sin nombre 17" x1="561.6" y1="648" x2="560.7" y2="569.5" gradientTransform="translate(-511.2 617.1) rotate(25.5) scale(1 -1)" gradientUnits="userSpaceOnUse">
      <stop offset="0" stop-color="#ffc444"/>
      <stop offset="1" stop-color="#f36f56"/>
    </linearGradient>
    <linearGradient id="Degradado_sin_nombre_18" data-name="Degradado sin nombre 18" x1="-1652.8" y1="669.8" x2="-1674" y2="723.7" gradientTransform="translate(-1526.5 89.1) rotate(-151)" gradientUnits="userSpaceOnUse">
      <stop offset="0" stop-color="#311944"/>
      <stop offset="1" stop-color="#6b3976"/>
    </linearGradient>
    <linearGradient id="Degradado_sin_nombre_19" data-name="Degradado sin nombre 19" x1="148.1" y1="494.3" x2="247.4" y2="494.3" gradientTransform="translate(0 880) scale(1 -1)" gradientUnits="userSpaceOnUse">
      <stop offset="0" stop-color="#ff9085"/>
      <stop offset="1" stop-color="#fb6fbb"/>
    </linearGradient>
    <linearGradient id="Degradado_sin_nombre_22" data-name="Degradado sin nombre 22" x1="167" y1="448.5" x2="380.3" y2="448.5" gradientTransform="translate(0 880) scale(1 -1)" gradientUnits="userSpaceOnUse">
      <stop offset="0" stop-color="#311944"/>
      <stop offset="1" stop-color="#6b3976"/>
    </linearGradient>
    <linearGradient id="Degradado_sin_nombre_23" data-name="Degradado sin nombre 23" x1="229.9" y1="472.2" x2="223.7" y2="331" gradientTransform="translate(0 880) scale(1 -1)" gradientUnits="userSpaceOnUse">
      <stop offset="0" stop-color="#ffc444"/>
      <stop offset="1" stop-color="#f36f56"/>
    </linearGradient>
    <linearGradient id="Degradado_sin_nombre_24" data-name="Degradado sin nombre 24" x1="292.8" y1="469.5" x2="286.6" y2="328.2" gradientTransform="translate(0 880) scale(1 -1)" gradientUnits="userSpaceOnUse">
      <stop offset="0" stop-color="#ffc444"/>
      <stop offset="1" stop-color="#f36f56"/>
    </linearGradient>
    <linearGradient id="Degradado_sin_nombre_25" data-name="Degradado sin nombre 25" x1="379.2" y1="297.4" x2="383.5" y2="142.5" gradientTransform="translate(0 880) scale(1 -1)" gradientUnits="userSpaceOnUse">
      <stop offset="0" stop-color="#ffc444"/>
      <stop offset="1" stop-color="#f36f56"/>
    </linearGradient>
    <clipPath id="clippath-2">
      <path class="st0" d="M355.8,691.3c18.1,6.6,42.2-12.1,46-29.8,2.7-12.5-6-19.2-1-31.3,4.7-11.5,14.3-10.2,20.2-21.5,6.2-12,5.2-32.4-7.5-41-14.2-9.7-37.1-.4-44,12.6-6.7,12.5,4.5,22.9-3,36.3-6.6,11.7-17.9,8.6-25.1,19.2-10.4,15.3-4.8,48.5,14.5,55.5h0Z"/>
    </clipPath>
    <linearGradient id="Degradado_sin_nombre_26" data-name="Degradado sin nombre 26" x1="420.3" y1="254.3" x2="423.1" y2="156.3" gradientTransform="translate(0 880) scale(1 -1)" gradientUnits="userSpaceOnUse">
      <stop offset="0" stop-color="#ff9085"/>
      <stop offset="1" stop-color="#fb6fbb"/>
    </linearGradient>
    <clipPath id="clippath-3">
      <path class="st0" d="M389.1,691.8c10.9,8.6,31.5,1.4,38.1-9.7,4.7-7.9.3-14.4,6.5-21.6,5.8-6.8,12.1-3.6,18.7-10,7-6.8,10.9-20.9,4.2-29.7-7.5-9.8-25.2-8.7-32.9-1.5-7.4,7-2.2,16.7-10.4,24-7.2,6.5-14.1,1.7-21.5,7.3-10.6,8.1-14.4,32-2.8,41.2h0Z"/>
    </clipPath>
    <radialGradient id="Degradado_sin_nombre_27" data-name="Degradado sin nombre 27" cx="-609.5" cy="4857.3" fx="-609.5" fy="4897.6" r="108.3" gradientTransform="translate(-987.3 -1721.5) rotate(177.7) scale(2.1 -.5)" gradientUnits="userSpaceOnUse">
      <stop offset="0" stop-color="#242424"/>
      <stop offset=".1" stop-color="#4b4b4b"/>
      <stop offset=".3" stop-color="#818181"/>
      <stop offset=".5" stop-color="#aeaeae"/>
      <stop offset=".6" stop-color="#d1d1d1"/>
      <stop offset=".8" stop-color="#eaeaea"/>
      <stop offset=".9" stop-color="#f9f9f9"/>
      <stop offset="1" stop-color="#fff"/>
    </radialGradient>
  </defs>
  <g class="st4">
    <g id="Capa_11" data-name="Capa_1">
      <g>
        <path class="st38" d="M238.2,212.1c-19.2,26.8,2.5,70.9-25.7,91-27.5,19.5-60.7-13.3-86.6,3.5-38.4,24.9-32.7,140.6,22.4,213.1,16.5,21.8,30.5,30.3,36.4,54.8,12.8,52.6-34.4,83.3-25.8,109.4,19.4,58.7,327.5,110.9,453.2-63.4,58.7-81.4,68.6-199.8,17.9-290.3-91.7-163.6-348.8-178.2-391.8-118h0Z"/>
        <g>
          <path class="st34" d="M361.3,546.2c-26.8-6.2-46.3-126.3,5.2-172.1,21.5-19.1,44.5-15.6,62.5-42.7,16.1-24.1,4.9-37.6,18-65.9,18.3-39.9,68.4-74.2,101.4-60.8,16.6,6.7,31.5,26.6,31.1,48.4-.3,17.5-18.5,30.1-14.8,34.8,3.1,3.8,14.2-4.9,20.6-.8,9.4,6,7.4,39.1-9.5,62.5-28.9,40-83,25.9-94.6,57.4-7.4,20.1,12.1,32.7,2.4,52.8-8.5,17.7-27.5,16-57.1,32.3-46.4,25.5-50.9,57.7-65.2,54.3h0Z"/>
          <g class="st39">
            <g class="st7">
              <path class="st14" d="M361.3,571.3c-.6,0-1.1-.4-1.3-.9-.2-.5,0-1,.3-1.4.2-.8.5-3.5.7-6.7,1.5-17.7,5.3-64.6,34.9-132.4,37.2-85.3,100.8-171.6,189-256.5.5-.5,1.4-.5,1.9,0,.5.6.5,1.4,0,1.9-94.7,91.3-210.3,232.5-223,387.2-.6,7-.7,8.3-2,8.7-.1,0-.3,0-.4,0h0Z"/>
              <path class="st14" d="M447.4,343c-.7,0-1.3-.6-1.4-1.3,0-.8.5-1.4,1.3-1.4,62.4-3.3,101.9-13.7,124-22,24-8.9,33.3-17.1,33.4-17.2.6-.5,1.4-.5,1.9.1.5.6.5,1.4,0,1.9-.4.4-9.7,8.6-34,17.6-22.3,8.3-62.2,18.9-125.1,22.2h0Z"/>
              <path class="st14" d="M486.6,285.4c-.3,0-.6,0-.8-.3-13.8-10.1-18.8-32.4-15-66,2.8-24.8,9.7-47,9.7-47.2.2-.7,1-1.1,1.7-.9.7.2,1.1,1,.9,1.7-.3.9-26.7,87.3,4.3,110.2.6.5.7,1.3.3,1.9-.3.4-.7.6-1.1.6h0Z"/>
              <path class="st14" d="M390.8,447c-.4,0-.8-.2-1.1-.5-17-21-19.8-49.8-19.1-70.3.7-22.1,5.5-39.5,5.6-39.7.2-.7,1-1.2,1.7-1s1.2,1,1,1.7c0,.2-4.8,17.3-5.5,39.1-.6,20,2,48.1,18.5,68.4.5.6.4,1.5-.2,1.9-.2.2-.6.3-.9.3h0Z"/>
            </g>
          </g>
        </g>
        <g>
          <path class="st23" d="M386.4,575.5c1.1-64.4,13.5-111.7,24.1-142,8.3-23.8,22.4-56.5,40.7-56.9,8.8-.2,12.1,7.2,21.4,6.6,17.5-1.1,23.2-28.6,38-46.1,25.3-30,88.4-44.4,124.8-15.2,43.8,35.2,30.6,118.9-1.5,138.5-19,11.6-46.2,1.5-50.2,12.2-4,10.7,22.8,23,20.8,41.1-2,18.8-33.3,29.2-35.2,29.8-37.8,12.2-59.5-14-98.2-13.1-21,.5-50.1,9-84.6,45.2h0Z"/>
          <g class="st10">
            <g class="st9">
              <g>
                <path class="st13" d="M368.4,623.7l1,.2c38.3-146.1,159.2-253.7,323.3-287.7l-.2-1c-77.8,16.1-148.5,50.1-204.5,98.4-58.9,50.7-100.2,116.4-119.5,190h0Z"/>
                <path class="st13" d="M370.9,400c20.3,36,33.5,100.3,29.4,143.4h1c4.1-43.2-9.1-107.7-29.5-143.9l-.9.5h0Z"/>
                <path class="st13" d="M376.3,595.2l.8.5c11.5-19.3,32.4-32.1,62-37.9,21.7-4.3,47.5-4.8,76.7-1.6v-1c-29.2-3.2-55.1-2.7-76.9,1.6-29.9,5.9-50.9,18.8-62.6,38.4h0Z"/>
                <path class="st13" d="M496.2,427.2l.8.5c23.6-35.3,22.9-80,18.1-111.2h-1c4.7,31.2,5.4,75.6-18,110.7h0Z"/>
                <path class="st13" d="M577.8,374.4l.3,1c46.1-12.7,92.7,6,116.4,18.2l.5-.9c-23.8-12.3-70.7-31.1-117.1-18.3h0Z"/>
              </g>
            </g>
          </g>
        </g>
        <g>
          <path class="st1" d="M364.1,611.8c-1.5,3.6-.5,7.2,2.3,8.3l.6.3c2.7,1.2,6-.6,7.5-4.2l103.1-244c1.5-3.6.5-7.4-2.2-8.5l-.6-.3c-2.7-1.1-6.1.8-7.6,4.4l-103.1,244h0Z"/>
          <g>
            <path class="st1" d="M504,293.1c-.4,1-.1,2.2,1.4,2.8h0c1.5.6,2.5,0,3-1,2.7-6.3,5.5-12.6,8.2-19,.5-1,.1-2.2-1.5-2.9h0c-1.6-.7-2.6-.1-3.1.9-2.7,6.4-5.3,12.7-8,19h0Z"/>
            <g>
              <path class="st14" d="M615.9,411.3s-.6,5.6-2.4,10.4c-1.3,3.3-4.3,5.5-8.1,6-12.1,1.5-21.2,2.2-26.9,2.5-1.8,0-3.7-.6-5.1-1.9-1.5-1.3-2.4-3-2.5-4.7-.2-4.3-.5-8.7-.8-13,15-.5,30.3-.3,45.8.7h0Z"/>
              <path class="st1" d="M570.3,407.7s-2.3,8.3-5.2,13.8c-1.7,3.2-5.4,4.7-9.5,4.1-14.7-2.8-53.3-8.9-84.3-26-4.2-2.3-7.5-6.1-7-10.2,1-7.9,2.9-10.4,2.9-10.4,34.4,5.4,69.1,14.9,103.2,28.7h0Z"/>
              <path class="st1" d="M505.2,290.4c-.3.2,24.6,8.8,50.9,29.8,26.3,20.5,54.1,53.4,59.8,91.1-.2-.3-35.6,7-45.8-.7,5.9-12-12.8-75.1-65-120.2h0Z"/>
              <path class="st14" d="M505.2,290.4c-12.7,29.5-25.4,59.1-38,88.6,0,.1,16,6.1,36.5,13.5,20.6,7.3,45.7,16.1,66.5,18,13.3-33-20.3-81.9-65-120.2h0Z"/>
            </g>
            <g>
              <path class="st1" d="M342.8,295.9s-3.6,4.3-5.8,9c-1.5,3.2-1,6.9,1.4,10,7.4,9.8,13.1,16.8,16.9,21.1,1.2,1.3,3,2.2,4.9,2.4s3.8-.4,5.1-1.5c3.2-2.9,6.5-5.7,9.9-8.5-10.1-11.1-20.9-21.9-32.4-32.4h0Z"/>
              <path class="st14" d="M377.1,326.1s-4.3,7.4-6.3,13.4c-1.1,3.4.4,7.2,3.7,9.7,12.3,8.6,43.5,32,77.4,42.4,4.6,1.4,9.6,1.2,12.2-2.1,4.9-6.2,5.4-9.3,5.4-9.4-27.9-20.9-58.8-39.1-92.5-54h0Z"/>
              <path class="st14" d="M506.7,291c0,.4-23.5-11.5-56.9-15.7-33.1-4.6-76-1.6-107,20.5.4,0,19.8,30.4,32.4,32.4,4.5-12.6,62.8-43.2,131.5-37.2h0Z"/>
              <path class="st1" d="M506.7,291c-12.3,29.7-24.6,59.4-37,89.1,0,.1-15.5-7.3-35.1-16.8-19.6-9.7-43.4-21.5-59.3-35.1,14.4-32.5,72.9-42.5,131.4-37.2h0Z"/>
            </g>
          </g>
        </g>
        <g>
          <g>
            <path class="st22" d="M668.2,698.8s0,0,0,0c3-7.4.6-19.2.6-19.2l-2.9,1.5c-1.9-3.8-4.6-8-8.2-12.6-40-50.8-81.4-48.3-15.3-75.6,7.6-3.2,12.3-6.3,14.2-9.5h0s3.2-3.9.4-12c-1.3,0-2.4,1-3.3,2.1-24-19.7-154.3-35.5-321.3-32.7-131.4,2.2-191.1,17.3-217.9,29-3.9,1.7-6.9,4.7-8.8,8.3-.4-.6-.9-1.2-1.6-1.9-1.6,4.1-.6,13.6-.6,13.6,0,0,0,0,.2-.2,1,6.9,5.6,12.7,12.1,14.9,35.9,12.3,88.5-12.1,18.5,70-4.8,5.6-8,10.7-9.8,15.4-.4-2.7-.7-5.3-.7-7.6-2.8,7.8-1.1,18.6-1.1,18.6,0,0,0,0,0,0,6.9,67.8,373.8,25.1,435.5,20.6,49.3-3.6,99.8-3.3,109.4-21.8h0c.2-.3.3-.7.5-1.1h0Z"/>
            <path class="st20" d="M668.2,698.8s0,0,0,0c3-7.4.6-19.2.6-19.2l-2.9,1.5c-1.9-3.8-4.6-8-8.2-12.6-40-50.8-81.4-48.3-15.3-75.6,7.6-3.2,12.3-6.3,14.2-9.5h0s3.2-3.9.4-12c-1.3,0-2.4,1-3.3,2.1-24-19.7-154.3-35.5-321.3-32.7-131.4,2.2-191.1,17.3-217.9,29-3.9,1.7-6.9,4.7-8.8,8.3-.4-.6-.9-1.2-1.6-1.9-1.6,4.1-.6,13.6-.6,13.6,0,0,0,0,.2-.2,1,6.9,5.6,12.7,12.1,14.9,35.9,12.3,88.5-12.1,18.5,70-4.8,5.6-8,10.7-9.8,15.4-.4-2.7-.7-5.3-.7-7.6-2.8,7.8-1.1,18.6-1.1,18.6,0,0,0,0,0,0,6.9,67.8,373.8,25.1,435.5,20.6,49.3-3.6,99.8-3.3,109.4-21.8h0c.2-.3.3-.7.5-1.1h0Z"/>
            <path class="st18" d="M531.4,700.8c-54.6,4.2-408.8,48.8-338-40.3,55.8-70.3,13.9-49.5-14.7-60-3.8-1.4-6.8-4.4-8.5-8.3-.8-1.9-1.3-4-1.4-6.2-.2-6.6,3.2-12.7,8.8-15.3,21.4-10.1,69-23,173.8-24.8,164.9-3,284.9,18.4,254.7,40.4-1.9,1.4-4.4,2.8-7.5,4.2-52.7,23.3-19.7,21.2,12.2,64.7,31.9,43.5-24.7,41.4-79.2,45.6h0Z"/>
            <path class="st17" d="M531.4,700.8c-54.6,4.2-408.8,48.8-338-40.3,55.8-70.3,13.9-49.5-14.7-60-3.8-1.4-6.8-4.4-8.5-8.3,1.5-3.4,4.1-6.3,7.4-7.8,21.4-10.1,69-23,173.8-24.8,130.1-2.4,232.2,10.5,254.7,26.8-1.9,1.4-4.4,2.8-7.5,4.2-52.7,23.3-19.7,21.2,12.2,64.7,31.9,43.5-24.7,41.4-79.2,45.6h0Z"/>
            <g>
              <path class="st1" d="M657.7,659.7c-40-49.3-81.4-46.9-15.3-73.3,66.1-26.4-90.1-54.1-310-50.5-131.4,2.2-191.1,16.8-217.9,28.2-6.9,2.9-11.3,9.8-11,17.3.3,7.5,5.2,14,12.3,16.4,35.9,11.9,88.5-11.7,18.5,67.9-88.7,100.9,355.5,50.5,424,45.7,68.5-4.8,139.4-2.4,99.4-51.7h0Z"/>
              <path class="st2" d="M531.4,691.1c-54.6,4.1-408.8,47.3-338-39.1,55.8-68.2,13.9-48-14.7-58.1-3.8-1.4-6.8-4.3-8.5-8-.8-1.8-1.3-3.9-1.4-6-.2-6.4,3.2-12.3,8.8-14.8,21.4-9.8,69-22.2,173.8-24.1,164.9-2.9,284.9,17.8,254.7,39.2-1.9,1.3-4.4,2.7-7.5,4-52.7,22.6-19.7,20.6,12.2,62.7,31.9,42.2-24.7,40.1-79.2,44.2h0Z"/>
              <path class="st16" d="M531.4,691.1c-54.6,4.1-408.8,47.3-338-39.1,55.8-68.2,13.9-48-14.7-58.1-3.8-1.4-6.8-4.3-8.5-8,1.5-3.3,4.1-6.1,7.4-7.6,21.4-9.8,69-22.2,173.8-24.1,130.1-2.3,232.2,10.1,254.7,25.9-1.9,1.3-4.4,2.7-7.5,4-52.7,22.6-19.7,20.6,12.2,62.7,31.9,42.2-24.7,40.1-79.2,44.2h0Z"/>
            </g>
          </g>
          <path class="st14" d="M215.9,683.7c-7.1-1.6-11.7-4.5-13.8-8.7-4.9-9.8,5.4-23.8,15.4-37.4,9.6-13,19.6-26.5,14.9-35.2-3.6-6.7-15.1-9.5-18.9-10.5-6-1.5-11.8-1.4-15.9-1.4-4.4,0-7.3,0-7.9-1.7-.5-1.4.9-3.2,4-5.6,12.5-9.2,47-10.6,66.4-10.7v1c-15.6,0-53.1,1.1-65.8,10.5-3.7,2.7-3.8,4-3.6,4.4.3,1,3.2,1,6.9,1,4.3,0,10.1-.1,16.2,1.4,3.9,1,15.7,3.9,19.5,11,5,9.2-4.7,22.4-15,36.3-9.8,13.3-20,27.1-15.4,36.3,1.9,3.9,6.4,6.7,13.1,8.2l-.2,1h0Z"/>
        </g>
        <g>
          <path class="st19" d="M167.5,680.1l-1.2,3.2c-.9,2.3-.3,4.9,1.5,6.6,4.4,4.1,12.8,11,20,10.7,10.2-.5-5.3-10-7.9-13.6-6.8-9.6-12.3-6.9-12.3-6.9h0Z"/>
          <path class="st21" d="M176.8,661.6s-5.2,7.4-7.8,18.8l4.4,4.5,9.4-12.4-6-11h0Z"/>
          <path class="st28" d="M243.8,451.8c9,12.9,30.2,46.9,28.1,92.5-4,85.9-86.5,129.8-90.6,131.9-3-4.2-6.1-8.5-9.1-12.7-.4-11.8.9-29.3,10.3-46.5,11-20.2,24.5-23.9,31.8-36.9,8-14.3,9.1-40.4-24.9-92.4,18.1-11.9,36.2-23.9,54.4-35.8h0Z"/>
          <path class="st29" d="M285.2,699.5l3.3,15c.5,1.8,2.2,3.1,4.2,3.1h13.2c3.8,0,5.8-4.5,3.2-7.3l-11.1-12.2-12.8,1.4h0Z"/>
          <path class="st30" d="M278.5,685.5l10,15.8c.6.9,1.5,1.4,2.6,1.4h1.7c2,0,3.5-2,2.9-4l-4.5-14.6-12.7,1.4h0Z"/>
          <path class="st31" d="M171.3,447.1c-1,6.3-2.2,16.9-.9,29.7,4.4,44.8,32.1,53.6,53,105.6,13.7,34.1,8.2,46.3,27,75,10.2,15.7,21.4,26.6,29.3,33.5,5-.7,10-1.3,15-2-4.1-14.2-10-34.7-16.9-59.4-20.8-74.9-24.7-96.2-26.5-106.9-2.8-16.8-6.2-41.1-7.5-70.9,2.5-4.9,3-8.8,1.5-11.5-4.7-8.6-29.4-6.3-74.1,6.9h0Z"/>
          <path class="st15" d="M178.4,290.2c-13.2,8.6-18.3,23.4-24.9,82.4-11.3,101.1-2,108,1.8,109.7,10.1,4.4,16.5-12.4,45.2-17.8,28.4-5.4,49.2,5.9,54.9-3.2,3.1-5-2.7-9.3-4.3-19.8-4.4-29.9,35.7-45.7,47.7-94.5,2.1-8.5,1.8-11.8,1.7-12.9-2.8-26.2-44.1-43.7-74.1-48.1-18-2.6-34.1-5-48.1,4.1h0Z"/>
          <path class="st24" d="M267.3,272.8s-19,15.2-45.2,13.2c0,0,21.7,23.5,53.8,21.7,0,0-15.9-6.9-5-24l-3.7-10.9Z"/>
          <g>
            <path class="st25" d="M285.8,279.6c4-1.8,7.1-7,6.4-11.9-.7-4.2-4-6.6-6-8.1-5.8-4.2-15.2-6-21.1-1.8-3.5,2.5-4,11.5-4.1,13.1-.2,1.8.7,2.9,1.1,4.6.6,2.3,1.5,6,3,12.1,1-1,2.2-2.2,3.8-3.5.6-.5,3-2.2,5.8-3.3,5.5-2.1,7.5.5,11.3-1.2h0Z"/>
            <path class="st26" d="M261.5,281.3s.3,9,8.8,13.1c7.6,3.6,17.8-12.2,15.1-18.3-.9-2-3.8-4.3-6.7-5-1.7-.4-2.6,0-5.4-.8-2.6-.7-3.1-1.3-4.1-1.1-1.3.2-2.9,1.7-4.1,7.3-.6-2.2-2-3.7-3.5-3.8-.2,0-.9,0-1.5.4-2.1,1.3-1.7,4.6,1.4,8.2h0Z"/>
            <path class="st27" d="M269.5,268c.2.5-1.6,1.2-2.7,3-2.2,3.5-.9,9.9,2.6,12.4,2.1,1.5,3.4.5,7.3,2.1,2.4,1,4.1,2.4,5.2,3.3-1.1,4.6-4.4,8-8,8.3-4,.4-6.9-2.9-8.2-4.2-.8-.9-3.5-3.8-3.5-7.8,0-4.1,2.8-5,1.9-8.3-.4-1.6-1.5-2.9-1.7-5.7,0-.8,0-1.4,0-1.8,3-1,6.9-2,7.2-1.4h0Z"/>
          </g>
          <path class="st3" d="M230.5,444.6c-10.1-21.9,4.2-34.8-4.1-59-11-32-43.6-31.8-51.4-58.3-2.7-9.1-2.5-21.6,6.7-39.1-1.1.6-2.2,1.2-3.3,1.9-13.2,8.6-18.3,23.4-24.9,82.4-11.3,101.1-2,108,1.8,109.7,10.1,4.4,16.5-12.4,45.2-17.8,20.6-3.9,37.1.9,46.8.5-6.8-5.2-12.9-11.8-16.9-20.3h0Z"/>
          <path class="st15" d="M299.8,449.4c0,4.3.8,9.4,4,11.2,8,4.3,29.2-13.1,37-29.2,22.3-45.9-40.8-128.6-59.1-122.4-9.8,3.3-13.5,34.7-4,58.1,9.8,24.2,30,31,31.5,52.6.9,12.6-5.1,23.3-9.6,29.7h0Z"/>
          <path class="st15" d="M203.3,285.8c-4.5-5.9-24.2,0-37.5,7.3-42.9,23.5-72.3,90.7-49.4,117.9,14,16.6,44.9,15.2,63.4,9.8,22.6-6.7,35.7-22,40.3-28-1.4-2.7-2.7-5.5-4.1-8.2-38.2,6.1-45.6-4.2-47.1-6.9-5.4-9.5,3.1-25.8,19.2-56.7,11.5-22.1,18.4-30.8,15.1-35.2h0Z"/>
          <path class="st37" d="M376.9,603.8c-1.1,0-2.3-.6-2.9-1.6l-206.4-337.9c-1-1.6-.5-3.7,1.1-4.7,1.6-1,3.7-.5,4.7,1.1l206.4,337.9c1,1.6.5,3.7-1.1,4.7-.6.3-1.2.5-1.8.5Z"/>
          <path class="st35" d="M217.4,386.2s6.9-4.4,10.3-11.1c3.4-6.8,6.6-12.7,10.3-11.7,3.7,1,7.4,11.4,6.7,13.9,0,0-5.8-2.2-6.7,2.2-.9,4.5-7.3,5.5-7.3,5.5l-10.4,7.8-2.8-6.6h0Z"/>
          <path class="st32" d="M304.3,452c-.4-1-1.4-1.6-2.5-1.6-2.5,0-7.1-.1-9.5-2.1-3.5-2.7-10.4-1.1-14,0s1,4.3,5.6,6.3c4.6,2,7.6,5.7,11.7,6,2.8.1,6.5-2.8,8.5-4.6.8-.8,1.1-2,.6-3l-.4-1h0Z"/>
        </g>
        <g>
          <path class="st5" d="M309.7,616c-1.4,1.1-2.2,2.9-1.9,4.7,2.6,16.2,15.9,94.8,48.4,100.3,64.5,10.9,102.3-40,125.1-80.4l-38.1-47.3-126.2,17.3-7.2,5.5Z"/>
          <path class="st5" d="M345.9,669.2l-8-4.6s-17.1-25.8-30-45.6c-.1.6-.1,1.1,0,1.7,2.6,16.2,15.9,94.8,48.4,100.3,59.8,10.1,96.7-33,119.9-71.5l-130.2,19.8h0Z"/>
          <path class="st1" d="M348.6,671.9c-5.6,0-10.8-2.6-14.2-7.2l-27.5-37.4c-2.5-3.5-3.1-7.9-1.4-11.8,1.6-4,5.1-6.7,9.4-7.4l119.8-18.5c6.2-1,12.5,1.5,16.4,6.3l30.2,37.4c2.7,3.4,3.4,7.8,1.9,11.9-1.6,4.1-5.1,6.9-9.4,7.6l-122.5,18.9c-.9.1-1.8.2-2.7.2h0ZM437.4,594.9c-.6,0-1.2,0-1.8.1l-119.8,18.5c-2.3.4-4.2,1.9-5.1,4-.9,2.2-.6,4.6.8,6.5l27.5,37.4c2.7,3.7,7.1,5.5,11.6,4.8l122.5-18.9c2.3-.4,4.3-1.9,5.1-4.1.9-2.2.5-4.6-1-6.5l-30.2-37.4c-2.3-2.9-5.8-4.5-9.4-4.5h0Z"/>
          <g>
            <path class="st36" d="M355.8,691.3c18.1,6.6,42.2-12.1,46-29.8,2.7-12.5-6-19.2-1-31.3,4.7-11.5,14.3-10.2,20.2-21.5,6.2-12,5.2-32.4-7.5-41-14.2-9.7-37.1-.4-44,12.6-6.7,12.5,4.5,22.9-3,36.3-6.6,11.7-17.9,8.6-25.1,19.2-10.4,15.3-4.8,48.5,14.5,55.5h0Z"/>
            <g class="st12">
              <g class="st8">
                <path class="st14" d="M356.3,699.4c.1,0,.2-.1.3-.2,8.5-50.1,25-86.3,37.4-107.8,13.4-23.3,24.9-35,25-35.1.1-.1.1-.3,0-.4s-.3-.1-.4,0c-.1.1-11.7,11.8-25.1,35.2-7.9,13.7-14.9,28.8-20.7,44.7-7.3,19.9-13,41.2-16.8,63.3,0,.2,0,.3.2.3h0,0Z"/>
                <path class="st14" d="M387.7,602.6c0,0,.1,0,.2,0,.1-.1.1-.3,0-.4-7.7-8.7-7.6-22.1-6.2-31.9,1.6-10.6,5-19.3,5.1-19.4,0-.2,0-.3-.2-.4s-.3,0-.4.2c0,0-3.5,8.8-5.1,19.5-1.5,9.9-1.6,23.5,6.3,32.4,0,0,.2,0,.2,0h0Z"/>
                <path class="st14" d="M372.5,666.7c11.9-1.2,21.6-7.4,28.3-13,8.9-7.6,14.1-15.8,14.2-15.8,0-.1,0-.3,0-.4s-.3,0-.4,0c0,0-5.2,8.2-14.1,15.7-8.1,6.9-21.2,14.8-37,12.7-.2,0-.3,0-.3.2,0,.2,0,.3.2.3,3.2.4,6.2.4,9.2.1h0Z"/>
                <path class="st14" d="M358.7,686.5c0,0,.1,0,.2,0,.1-.1.1-.3,0-.4-25.1-26.8-10.9-68.7-10.6-69.4,0-.1,0-.3,0-.4-.1,0-.3,0-.4,0-.2.2-3.9,10.9-4.3,25.1-.4,12.8,1.9,31,14.9,45,0,0,.1,0,.2,0h0Z"/>
              </g>
            </g>
          </g>
          <g>
            <path class="st33" d="M389.1,691.8c10.9,8.6,31.5,1.4,38.1-9.7,4.7-7.9.3-14.4,6.5-21.6,5.8-6.8,12.1-3.6,18.7-10,7-6.8,10.9-20.9,4.2-29.7-7.5-9.8-25.2-8.7-32.9-1.5-7.4,7-2.2,16.7-10.4,24-7.2,6.5-14.1,1.7-21.5,7.3-10.6,8.1-14.4,32-2.8,41.2h0Z"/>
            <g class="st11">
              <g class="st8">
                <path class="st14" d="M387.6,697.4c0,0,.2,0,.2,0,17.3-32.2,36.8-53,50.2-64.9,14.5-12.8,25-18.1,25.1-18.2s.1-.2,0-.3-.2-.1-.3,0-10.7,5.4-25.2,18.2c-8.5,7.6-16.7,16.2-24.4,25.7-9.5,11.9-18.3,25.1-25.9,39.3,0,0,0,.2,0,.3,0,0,0,0,0,0h0Z"/>
                <path class="st14" d="M431.2,638.7s0,0,.1,0c.1,0,.1-.2.1-.3-3.3-7.7-.1-16.8,3.1-23.2,3.5-6.9,7.9-12,7.9-12,0,0,0-.2,0-.3,0,0-.2,0-.3,0,0,0-4.4,5.2-8,12.1-3.3,6.4-6.5,15.7-3.1,23.5,0,0,0,.1.1.1Z"/>
                <path class="st14" d="M406.2,678.9c8.4,1.9,16.4,0,22.2-2.4,7.8-3.1,13.2-7.5,13.3-7.5,0,0,.1-.2,0-.3,0,0-.2,0-.3,0,0,0-5.4,4.4-13.2,7.5-7.1,2.9-17.8,5.2-28.1.2-.1,0-.2,0-.3,0s0,.2.1.3c2.1,1,4.1,1.7,6.2,2.2h0Z"/>
                <path class="st14" d="M392.3,689.2s0,0,.1,0c.1,0,.1-.2.1-.3-11-24,8.3-49.3,8.6-49.7,0,0,.1-.2,0-.3,0,0-.2-.1-.3,0-.2.1-5.1,6.6-8.7,16.1-3.2,8.6-5.8,21.5-.1,34.1,0,0,0,0,.1.1h0Z"/>
              </g>
            </g>
          </g>
          <path class="st5" d="M345.9,669.2l-8-4.6s-17.1-25.8-30-45.6c-.1.6-.1,1.1,0,1.7,2.6,16.2,15.9,94.8,48.4,100.3,59.8,10.1,96.7-33,119.9-71.5l-130.2,19.8h0Z"/>
          <path class="st1" d="M478.5,641.1c0,.7-.2,1.5-.4,2.2-.9,2.2-2.8,3.8-5.1,4.1l-122.5,18.9c-4.5.7-8.9-1.2-11.6-4.8l-27.5-37.4c-1.4-1.9-1.7-4.3-.8-6.5s2.8-3.7,5.1-4l14.4-2.2c-.7-1.7-1.4-3.5-2.1-5.2l-13.1,2c-4.2.7-7.8,3.4-9.4,7.4s-1.1,8.4,1.4,11.8l27.5,37.4c3.4,4.6,8.6,7.2,14.2,7.2s1.8,0,2.7-.2l122.5-18.9c4.3-.7,7.8-3.5,9.4-7.6.3-.8.5-1.5.6-2.3-1.8-.6-3.6-1.2-5.3-1.9h0Z"/>
        </g>
      </g>
      <path class="st6" d="M187.4,729.2c3.6,30.1,107.6,50.4,234.3,45.3s228.8-33.5,230-63.8l-464.3,18.5h0Z"/>
    </g>
  </g>
</svg>