<?xml version="1.0" encoding="UTF-8"?>
<svg id="Capa_1" xmlns="http://www.w3.org/2000/svg" xmlns:xlink="http://www.w3.org/1999/xlink" version="1.1" viewBox="0 0 641 571">
  <!-- Generator: Adobe Illustrator 29.5.1, SVG Export Plug-In . SVG Version: 2.1.0 Build 141)  -->
  <defs>
    <style>
      .st0 {
        fill: #a2d0d3;
      }

      .st1 {
        fill: #303951;
      }

      .st2 {
        fill: #a9a9a9;
      }

      .st3 {
        fill: #48809c;
      }

      .st4 {
        fill: #b5b5b5;
      }

      .st5 {
        fill: #cecece;
      }

      .st6 {
        fill: #ffb0a4;
      }

      .st7, .st8 {
        isolation: isolate;
      }

      .st8 {
        fill: url(#Degradado_sin_nombre);
        mix-blend-mode: multiply;
      }

      .st9 {
        fill: #ffd68e;
      }

      .st10 {
        fill: #fff;
      }

      .st11 {
        fill: #fb897a;
      }

      .st12 {
        fill: #51517e;
      }

      .st13 {
        fill: #6191af;
      }
    </style>
    <radialGradient id="Degradado_sin_nombre" data-name="Degradado sin nombre" cx="-1892.8" cy="5061.4" fx="-1935.7" fy="5061.4" r="56.4" gradientTransform="translate(4197.9 -2363.2) rotate(-4.1) scale(2.1 .5)" gradientUnits="userSpaceOnUse">
      <stop offset="0" stop-color="#333"/>
      <stop offset="0" stop-color="#505050"/>
      <stop offset=".2" stop-color="#7e7e7e"/>
      <stop offset=".3" stop-color="#a6a6a6"/>
      <stop offset=".4" stop-color="#c6c6c6"/>
      <stop offset=".6" stop-color="#dfdfdf"/>
      <stop offset=".7" stop-color="#f1f1f1"/>
      <stop offset=".8" stop-color="#fbfbfb"/>
      <stop offset="1" stop-color="#fff"/>
    </radialGradient>
  </defs>
  <g class="st7">
    <g id="Capa_11" data-name="Capa_1">
      <path class="st8" d="M454.8,511.3c-.1,15.8-52.7,32.3-118.6,37s-120.3-4.1-122.7-19.7l241.3-17.3h0Z"/>
      <g>
        <g>
          <path class="st5" d="M308.4,319.8l-7.6,12.7,107.4,166.9c8.5,13.2,4.2,30.7-9.3,38.6l-2,1.1,27.6,13.3,86.2-35.8-21.4-21s-48.8,12.5-61.9-1.5c-13.1-14-119.1-174.4-119.1-174.4h0Z"/>
          <path class="st2" d="M417.2,505.8c-.5-1.1-2.1-.1-1.6.9,2.6,5.1,2.7,10.8.3,15.9-.5,1.1,1.1,2,1.6.9,2.7-5.8,2.6-12.1-.3-17.8h0Z"/>
          <path class="st2" d="M420.6,542.2c-4.4-1.2-8.8-2.5-13.1-4.1-1.1-.4-1.6,1.4-.5,1.8,4.3,1.6,8.6,3,13.1,4.1,1.2.3,1.7-1.5.5-1.8Z"/>
          <path class="st2" d="M463.6,530.6c-4.8,3.1-11.7,4.4-17.1,6.2-5.4,1.8-10.9,3.6-16.3,5.3-1.1.4-.6,2.2.5,1.8,6.3-2,12.5-4.1,18.8-6.2,5-1.6,10.6-2.7,15-5.5,1-.7,0-2.3-.9-1.6h0Z"/>
          <path class="st2" d="M354.6,402.7c-3-3.7-5.9-7.3-8.9-11-.8-.9-2.1.4-1.3,1.3,3,3.7,5.9,7.3,8.9,11,.8.9,2.1-.4,1.3-1.3Z"/>
        </g>
        <path class="st13" d="M225.8,493s6.9,38.3,16.2,40.5c9.3,2.2,57.4.2,58.8-4.3,1.5-4.5-39.7-15.4-47.2-14.4-3.7-11.5-3-29.2-3-29.2l-24.8,7.4h0Z"/>
        <path class="st13" d="M316,488.4l13.2,34.2s63.5,4.7,64.8-1.7-47.8-16-47.8-16l-20.1-29-10.1,12.6h0Z"/>
        <path class="st4" d="M289.4,281.8c31.2-25.3,53-62.8,53-62.8l-3.4-44.6s-42.2-21.3-79.3-17.1c-17.4,11.3-8.4,14.1-8.4,14.1,0,0-25.1,38.9-40.6,91,14.7,7.8,49.2,23.7,78.6,19.5h0Z"/>
        <path class="st1" d="M288.7,282.6c.2-.3.4-.5.6-.8-29.4,4.2-63.9-11.7-78.6-19.5-8.3,27.9-13.8,59.5-11.3,91,7.2,90.5,27.9,154.6,27.9,154.6,0,0,6.7,5.3,26.7-2.2-3.4-25.2,1.5-127.9,9-154.6.3,58.8,37.8,141.1,57.2,156.9,17.5-1.7,29.1-11.2,29.1-11.2,0,0-62.9-175.3-60.6-214.2h0Z"/>
        <path class="st6" d="M405.6,70.1c-11.9-8.2-56.2-24.8-56.2-24.8,0,0-27.1,28.8-33.3,40.9s-22.8,37.7-12,51.9c8.9,11.7,26,24.6,51.5,31.5,14.5,3.9,25.8-6.3,35.3-20.8l9.6,3.1-1.8-16.6c4-7.6,7.7-15.5,11.3-22.7,13.3-27.2-4.3-42.4-4.3-42.4h0Z"/>
        <path class="st6" d="M368.7,244.8s3.1,99.8-22.4,133.2c-6.3-6.2-17.7-10.4-17.7-10.4,0,0,13.8-79.4,11.7-100.3-2-20,28.4-22.5,28.4-22.5h0Z"/>
        <path class="st1" d="M386.5,120.8c-1.7,2.3-4,3.4-5.1,2.6-1.1-.8-.6-3.4,1.2-5.6s4-3.4,5.1-2.6.6,3.4-1.2,5.6Z"/>
        <path class="st11" d="M375,129.6c-.4,3.4-3.5,5.7-6.9,5.3-3.4-.4-5.7-3.5-5.3-6.9.4-3.3,3.5-5.7,6.9-5.3,3.4.4,5.7,3.5,5.3,6.9h0Z"/>
        <path class="st4" d="M325.2,223.4l5.2,49.2s18.9,16.9,41.5-11.6c6.8-36.4-24.2-82-33-86.6-8.8-4.6-13.8,49-13.8,49h0Z"/>
        <path class="st1" d="M429.4,58.9c-4.5,5.3-9.4,14-9.4,14,0,0,9.2-21.3.7-22.1-8.5-.8-13.4,21.1-13.4,21.1,0,0-40.4-34.8-61.1-35.8,2-4.7,4.2-11.3,1.7-12-2.9-.9-6.1,8-7.7,13-.6.3-1.3.5-1.9.8-1.5-3.6-4.7-9.9-7.8-9.5-2.7.3.1,7.4,2.7,12.8-13.7,10.7-22.3,33.2-22.3,33.2,0,0-25.7-2.3-28,4.7-2.3,7,11,6.1,11,6.1,0,0-17.1,2.4-15.2,12.8,3.4,18.9,41.9,5.6,41.9,5.6,0,0,21.5-8.2,36.2-30.5,19.2,14.6,68.9,33.5,79.8,10.3,11-23.2-2.7-29.8-7.2-24.5h0Z"/>
        <g>
          <path class="st6" d="M332.7,109.8s6-13.7-6.6-19.7c-12.6-6.1-23.4,9.9-16.7,19.2,6.7,9.3,17.8,9.9,23.3.5Z"/>
          <path class="st1" d="M322,111.2c1.2-1.3,2-2.9,2.6-4.5.6-1.6,1-3.4,1-5.2,0-1.8-.4-3.7-1.4-5.3-1.1-1.6-2.7-2.6-4.4-3,1.2,1.3,2.2,2.5,2.8,3.9.5,1.4.7,2.9.7,4.5,0,3.1-.7,6.3-1.3,9.7h0Z"/>
          <path class="st1" d="M324.3,104.1c-.3-1.1-.9-1.9-1.6-2.7-.7-.8-1.6-1.4-2.5-1.9-1.8-.9-4.1-1.3-6.1-.4,1,.6,1.8.9,2.6,1.3.8.4,1.6.8,2.4,1.2,1.6.8,3.2,1.7,5.1,2.5h0Z"/>
        </g>
        <path class="st6" d="M339,153.3l-7.7,17.5,7.7,3.6s-17.4,14.3-30,8.3c-12.5-6-15.9-23.5-15.9-23.5l9.8,1.8,15-20,21,12.4h0Z"/>
        <path class="st6" d="M237.5,219.8l-14.8,21s32,38.8,46.7,45.4c1.7,14.7-12.6,14.6-12.6,14.6,0,0-64-39.8-70.6-60.5s59-62.5,59-62.5l-7.7,42h0Z"/>
        <path class="st4" d="M264.8,187l-24.7,43.5s-37.6-5.7-46.1-29.5c21.9-24.9,47.4-45.8,72.6-43.7,5.5,15-1.7,29.7-1.7,29.7h0Z"/>
        <path class="st6" d="M335.6,354.1s-17.3-1-23.5,8.8c1.3,5.7,10.8,0,10.8,0,0,0-6.5,7.7-3.6,10.1,2.8,2.3,9.2-3.6,9.2-3.6,0,0-7.1,10.6-3,11.6,4.1,1,8.2-6.5,8.2-6.5,0,0,9.5,9.3,12.5,3.5,3-5.8-4.7-21.6-10.7-23.9h0Z"/>
        <path class="st1" d="M383.6,105.3c.1.5.7.7,1.2.8,2.3.5,7,2.1,9.3,1.1,2-.9,2.3-3.1.9-4.6-2.1-2.3-12.7-1.7-11.4,2.8Z"/>
        <path class="st3" d="M260,205.4c-3.3,3.6-6.5,7.2-9.8,10.8-2.7,3-6.3,8.9-9.8,10.8-7.2,3.9-22.6-5.3-29.7-7.9-1.1-.4-1.6,1.4-.5,1.8,9.4,3.4,18.8,6.9,28.1,10.3.3.1.7,0,.9-.2,7.3-8.1,14.7-16.2,22-24.3.8-.9-.5-2.2-1.3-1.3Z"/>
        <path class="st3" d="M293.9,265.2c-5.4,7.2-13.3,11.5-21.2,15.6-1.1.6-.1,2.2.9,1.6,8.2-4.3,16.2-8.8,21.8-16.3.7-1-.9-1.9-1.6-.9h0Z"/>
        <path class="st3" d="M261,259.6c-1.4,6.2-2.1,12.5-2.2,19,0,1.2,1.9,1.2,1.9,0,0-6.2.8-12.4,2.1-18.5.3-1.2-1.5-1.7-1.8-.5h0Z"/>
        <path class="st3" d="M241.8,251.6v9.2c0,1.2,1.9,1.2,1.9,0v-9.2c0-1.2-1.9-1.2-1.9,0h0Z"/>
        <path class="st3" d="M339.6,221.2c-1.3,7.5-8.3,14.8-13.1,20.3-4.4,5.1-9.3,9.8-14.4,14.1-.9.8.4,2.1,1.3,1.3,6.3-5.4,12.2-11.3,17.4-17.8,4.1-5.1,9.4-10.9,10.6-17.5.2-1.2-1.6-1.7-1.8-.5h0Z"/>
        <path class="st12" d="M219.1,494.8l5.7,13.3s10.3,5.8,19.6,3.5,12-4.6,12-4.6v-15s-18.4,6.1-37.4,2.7h0Z"/>
        <path class="st12" d="M309.9,498.7l8.3,9.7s25.4-1.6,33.1-9.7c0-6.7-3.2-13.5-3.2-13.5,0,0-18.2,14.4-38.3,13.5Z"/>
        <path class="st12" d="M278.7,346.4c-5.2,1.3-10.4,2.3-15.6,3.1-1.2.2-.7,2,.5,1.8,5.3-.8,10.5-1.8,15.6-3.1,1.2-.3.7-2.1-.5-1.8Z"/>
        <path class="st12" d="M226.4,283.1c-.8,5.2-2.5,10-5.4,14.4-4.6,6.9-10.6,8.2-18.5,7.1-1.2-.2-1.7,1.6-.5,1.8,6.6.9,12.6,1.1,17.5-4,4.9-5.1,7.6-11.9,8.7-18.8.2-1.2-1.6-1.7-1.8-.5h0Z"/>
        <path class="st12" d="M219.1,313.6c-.4-1.4-.4-2.8-.3-4.2.1-1.2-1.7-1.2-1.9,0-.2,1.6,0,3.2.4,4.7.3,1.2,2.1.7,1.8-.5h0Z"/>
        <path class="st12" d="M220.6,338.1v3.7c0,1.2,1.9,1.2,1.9,0v-3.7c0-1.2-1.9-1.2-1.9,0Z"/>
        <path class="st12" d="M221.9,349.4c-.3,1.5-.5,3.1-.5,4.7s1.9,1.2,1.9,0,.1-2.8.4-4.2c.2-1.2-1.6-1.7-1.8-.5h0Z"/>
        <path class="st12" d="M226.2,365.8c-.6-1.6-.8-3.2-.7-5,0-1.2-1.8-1.2-1.9,0-.1,1.9.1,3.7.8,5.5.4,1.1,2.2.6,1.8-.5h0Z"/>
        <path class="st12" d="M227.4,373.5c.1-1.2-1.8-1.2-1.9,0-.2,2.1,0,4.1.2,6.2.2,1.2,2,.7,1.8-.5-.3-1.9-.4-3.8-.2-5.7h0Z"/>
        <path class="st12" d="M228,386.6c-.2-1.2-2-.7-1.8.5.3,1.4.5,2.7.8,4.1.2,1.2,2,.7,1.8-.5-.3-1.4-.5-2.7-.8-4.1Z"/>
        <path class="st12" d="M229.6,399.1c.1-1.2-1.8-1.2-1.9,0-.2,2.5,0,4.9.3,7.3.2,1.2,2,.7,1.8-.5-.4-2.3-.4-4.5-.2-6.8h0Z"/>
        <path class="st12" d="M231.9,421.2c-.5-1.9-.8-3.7-.9-5.7,0-1.2-1.9-1.2-1.9,0,0,2.1.4,4.1.9,6.2.3,1.1,2.1.7,1.8-.5h0Z"/>
        <path class="st12" d="M232.4,434.7c-.3-1.4-.4-2.8-.2-4.2.1-1.2-1.7-1.2-1.9,0-.2,1.6,0,3.2.3,4.7.3,1.2,2.1.7,1.8-.5h0Z"/>
        <path class="st12" d="M234.8,450.3c-.4-1.5-.8-3-1.1-4.5-.3-1.2-2.1-.7-1.8.5.4,1.5.8,3,1.1,4.5.3,1.2,2.1.7,1.8-.5Z"/>
        <path class="st12" d="M235.8,457.8c-.2-1.2-2-.7-1.8.5.3,1.7.6,3.5.9,5.2.2,1.2,2,.7,1.8-.5-.3-1.7-.6-3.5-.9-5.2Z"/>
        <path class="st12" d="M236.9,470.1c-.4-1.1-2.1-.7-1.8.5.6,2.1,1.1,4.2,1.3,6.4.1,1.2,2,1.2,1.9,0-.3-2.4-.7-4.6-1.4-6.9h0Z"/>
        <path class="st12" d="M239.9,484.6c-.3-1.2-2.1-.7-1.8.5.6,2.2.8,4.5.9,6.8,0,1.2,1.9,1.2,1.9,0,0-2.5-.3-4.9-.9-7.3Z"/>
        <path class="st12" d="M281.2,361.3c-.5-2.4-1.5-4.7-2.8-6.8-.6-1-2.3,0-1.6.9,1.3,2,2.1,4.1,2.6,6.4.2,1.2,2,.7,1.8-.5h0Z"/>
        <path class="st12" d="M284.2,373c-1-1.8-1.5-3.8-1.3-5.9,0-1.2-1.8-1.2-1.9,0-.2,2.4.4,4.7,1.6,6.8.6,1,2.2.1,1.6-.9h0Z"/>
        <path class="st12" d="M288.9,386.2c-.6-1.6-1.2-3.2-1.8-4.7-.4-1.1-2.2-.6-1.8.5.6,1.6,1.2,3.2,1.8,4.7.4,1.1,2.2.6,1.8-.5Z"/>
        <path class="st12" d="M294.4,398.5c-.7-1.7-1.4-3.4-2-5.1-.4-1.1-2.2-.6-1.8.5.7,1.7,1.4,3.4,2,5.1.4,1.1,2.2.6,1.8-.5Z"/>
        <path class="st12" d="M298,410.6c-1-1.1-1.6-2.4-1.9-3.9-.2-1.2-2-.7-1.8.5.3,1.8,1.2,3.4,2.4,4.7.8.9,2.1-.4,1.3-1.3Z"/>
        <path class="st12" d="M299.5,418.5c-.8-.9-2.1.4-1.3,1.3.8.9,1.3,2,1.4,3.2.1,1.2,2,1.2,1.9,0-.2-1.7-.8-3.2-2-4.5h0Z"/>
        <path class="st12" d="M304.7,434.1l-1.7-3.8c-.5-1.1-2.1-.1-1.6.9.6,1.3,1.2,2.5,1.7,3.8.5,1.1,2.1.1,1.6-.9Z"/>
        <path class="st12" d="M308.8,449c-.9-1.6-1.5-3.2-1.8-5-.2-1.2-2-.7-1.8.5.4,1.9,1.1,3.7,2,5.4.6,1,2.2.1,1.6-.9h0Z"/>
        <path class="st12" d="M315.7,463.3c-1.1-1.2-1.9-2.5-2.5-3.9-.5-1.1-2.1-.1-1.6.9.7,1.6,1.6,3,2.8,4.3.8.9,2.1-.4,1.3-1.3Z"/>
        <path class="st12" d="M320.5,473.8c-.9-1.5-1.8-2.9-2.7-4.4-.6-1-2.2,0-1.6.9.9,1.5,1.8,2.9,2.7,4.4.6,1,2.2,0,1.6-.9Z"/>
        <path class="st12" d="M326.9,486.8c-.4-1.5-1.2-2.6-2.4-3.5-1-.7-1.9.9-.9,1.6.8.6,1.3,1.4,1.5,2.4.3,1.2,2.1.7,1.8-.5h0Z"/>
        <path class="st11" d="M228.1,244.6c-4.1-3.3-8-7-11.6-10.9-.8-.9-2.1.4-1.3,1.3,3.6,3.9,7.4,7.5,11.6,10.9.9.8,2.2-.6,1.3-1.3Z"/>
        <path class="st1" d="M370.3,127.2c-.5,2.4-.9,4.6-1.1,6.9-.2,2.2-.2,4.5.3,6.6.5,2.1,1.5,3.9,3.1,5.2,1.6,1.5,3.8,2.2,6,3.2-2.4,0-4.9-.1-7.1-1.6-2.2-1.3-3.8-3.7-4.4-6.2-.6-2.5-.4-5.1.2-7.4.6-2.4,1.5-4.6,3-6.6h0Z"/>
        <path class="st11" d="M330.8,354.2c.4,0,9.2-.3,14.9,5.7"/>
        <g>
          <path class="st13" d="M89.2,443.3c-67.2,1.9-51.1,127.7-51.1,127.7h9.7c-1.7-16.7-8.1-105.4,44.1-106.9,52.3-1.5,47.4,89.9,46,106.9h4.6s13.8-129.6-53.4-127.7Z"/>
          <path class="st0" d="M91.9,464.1c-52.2,1.5-45.8,90.1-44.1,106.9h90.2c1.4-17,6.2-108.3-46-106.9Z"/>
          <path class="st10" d="M99.8,477.9c0,4-3.2,7.2-7.2,7.2s-7.2-3.2-7.2-7.2,3.2-7.2,7.2-7.2,7.2,3.2,7.2,7.2Z"/>
          <path class="st12" d="M88.6,478.4c2.3,20.7,7.3,44.6,22.7,59.9,14.8,14.6,39.2,14.9,54.7,1.1,16.2-14.4,19.4-38.7,21.5-59.1,3.7-36.2,3.7-73.4,13.2-108.8,5.6-20.6,15.7-42.5,37.2-50.2,20.4-7.3,42.9-.9,62.3,6.3,4.5,1.7,6.5-5.5,2-7.2-32.9-12.2-72.1-16.8-94.6,16-22.8,33.4-22.3,80.5-25.5,119.1-2.1,25.9-.9,69.4-28.2,83-38.9,19.3-55-32.1-58-60.2-.5-4.7-8-4.8-7.5,0h0Z"/>
          <path class="st10" d="M73.9,450.4c-5.2,3.5-9.6,7.9-13,13.1-.7,1,1,2,1.6.9,3.2-5,7.3-9.2,12.3-12.5,1-.7,0-2.3-.9-1.6Z"/>
          <path class="st10" d="M91.3,510.3c-5.7.4-11.3.7-17,.7-2.7,0-5.8.3-8.5,0-4.1-.5-4-.3-4.3-4.4-.6-10.9,4.8-24.3,12.1-32.1.8-.9-.5-2.2-1.3-1.3-9.9,10.6-12,24.6-13.1,38.5,0,.5.5.9.9.9,10.4.4,20.7.2,31.1-.5,1.2,0,1.2-2,0-1.9h0Z"/>
          <path class="st10" d="M86.1,518.2c-7.1.5-14.2.8-21.3,1.4-4,.3-3.8.5-5.9,4.5-5.1,9.9-4.4,21.4-3.7,32.1,0,1.2,1.9,1.2,1.9,0-.7-9.8-1.3-19.9,2.6-29.2,2.4-5.7,6-5.7,11.8-6.1,4.9-.3,9.8-.7,14.7-1,1.2,0,1.2-2,0-1.9h0Z"/>
        </g>
        <path class="st9" d="M307,344s10.3-6.7,11.3-12.4c-4.5-8.2-22.3-27.8-33-27.2-10.7.6-2.6,19.8-2.6,19.8l24.4,19.8h0Z"/>
        <g>
          <path class="st6" d="M267,284.9s37.9,22.4,37.1,29.4-14.5-2.7-14.5-2.7c0,0,16,27.1,13,28.1-3,1-13.6-10.4-13.6-10.4,0,0-5.5,4.8-12.4.8-7.4-4.3-14.4-11.5-16.2-17.6-3.5-11.7-7.4-16.7-7.4-16.7l14.1-10.9h0Z"/>
          <path class="st11" d="M272.9,327.7c-.5-.4-4-6.7-3.3-13.8"/>
        </g>
      </g>
    </g>
  </g>
</svg>